<?xml version="1.0" standalone="no"?>
<!DOCTYPE svg PUBLIC "-//W3C//DTD SVG 1.1//EN" "http://www.w3.org/Graphics/SVG/1.1/DTD/svg11.dtd" >
<svg>
<metadata>
Created by FontForge 20090914 at Wed Jun 10 00:07:48 2020
 By www-data
Copyright 2020 The Spartan Project Authors (https://github.com/bghryct/Spartan-MB)
</metadata>
<defs>
<font id="Spartan-Medium" horiz-adv-x="1442" >
  <font-face 
    font-family="Spartan Medium"
    font-weight="500"
    font-stretch="normal"
    units-per-em="2000"
    panose-1="0 0 0 0 0 0 0 0 0 0"
    ascent="1600"
    descent="-400"
    x-height="1024"
    cap-height="1650"
    bbox="-568 -592 2971 2317"
    underline-thickness="100"
    underline-position="-100"
    unicode-range="U+000D-U+FB02"
  />
<missing-glyph horiz-adv-x="684" 
 />
    <glyph glyph-name="fi" unicode="fi" horiz-adv-x="1100" 
d="M229 0v877.001h-113v147h113v333c0 86 12.667 158.167 38 216.5s61.5 102.333 108.5 132s102.167 44.5 165.5 44.5c46.667 0 91 -6.5 133 -19.5s79.5 -30.167 112.5 -51.5s59.833 -45.333 80.5 -72l-81 -125c-18.667 27.333 -46.5 50.666 -83.5 69.999
s-73.833 29 -110.5 29c-58 0 -100.667 -17.333 -128 -52s-41 -91.667 -41 -171v-334h519v-1024h-194v877h-325v-877h-194z" />
    <glyph glyph-name="fl" unicode="fl" horiz-adv-x="1219" 
d="M243 0l-0.000976562 876.998h-114v147h114v333c0 86 12.5 158.167 37.5 216.5s60.833 102.333 107.5 132s101.667 44.5 165 44.5c39.333 0 73.333 -4.16699 102 -12.5s51.334 -17.166 68.001 -26.499l-37 -156c-12.667 6.66699 -27.667 12.334 -45 17.001
s-36.333 7 -57 7c-52 0 -89.667 -17 -113 -51s-35 -90.667 -35 -170v-334h255v-147h-255v-877h-193zM793.999 -0.00195312v1720h192v-1720h-192z" />
    <glyph glyph-name="f_f" unicode="ff" horiz-adv-x="1398" 
d="M250 0l0.000976562 876.999h-113v147h113v333c0 86 12.667 158.167 38 216.5s61.333 102.333 108 132s101.667 44.5 165 44.5c46 0 86 -6.16699 120 -18.5s61.333 -25.5 82 -39.5l-70 -137c-12 6.66699 -26.5 12.334 -43.5 17.001s-36.167 7 -57.5 7
c-52 0 -89.667 -17 -113 -51s-35 -90.667 -35 -170v-334h342v333c0 86 12.667 158.167 38 216.5s61.166 102.333 107.499 132s101.5 44.5 165.5 44.5c52 0 95.833 -7.33301 131.5 -22s63.5 -29.667 83.5 -45l-68 -138c-12.667 9.33301 -28.667 17.333 -48 24s-42 10 -68 10
c-52 0 -89.667 -17 -113 -51s-35 -90.667 -35 -170v-334h255v-147h-255v-877h-194v877h-342v-877h-194z" />
    <glyph glyph-name="f_f_i" unicode="ffi" horiz-adv-x="1695" 
d="M258 0v877h-113v147h113v333c0 86 12.667 158.167 38 216.5s61.333 102.333 108 132s101.667 44.5 165 44.5c46 0 86 -6.16699 120 -18.5s61.333 -25.5 82 -39.5l-70 -137c-12 6.66699 -26.5 12.334 -43.5 17.001s-36.167 7 -57.5 7c-51.333 0 -88.833 -17 -112.5 -51
s-35.5 -90.667 -35.5 -170v-334h343v333c0 86 12.667 158.167 38 216.5s61.333 102.333 108 132s102 44.5 166 44.5c46.667 0 91 -6.5 133 -19.5s79.5 -30.167 112.5 -51.5s59.833 -45.333 80.5 -72l-81 -125c-19.333 27.333 -47.5 50.666 -84.5 69.999s-73.5 29 -109.5 29
c-58 0 -100.667 -17.333 -128 -52s-41 -91.667 -41 -171v-334h517v-1024h-194v877h-323v-877h-194v877h-343v-877h-194z" />
    <glyph glyph-name="f_f_l" unicode="ffl" horiz-adv-x="1757" 
d="M243 0l0.000976562 876.997h-113v147h113v333c0 86 12.667 158.167 38 216.5s61.333 102.333 108 132s101.667 44.5 165 44.5c46 0 86 -6.16699 120 -18.5s61.333 -25.5 82 -39.5l-70 -137c-12 6.66699 -26.5 12.334 -43.5 17.001s-36.167 7 -57.5 7
c-51.333 0 -88.833 -17 -112.5 -51s-35.5 -90.667 -35.5 -170v-334h342v333c0 86 12.667 158.167 38 216.5s61.166 102.333 107.499 132s101.5 44.5 165.5 44.5c39.333 0 73.333 -4.16699 102 -12.5s51.667 -17.166 69 -26.499l-38 -156
c-12.667 6.66699 -27.667 12.334 -45 17.001s-36.333 7 -57 7c-51.333 0 -88.833 -17 -112.5 -51s-35.5 -90.667 -35.5 -170v-334h255v-147h-255v-877h-194v877h-342v-877h-194zM1330 -0.00292969v1720h194v-1720h-194z" />
    <glyph glyph-name=".notdef" horiz-adv-x="684" 
 />
    <glyph glyph-name="NULL" horiz-adv-x="0" 
 />
    <glyph glyph-name="NULL" horiz-adv-x="0" 
 />
    <glyph glyph-name="CR" unicode="&#xd;" horiz-adv-x="521" 
 />
    <glyph glyph-name="space" unicode=" " horiz-adv-x="521" 
 />
    <glyph glyph-name="exclam" unicode="!" horiz-adv-x="747" 
d="M300 430l-22 1290h191l-22 -1290h-147zM373 -32c-24 0 -46 6 -66 18s-36 28 -48 48s-18 42 -18 66s6 46 18 66s28 35.833 48 47.5s42 17.5 66 17.5s46 -5.83301 66 -17.5s35.833 -27.5 47.5 -47.5s17.5 -42 17.5 -66s-5.83301 -46 -17.5 -66s-27.5 -36 -47.5 -48
s-42 -18 -66 -18z" />
    <glyph glyph-name="quotedbl" unicode="&#x22;" horiz-adv-x="932" 
d="M544 1176l-36 488h196l-36 -488h-124zM264 1176l-36 488h196l-36 -488h-124z" />
    <glyph glyph-name="numbersign" unicode="#" horiz-adv-x="1478" 
d="M315 0l55 425h-188v132h205l52 383h-257v132h273l56 426h132l-57 -426h388l56 426h132l-56 -426h190v-132h-206l-53 -383h259v-132h-275l-55 -425h-131l55 425h-388l-55 -425h-132zM518 557h388l52 383h-388z" />
    <glyph glyph-name="dollar" unicode="$" horiz-adv-x="1471" 
d="M703 -276l0.000976562 246.002c-54 1.33301 -108.5 10 -163.5 26s-107.333 37.667 -157 65s-93.834 58.333 -132.501 93s-68 71 -88 109l111 157c33.333 -52 75.333 -97.667 126 -137s106 -70 166 -92s120 -33 180 -33c61.333 0 116 11.5 164 34.5s85.667 55.667 113 98
s41 92.166 41 149.499c0 51.333 -11 95.333 -33 132s-52.167 68.5 -90.5 95.5s-82.666 51.667 -132.999 74l-161.5 69.5c-67.333 28.667 -128.5 60.667 -183.5 96s-98.667 78.5 -131 129.5s-48.5 113.5 -48.5 187.5c0 76 17.667 146.5 53 211.5s84.5 119 147.5 162
s136.5 68.5 220.5 76.5v252h125v-250c75.333 -6.66699 147.666 -28.334 216.999 -65.001s122.666 -81 159.999 -133l-95 -151c-34.667 49.333 -83.5 89.666 -146.5 120.999s-128.833 47 -197.5 47c-56.667 0 -106.667 -11.667 -150 -35s-77.166 -54.833 -101.499 -94.5
s-36.5 -83.834 -36.5 -132.501c0 -54 14.5 -98 43.5 -132s66.667 -62.333 113 -85s94.833 -44 145.5 -64c75.333 -29.333 143.5 -59.5 204.5 -90.5s113.667 -65.5 158 -103.5s78.333 -82.167 102 -132.5s35.5 -109.833 35.5 -178.5c0 -86.667 -18.5 -163.667 -55.5 -231
s-89.333 -121.666 -157 -162.999s-147.5 -66.666 -239.5 -75.999v-253h-125z" />
    <glyph glyph-name="percent" unicode="%" horiz-adv-x="2148" 
d="M579 892c-78.667 0 -149.667 16.667 -213 50s-113.5 79.666 -150.5 138.999s-55.5 127.666 -55.5 204.999s18.5 145.666 55.5 204.999s87.167 105.666 150.5 138.999s134.333 50 213 50s149.5 -16.667 212.5 -50s113 -79.666 150 -138.999s55.5 -127.666 55.5 -204.999
s-18.5 -145.666 -55.5 -204.999s-87 -105.666 -150 -138.999s-133.833 -50 -212.5 -50zM522 0l960 1650h141l-960 -1650h-141zM579 1018c50.667 0 96 11.5 136 34.5s71.833 54.667 95.5 95s35.5 86.5 35.5 138.5c0.666992 52.667 -10.833 99.167 -34.5 139.5
s-55.667 71.833 -96 94.5s-85.833 34 -136.5 34s-96.167 -11.5 -136.5 -34.5s-72.166 -54.5 -95.499 -94.5s-35 -86.333 -35 -139c0 -52 11.667 -98.167 35 -138.5s55.166 -72 95.499 -95s85.833 -34.5 136.5 -34.5zM1569 -31c-78.667 0 -149.667 16.667 -213 50
s-113.5 79.666 -150.5 138.999s-55.5 127.666 -55.5 204.999s18.5 145.666 55.5 204.999s87.167 105.666 150.5 138.999s134.333 50 213 50c79.333 0 150.5 -16.667 213.5 -50s113 -79.666 150 -138.999s55.5 -127.666 55.5 -204.999s-18.5 -145.666 -55.5 -204.999
s-87 -105.666 -150 -138.999s-134.167 -50 -213.5 -50zM1569 95c50.667 0 96.167 11.5 136.5 34.5s72.166 54.667 95.499 95s35 86.5 35 138.5c0 52.667 -11.667 99 -35 139s-55.166 71.5 -95.499 94.5s-85.833 34.5 -136.5 34.5c-50 0 -95.167 -11.5 -135.5 -34.5
s-72.333 -54.5 -96 -94.5s-35.5 -86.333 -35.5 -139c0 -52 11.833 -98.167 35.5 -138.5s55.667 -72 96 -95s85.5 -34.5 135.5 -34.5z" />
    <glyph glyph-name="ampersand" unicode="&#x26;" horiz-adv-x="1807" 
d="M672 -32c-94.667 0 -180.001 17.832 -256.001 53.499s-136.167 86.834 -180.5 153.501s-66.5 146.334 -66.5 239.001c0 109.333 33.167 205.5 99.5 288.5s165.166 154.167 296.499 213.5c-52 54.667 -93.333 103.5 -124 146.5s-52.667 83.833 -66 122.5
s-20 78.334 -20 119.001c0 76.667 18.833 143.167 56.5 199.5s88.334 100 152.001 131s134.834 46.5 213.501 46.5c66 0 124.667 -10.167 176 -30.5s95 -48.333 131 -84s63.333 -76.334 82 -122.001s28 -93.834 28 -144.501c0 -88.667 -29 -165.167 -87 -229.5
s-143 -124.5 -255 -180.5l394 -425c15.333 14 33 32.5 53 55.5l60.5 72l56 70l38.5 49.5l127 -113c-30 -42.667 -64 -88.5 -102 -137.5s-73.333 -91.167 -106 -126.5l310 -335h-254l-203 222c-80.667 -81.333 -167.667 -144 -261 -188s-191 -66 -293 -66zM694.999 158.999
c69.333 0 138.001 17.167 206.001 51.5s132.667 83.833 194 148.5l-422 446c-90.667 -40.667 -160.334 -92.5 -209.001 -155.5s-73 -132.833 -73 -209.5c0 -60 13.833 -111 41.5 -153s64.667 -73.833 111 -95.5s96.833 -32.5 151.5 -32.5zM745 1004
c58 29.333 107.334 58.3311 148.001 86.998s71.5 59.834 92.5 93.501s31.5 73.167 31.5 118.5c0 46 -10.333 86.167 -31 120.5s-48.5 61 -83.5 80s-74.167 28.5 -117.5 28.5c-44 0 -83.167 -9.66699 -117.5 -29s-61.333 -45.833 -81 -79.5s-29.5 -72.167 -29.5 -115.5
c0 -31.333 5.83301 -61.666 17.5 -90.999s31.167 -60.833 58.5 -94.5s64.666 -73.167 111.999 -118.5z" />
    <glyph glyph-name="quotesingle" unicode="'" horiz-adv-x="652" 
d="M264 1176l-36 488h196l-36 -488h-124z" />
    <glyph glyph-name="parenleft" unicode="(" horiz-adv-x="747" 
d="M517 -520c-40 51.333 -81.3311 115.001 -123.998 191.001s-82.334 162.5 -119.001 259.5s-66.167 202.833 -88.5 317.5s-33.5 236.667 -33.5 366s11.333 251.666 34 366.999s52.167 221.5 88.5 318.5s75.833 183.5 118.5 259.5s84 139.667 124 191l126 -54
c-46 -68 -92.667 -155 -140 -261s-86.833 -228 -118.5 -366s-47.5 -289.667 -47.5 -455c0 -161.333 15.5 -310.666 46.5 -447.999s70.167 -259.333 117.5 -366s94.666 -195.334 141.999 -266.001z" />
    <glyph glyph-name="parenright" unicode=")" horiz-adv-x="747" 
d="M230 -520l-125.999 53.9961c65.333 96.667 120.666 203.334 165.999 320.001s79.833 239.334 103.5 368.001s35.5 259.334 35.5 392.001c0 128.667 -11.333 256.834 -34 384.501s-56.5 250.667 -101.5 369s-101.5 227.833 -169.5 328.5l126 54
c117.333 -154 207.166 -329.167 269.499 -525.5s93.5 -399.5 93.5 -609.5c0 -203.333 -30.167 -403.333 -90.5 -600s-151.166 -375 -272.499 -535z" />
    <glyph glyph-name="asterisk" unicode="*" horiz-adv-x="941" 
d="M355 1225l-72 50l110 160l-185 64l28 86l186 -58v193h96v-193l186 58l28 -86l-186 -64l111 -160l-72 -50l-116 153z" />
    <glyph glyph-name="plus" unicode="+" horiz-adv-x="1405" 
d="M618 316v429h-428v168h428v429h168v-429h429v-168h-429v-429h-168z" />
    <glyph glyph-name="comma" unicode="," horiz-adv-x="735" 
d="M307 -273l-53.001 42.998c13.333 14.667 26.333 33.5 39 56.5s23.667 47.667 33 74s15 51.833 17 76.5c-31.333 6.66699 -56.5 21.334 -75.5 44.001s-28.5 49.667 -28.5 81c0 38 12.333 69 37 93s56.667 36 96 36c40.667 0 73.334 -13 98.001 -39s37 -62.667 37 -110
c0 -58.667 -18.5 -120.667 -55.5 -186s-85.167 -121.666 -144.5 -168.999z" />
    <glyph glyph-name="hyphen" unicode="-" horiz-adv-x="1054" 
d="M205 496v167h644v-167h-644z" />
    <glyph glyph-name="period" unicode="." horiz-adv-x="779" 
d="M390 -32c-24.667 0 -47.001 6 -67.001 18s-36 28 -48 48s-18 42 -18 66s6 46 18 66s28 35.833 48 47.5s42 17.5 66 17.5c24.667 0 46.834 -5.83301 66.501 -17.5s35.334 -27.5 47.001 -47.5s17.5 -42 17.5 -66s-5.83301 -46 -17.5 -66s-27.334 -36 -47.001 -48
s-41.5 -18 -65.5 -18z" />
    <glyph glyph-name="slash" unicode="/" horiz-adv-x="1033" 
d="M24 -240l824 1960h161l-824 -1960h-161z" />
    <glyph glyph-name="zero" unicode="0" horiz-adv-x="1655" 
d="M828 -32c-134.667 0 -252.667 35.833 -354 107.5s-180.166 171.834 -236.499 300.501s-84.5 278 -84.5 448c0 170.667 28.167 320.167 84.5 448.5s135.166 228.333 236.499 300s219.333 107.5 354 107.5s252.5 -35.833 353.5 -107.5s179.667 -171.667 236 -300
s84.5 -277.833 84.5 -448.5c0 -170 -28.167 -319.333 -84.5 -448s-135 -228.834 -236 -300.501s-218.833 -107.5 -353.5 -107.5zM828 149c92.667 0 173.334 27.667 242.001 83s122 133.666 160 234.999s57 220.333 57 357c0 137.333 -19 256.5 -57 357.5
s-91.333 179.167 -160 234.5s-149.334 83 -242.001 83s-173.5 -27.667 -242.5 -83s-122.5 -133.5 -160.5 -234.5s-57 -220.167 -57 -357.5c0 -136.667 19 -255.667 57 -357s91.5 -179.666 160.5 -234.999s149.833 -83 242.5 -83z" />
    <glyph glyph-name="one" unicode="1" horiz-adv-x="741" 
d="M292 0v1450h-183v200h386v-1650h-203z" />
    <glyph glyph-name="two" unicode="2" horiz-adv-x="1452" 
d="M108 0l-0.00195312 99.002l380 305c106.667 89.333 196.334 169.166 269.001 239.499s130.834 133.666 174.501 189.999s75 108.5 94 156.5s28.5 94.667 28.5 140c0 67.333 -16 128.5 -48 183.5s-75.167 98.833 -129.5 131.5s-115.166 49 -182.499 49
c-66 0 -126.333 -16.333 -181 -49s-100.167 -78.334 -136.5 -137.001s-60.166 -127 -71.499 -205l-177 70c11.333 74 33.5 142 66.5 204s75 115.667 126 161s109 80.5 174 105.5s135.167 37.5 210.5 37.5c107.333 0 204 -23.833 290 -71.5s154 -112.667 204 -195
s75 -175.833 75 -280.5c0 -53.333 -7.83301 -105.666 -23.5 -156.999s-41.334 -104.5 -77.001 -159.5s-83.334 -113.667 -143.001 -176s-133 -130.833 -220 -205.5s-190.167 -158 -309.5 -250h803v-186h-1196z" />
    <glyph glyph-name="three" unicode="3" horiz-adv-x="1341" 
d="M646 -32c-98 0 -186.161 17.666 -264.494 52.999s-142.333 84.666 -192 147.999s-80.834 137 -93.501 221l192 78c2 -62.667 18.333 -118 49 -166s72.667 -85.333 126 -112s114.333 -40 183 -40c99.333 0 178.666 27.5 237.999 82.5s89 126.833 89 215.5
c0 63.333 -14.5 120.333 -43.5 171s-67.833 90.834 -116.5 120.501s-102.667 44.5 -162 44.5c-26 0 -48 -3 -66 -9v145h61c58 0 110.333 14 157 42s83.667 65.167 111 111.5s41 96.5 41 150.5s-13.333 102.667 -40 146s-62.334 77.666 -107.001 102.999s-94 38 -148 38
c-54.667 0 -104.834 -13 -150.501 -39s-82.834 -61 -111.501 -105s-44.667 -93.667 -48 -149l-167 66c10.667 77.333 38.334 145.833 83.001 205.5s101.5 106.334 170.5 140.001s144.5 50.5 226.5 50.5c91.333 0 173.333 -20 246 -60s130 -94 172 -162s63 -144.667 63 -230
c0 -54 -9.5 -105 -28.5 -153s-45.833 -90.5 -80.5 -127.5s-75.334 -66.167 -122.001 -87.5c51.333 -19.333 97.166 -48.333 137.499 -87s72 -85.167 95 -139.5s34.5 -115.166 34.5 -182.499c0 -92 -21.833 -174.5 -65.5 -247.5s-105.5 -130.5 -185.5 -172.5
s-174.333 -63 -283 -63z" />
    <glyph glyph-name="four" unicode="4" horiz-adv-x="1371" 
d="M872 0v313h-826v78l817 1259h201v-1158h192v-179h-192v-313h-192zM316 492h556v880z" />
    <glyph glyph-name="five" unicode="5" horiz-adv-x="1428" 
d="M689 -31c-88.667 0 -171.833 14.168 -249.5 42.501s-145.167 69.166 -202.5 122.499s-100 117.666 -128 192.999l162 79c28.667 -82 80.5 -147 155.5 -195s162.167 -72 261.5 -72c80 0 149.5 15.5 208.5 46.5s104.833 74.833 137.5 131.5s49 123.334 49 200.001
c0 86.667 -20.5 161.5 -61.5 224.5s-97.5 111.5 -169.5 145.5s-154.667 51 -248 51c-76.667 0 -149 -14 -217 -42s-130.667 -69 -188 -123l137 877h842v-179h-671l-74 -478c134 66 272 84.333 414 55c86.667 -12 162.667 -41.167 228 -87.5s116.5 -106.333 153.5 -180
s55.5 -158.167 55.5 -253.5c0 -120.667 -27 -222.5 -81 -305.5s-126 -145.833 -216 -188.5s-189.333 -64 -298 -64z" />
    <glyph glyph-name="six" unicode="6" horiz-adv-x="1439" 
d="M728 -32c-92 0 -175.173 15.1689 -249.506 45.502s-137.666 71.833 -189.999 124.5s-92.5 113 -120.5 181s-42 139.667 -42 215c0 83.333 18.167 170.166 54.5 260.499s84.833 171.833 145.5 244.5l510 611h247l-503 -598c30.667 16 62.834 28.167 96.501 36.5
s68.834 12.5 105.501 12.5c74 0 143.333 -13.833 208 -41.5s121.334 -66.834 170.001 -117.501s86.834 -110.5 114.501 -179.5s41.5 -145.167 41.5 -228.5c0 -110.667 -25 -208.667 -75 -294s-119.167 -152 -207.5 -200s-190.166 -72 -305.499 -72zM719.994 140.002
c76 0 143.665 16.8311 202.998 50.498s106 79.834 140 138.501s51 125.334 51 200.001c0 76 -17.167 143.833 -51.5 203.5s-80.666 106.667 -138.999 141s-123.166 51.5 -194.499 51.5c-72.667 0 -139 -17.667 -199 -53s-107.833 -83.333 -143.5 -144
s-53.5 -128.667 -53.5 -204c0 -70 16 -134.167 48 -192.5s77 -104.833 135 -139.5s126 -52 204 -52z" />
    <glyph glyph-name="seven" unicode="7" horiz-adv-x="1280" 
d="M97 0l812 1471h-789v179h1089v-64l-872 -1586h-240z" />
    <glyph glyph-name="eight" unicode="8" horiz-adv-x="1387" 
d="M693 -32c-103.333 0 -196.163 20.668 -278.496 62.001s-147.333 98 -195 170s-71.5 153.667 -71.5 245c0 98.667 27.833 187 83.5 265s129.5 134.667 221.5 170c-74.667 35.333 -133.334 86.833 -176.001 154.5s-64 141.5 -64 221.5c0 80.667 21.333 152.834 64 216.501
s100.167 114.167 172.5 151.5s153.5 56 243.5 56c62.667 0 122.667 -10 180 -30s108.666 -48.667 153.999 -86s81.166 -81.833 107.499 -133.5s39.5 -109.5 39.5 -173.5c0 -82 -21.833 -156.5 -65.5 -223.5s-102.167 -118.167 -175.5 -153.5
c93.333 -36 167.666 -93 222.999 -171s83 -166.333 83 -265c0 -90.667 -23.833 -171.834 -71.5 -243.501s-112.667 -128.334 -195 -170.001s-175.5 -62.5 -279.5 -62.5zM693.003 146.001c64 0 120.501 13.833 169.501 41.5s87.167 65.5 114.5 113.5s41 102 41 162
c0 62 -14.167 117 -42.5 165s-66.833 85.833 -115.5 113.5s-104.334 41.5 -167.001 41.5c-61.333 0 -116.5 -13.667 -165.5 -41s-87.667 -65 -116 -113s-42.5 -103 -42.5 -165c0 -60.667 13.667 -115 41 -163s65.5 -85.833 114.5 -113.5s105.167 -41.5 168.5 -41.5z
M693.004 958.001c54.667 0 103.501 12.167 146.501 36.5s76.833 57.666 101.5 99.999s37 90.5 37 144.5s-12.5 102.5 -37.5 145.5s-58.833 76.833 -101.5 101.5s-91.334 37 -146.001 37c-54 0 -102.333 -12.333 -145 -37s-76.5 -58.5 -101.5 -101.5
s-37.5 -91.5 -37.5 -145.5s12.333 -102.167 37 -144.5s58.5 -75.666 101.5 -99.999s91.5 -36.5 145.5 -36.5z" />
    <glyph glyph-name="nine" unicode="9" horiz-adv-x="1439" 
d="M355 0l512 608c-56.667 -39.333 -123 -59 -199 -59c-74 0 -143.833 14 -209.5 42s-123.667 67.5 -174 118.5s-90 111.167 -119 180.5s-43.5 145.333 -43.5 228c0 106 24.167 201.5 72.5 286.5s116.5 152.333 204.5 202s191 74.5 309 74.5
c119.333 0 224.333 -25.167 315 -75.5s161.5 -118.666 212.5 -204.999s76.5 -183.5 76.5 -291.5c0 -51.333 -4.33301 -99 -13 -143s-21.667 -85.833 -39 -125.5s-38.5 -78.334 -63.5 -116.001s-53.5 -75.5 -85.5 -113.5l-509 -611h-247zM717 728
c53.333 0 103.168 10.1689 149.501 30.502s87 48.666 122 84.999s62.5 78.166 82.5 125.499s30 98 30 152c0 74.667 -16.5 141 -49.5 199s-78.333 103.5 -136 136.5s-123.834 49.5 -198.501 49.5s-141.5 -16.667 -200.5 -50s-105.5 -79 -139.5 -137s-51 -124 -51 -198
s17.167 -140.667 51.5 -200s81 -106.333 140 -141s125.5 -52 199.5 -52z" />
    <glyph glyph-name="colon" unicode=":" horiz-adv-x="747" 
d="M371 869c-24 0 -45.833 5.83301 -65.5 17.5s-35.5 27.5 -47.5 47.5s-18 42 -18 66c0 24.667 6 46.834 18 66.501s27.833 35.5 47.5 47.5s41.5 18 65.5 18c24.667 0 46.834 -6 66.501 -18s35.5 -27.833 47.5 -47.5s18 -41.834 18 -66.501c0 -24 -6 -46 -18 -66
s-27.833 -35.833 -47.5 -47.5s-41.834 -17.5 -66.501 -17.5zM371 -32c-24 0 -45.833 6 -65.5 18s-35.5 28 -47.5 48s-18 42 -18 66s6 46 18 66s27.833 35.833 47.5 47.5s41.5 17.5 65.5 17.5c24.667 0 46.834 -5.83301 66.501 -17.5s35.5 -27.5 47.5 -47.5s18 -42 18 -66
s-6 -46 -18 -66s-27.833 -36 -47.5 -48s-41.834 -18 -66.501 -18z" />
    <glyph glyph-name="semicolon" unicode=";" horiz-adv-x="735" 
d="M371 869c-24 0 -45.833 5.83301 -65.5 17.5s-35.5 27.5 -47.5 47.5s-18 42 -18 66c0 24.667 6 46.834 18 66.501s27.833 35.5 47.5 47.5s41.5 18 65.5 18c24.667 0 46.834 -6 66.501 -18s35.5 -27.833 47.5 -47.5s18 -41.834 18 -66.501c0 -24 -6 -46 -18 -66
s-27.833 -35.833 -47.5 -47.5s-41.834 -17.5 -66.501 -17.5zM307 -273l-53.001 42.998c13.333 14.667 26.333 33.5 39 56.5s23.667 47.667 33 74s15 51.833 17 76.5c-31.333 6.66699 -56.5 21.334 -75.5 44.001s-28.5 49.667 -28.5 81c0 38 12.333 69 37 93s56.667 36 96 36
c40.667 0 73.334 -13 98.001 -39s37 -62.667 37 -110c0 -58.667 -18.5 -120.667 -55.5 -186s-85.167 -121.666 -144.5 -168.999z" />
    <glyph glyph-name="less" unicode="&#x3c;" horiz-adv-x="1481" 
d="M1265 270l-1093 498v128l1093 498v-160l-886 -402l886 -402v-160z" />
    <glyph glyph-name="equal" unicode="=" horiz-adv-x="1640" 
d="M307 956v167h1026v-167h-1026zM307 536v168h1026v-168h-1026z" />
    <glyph glyph-name="greater" unicode="&#x3e;" horiz-adv-x="1481" 
d="M216 270v160l887 402l-887 402v160l1093 -498v-128z" />
    <glyph glyph-name="question" unicode="?" horiz-adv-x="1299" 
d="M602 -32c-24 0 -46 6 -66 18s-35.833 28 -47.5 48s-17.5 42 -17.5 66s5.83301 46 17.5 66s27.5 35.833 47.5 47.5s42 17.5 66 17.5c24.667 0 46.834 -5.83301 66.501 -17.5s35.5 -27.5 47.5 -47.5s18 -42 18 -66s-6 -46 -18 -66s-27.833 -36 -47.5 -48
s-41.834 -18 -66.501 -18zM514 448v419c13.333 -2.66699 27.333 -4.83398 42 -6.50098s30.667 -2.5 48 -2.5c71.333 0 134.166 12.833 188.499 38.5s96.833 63 127.5 112s46 108.167 46 177.5c0 66.667 -14.167 123.834 -42.5 171.501s-67.833 84.167 -118.5 109.5
s-110 38 -178 38c-98.667 0 -178.667 -27.833 -240 -83.5s-95 -132.167 -101 -229.5l-165 29c8 98 35.5 181.167 82.5 249.5s107.333 120.333 181 156s154.5 53.5 242.5 53.5c102 0 192.333 -22.167 271 -66.5s140.334 -103.833 185.001 -178.5s67 -158 67 -250
c0 -86 -19.5 -164.833 -58.5 -236.5s-92.833 -130 -161.5 -175s-147.667 -71.167 -237 -78.5v-247h-179z" />
    <glyph glyph-name="at" unicode="@" horiz-adv-x="2085" 
d="M1058 -413c-122 0 -235.498 21.4961 -340.498 64.4961s-196.5 103 -274.5 180s-138.833 167.333 -182.5 271s-65.5 216.167 -65.5 337.5c0 124 22.333 238.167 67 342.5s106.667 195.166 186 272.499s171.333 137.333 276 180s217.334 64 338.001 64
c109.333 0 214.166 -18 314.499 -54s189.833 -88.667 268.5 -158s140.834 -154.166 186.501 -254.499s68.5 -214.833 68.5 -343.5c0 -62.667 -7.16699 -120.167 -21.5 -172.5s-34.666 -97.666 -60.999 -135.999s-58 -68 -95 -89s-78.167 -31.5 -123.5 -31.5
c-50.667 0 -95.667 11.333 -135 34s-70 50.334 -92 83.001c-34.667 -64.667 -83.334 -117 -146.001 -157s-135.667 -60 -219 -60s-158.333 20.167 -225 60.5s-119.334 95.833 -158.001 166.5s-58 151.334 -58 242.001s19.333 171.334 58 242.001s91.5 126.334 158.5 167.001
s142.833 61 227.5 61c77.333 0 147.166 -18.167 209.499 -54.5s110.833 -85.166 145.5 -146.499v174h132v-533c0 -30 4.5 -56.833 13.5 -80.5s22.667 -42.167 41 -55.5s41.166 -20 68.499 -20c29.333 0 55.166 11.167 77.499 33.5s39.666 55.166 51.999 98.499
s18.5 96.333 18.5 159c0 115.333 -20.167 215.5 -60.5 300.5s-94 155.5 -161 211.5s-141.833 97.833 -224.5 125.5s-166.667 41.5 -252 41.5c-103.333 0 -198.166 -18.5 -284.499 -55.5s-161.166 -88 -224.499 -153s-112.333 -140.333 -147 -226s-52 -177.167 -52 -274.5
c0 -96.667 17.167 -187.167 51.5 -271.5s82.666 -158.333 144.999 -222s136 -113.5 221 -149.5s178.167 -54 279.5 -54c114.667 0 213.667 22 297 66s148.333 95.333 195 154l135 -85c-39.333 -54.667 -89.333 -104.334 -150 -149.001s-131.167 -80.167 -211.5 -106.5
s-169.166 -39.5 -266.499 -39.5zM1039 85.9961c64 0 120.67 14.668 170.003 44.001s88.166 70 116.499 122s42.5 111.333 42.5 178c0 68 -14.333 128 -43 180s-67.667 92.667 -117 122s-105.333 44 -168 44c-62 0 -117.833 -14.833 -167.5 -44.5
s-88.834 -70.5 -117.501 -122.5s-43 -112 -43 -180c0 -66.667 14.167 -125.834 42.5 -177.501s67.166 -92.167 116.499 -121.5s105.333 -44 168 -44z" />
    <glyph glyph-name="A" unicode="A" horiz-adv-x="1659" 
d="M82 0l653 1650h189l653 -1650h-219l-183 481h-691l-184 -481h-218zM553 660h553l-277 719z" />
    <glyph glyph-name="B" unicode="B" horiz-adv-x="1305" 
d="M181 0v1650h386c160 0 284.667 -35.5 374 -106.5s134 -174.167 134 -309.5c0 -178.667 -76.667 -302 -230 -370c120.667 -17.333 213.5 -61.833 278.5 -133.5s97.5 -165.834 97.5 -282.501c0 -93.333 -21 -173.5 -63 -240.5s-102 -118.333 -180 -154
s-171 -53.5 -279 -53.5h-518zM384 930.001l142.001 -0.000976562c114 0 201.5 24.167 262.5 72.5s91.5 117.833 91.5 208.5s-30.333 159.834 -91 207.501s-148.334 71.5 -263.001 71.5h-142v-560zM384.001 162h254c120.667 0 213 25.167 277 75.5s96 122.5 96 216.5
c0 94.667 -32.5 168.167 -97.5 220.5s-156.833 78.5 -275.5 78.5h-254v-591z" />
    <glyph glyph-name="C" unicode="C" horiz-adv-x="1585" 
d="M983 -32c-124 0 -239.499 21.833 -346.499 65.5s-200.667 104.334 -281 182.001s-142.833 168.5 -187.5 272.5s-67 216 -67 336s22.5 232 67.5 336s107.5 194.833 187.5 272.5s173.333 138.334 280 182.001s222 65.5 346 65.5c102.667 0 199.5 -14.833 290.5 -44.5
s170.5 -70.167 238.5 -121.5l-92 -171c-54.667 44 -118.667 77.833 -192 101.5s-150.666 35.5 -231.999 35.5c-98 0 -188 -16.667 -270 -50s-153.167 -79.833 -213.5 -139.5s-107 -129.334 -140 -209.001s-49.5 -165.5 -49.5 -257.5s16.5 -177.833 49.5 -257.5
s79.667 -149.334 140 -209.001s131.5 -106.167 213.5 -139.5s172 -50 270 -50c81.333 0 158.666 11.833 231.999 35.5s137.333 57.5 192 101.5l92 -171c-66.667 -50 -145.334 -90.167 -236.001 -120.5s-188 -45.5 -292 -45.5z" />
    <glyph glyph-name="D" unicode="D" horiz-adv-x="1630" 
d="M256 0l-0.000976562 1650h396c117.333 0 226.333 -21 327 -63s188.834 -100.5 264.501 -175.5s134.667 -162.667 177 -263s63.5 -208.5 63.5 -324.5s-21 -224 -63 -324s-100.833 -187.5 -176.5 -262.5s-164 -133.333 -265 -175s-210.167 -62.5 -327.5 -62.5h-396z
M458.999 182l173 0.000976562c90 0 173.667 16.167 251 48.5s144.833 77.666 202.5 135.999s102.5 126.5 134.5 204.5s48 162.667 48 254s-16 176 -48 254s-76.833 146 -134.5 204s-125.167 103.333 -202.5 136s-161 49 -251 49h-173v-1286z" />
    <glyph glyph-name="E" unicode="E" horiz-adv-x="1287" 
d="M256 0v1650h857v-179h-654v-555h630v-178h-630v-559h654v-179h-857z" />
    <glyph glyph-name="F" unicode="F" horiz-adv-x="1247" 
d="M256 0v1650h862v-179h-724l65 53v-698l-65 90h679v-178h-679l65 90v-828h-203z" />
    <glyph glyph-name="G" unicode="G" horiz-adv-x="1858" 
d="M962 -32c-114 0 -220.165 21.8311 -318.498 65.498s-184.333 104.5 -258 182.5s-131.167 168.833 -172.5 272.5s-62 215.5 -62 335.5c0 112 18.667 219.333 56 322s91.666 194 162.999 274s158.166 143.333 260.499 190s218.166 70 347.499 70
c81.333 0 159.5 -9.83301 234.5 -29.5s144.833 -47.5 209.5 -83.5s122 -78.667 172 -128l-101 -156c-61.333 66 -137.5 118.5 -228.5 157.5s-186.5 58.5 -286.5 58.5c-96.667 0 -182.667 -17.667 -258 -53s-139 -84 -191 -146s-91.5 -133 -118.5 -213s-40.5 -165 -40.5 -255
c0 -97.333 15.167 -187.166 45.5 -269.499s72.833 -154.166 127.5 -215.499s118.334 -108.833 191.001 -142.5s151 -50.5 235 -50.5c68 0 134.333 11.333 199 34s122.834 55.167 174.501 97.5s92.667 92.833 123 151.5s45.5 124 45.5 196v48h-556v161h764v-178
c0 -112 -21.667 -211.167 -65 -297.5s-101.5 -159 -174.5 -218s-154.333 -103.833 -244 -134.5s-180.834 -46 -273.501 -46z" />
    <glyph glyph-name="H" unicode="H" horiz-adv-x="1734" 
d="M256 0v1650h203v-734h816v734h203v-1650h-203v738h-816v-738h-203z" />
    <glyph glyph-name="I" unicode="I" horiz-adv-x="715" 
d="M256 0v1650h203v-1650h-203z" />
    <glyph glyph-name="J" unicode="J" horiz-adv-x="1224" 
d="M493 -32c-148.667 0 -276.666 51.333 -383.999 154l75 169c86 -86 180.667 -129 284 -129c99.333 0 176.666 31.5 231.999 94.5s83 151.167 83 264.5v1129h203v-1186c0 -156.667 -43.5 -278.5 -130.5 -365.5s-207.833 -130.5 -362.5 -130.5z" />
    <glyph glyph-name="K" unicode="K" horiz-adv-x="1548" 
d="M256 0v1650h203v-736l700 736h253l-772 -810l860 -840h-283l-758 734v-734h-203z" />
    <glyph glyph-name="L" unicode="L" horiz-adv-x="1211" 
d="M256 0v1650h203v-1471h663v-179h-866z" />
    <glyph glyph-name="M" unicode="M" horiz-adv-x="2080" 
d="M167 0l199 1650h216l458 -1214l458 1214h216l199 -1650h-203l-159 1278l-443 -1195h-136l-443 1195l-159 -1278h-203z" />
    <glyph glyph-name="N" unicode="N" horiz-adv-x="1752" 
d="M256 0v1650h203l834 -1307v1307h203v-1650h-203l-834 1306v-1306h-203z" />
    <glyph glyph-name="O" unicode="O" horiz-adv-x="1962" 
d="M981 -32c-115.333 0 -223.333 22 -324 66s-189 105.167 -265 183.5s-135.5 169.333 -178.5 273s-64.5 214.834 -64.5 333.501c0 119.333 21.5 230.666 64.5 333.999s102.5 194.166 178.5 272.499s164.333 139.5 265 183.5s208.667 66 324 66s223.333 -22 324 -66
s189 -105.167 265 -183.5s135.5 -169.166 178.5 -272.499s64.5 -214.666 64.5 -333.999c0 -118.667 -21.5 -229.834 -64.5 -333.501s-102.5 -194.667 -178.5 -273s-164.333 -139.5 -265 -183.5s-208.667 -66 -324 -66zM981 164c86.667 0 167.167 16.667 241.5 50
s139.333 79.833 195 139.5s99 129.667 130 210s46.5 167.166 46.5 260.499s-15.5 180.166 -46.5 260.499s-74.333 150.333 -130 210s-120.667 106.167 -195 139.5s-154.833 50 -241.5 50s-167.167 -16.667 -241.5 -50s-139.333 -79.833 -195 -139.5s-99 -129.667 -130 -210
s-46.5 -167.166 -46.5 -260.499s15.5 -180.166 46.5 -260.499s74.333 -150.333 130 -210s120.667 -106.167 195 -139.5s154.833 -50 241.5 -50z" />
    <glyph glyph-name="P" unicode="P" horiz-adv-x="1383" 
d="M256 0v1650h468c108 0 202 -18.667 282 -56s142.167 -91.333 186.5 -162s66.5 -156.667 66.5 -258c0 -100 -22.167 -187.167 -66.5 -261.5s-106.5 -131.833 -186.5 -172.5s-174 -61 -282 -61h-265v-679h-203zM459 846h210c74.667 0 140.5 12.667 197.5 38
s101.667 62 134 110s48.5 106.333 48.5 175c0 69.333 -16.167 127.5 -48.5 174.5s-77 82.5 -134 106.5s-122.833 36 -197.5 36h-210v-640z" />
    <glyph glyph-name="Q" unicode="Q" horiz-adv-x="1962" 
d="M1756 -54c-53.333 21.333 -107.335 46.1709 -162.002 74.5039s-109.667 60.166 -165 95.499c-139.333 -98.667 -297.666 -148 -474.999 -148c-117.333 0 -226.333 21.667 -327 65s-188.667 103.666 -264 180.999s-134 167.666 -176 270.999s-63 215 -63 335
s21.333 232 64 336s102 195.167 178 273.5s164.333 139.666 265 183.999s209 66.5 325 66.5s224.333 -22 325 -66s189 -105.167 265 -183.5s135.333 -169.333 178 -273s64 -215.167 64 -334.5c0 -108.667 -19.333 -212.167 -58 -310.5s-93.667 -184.5 -165 -258.5
c49.333 -26.667 97.333 -50.667 144 -72s92.334 -39.333 137.001 -54zM952.998 164.005c55.333 0 108.331 7.49902 158.998 22.499s97.334 36.833 140.001 65.5c-50.667 39.333 -99.334 81 -146.001 125s-90.334 89.333 -131.001 136l89 107
c95.333 -98 200.333 -185.667 315 -263c60.667 58.667 107.334 128.334 140.001 209.001s49 166.334 49 257.001c0 94 -15.333 181.167 -46 261.5s-73.667 150.333 -129 210s-120.166 106.167 -194.499 139.5s-155.166 50 -242.499 50s-168.333 -16.667 -243 -50
s-139.667 -80 -195 -140s-98.5 -130.333 -129.5 -211s-46.5 -168.334 -46.5 -263.001s15.167 -182 45.5 -262s73 -149.5 128 -208.5s119.667 -104.667 194 -137s155.5 -48.5 243.5 -48.5z" />
    <glyph glyph-name="R" unicode="R" horiz-adv-x="1431" 
d="M256 0v1650h468c109.333 0 204 -19 284 -57s141.833 -92.5 185.5 -163.5s65.5 -156.167 65.5 -255.5c0 -86.667 -17 -163.667 -51 -231s-82.5 -122.333 -145.5 -165s-138.167 -70.667 -225.5 -84l546 -694h-258l-511 673h-155v-673h-203zM459 846h209.998
c78.667 0 146.334 13 203.001 39s100.334 63.167 131.001 111.5s46 105.833 46 172.5c0 99.333 -33.5 177 -100.5 233s-160.167 84 -279.5 84h-210v-640z" />
    <glyph glyph-name="S" unicode="S" horiz-adv-x="1366" 
d="M673 -32c-82.667 0 -156.331 11.5029 -220.998 34.5029s-120.334 51.167 -167.001 84.5s-85 66.166 -115 98.499s-52 57.833 -66 76.5l111 158l62 -72c26 -29.333 58 -58.666 96 -87.999s82.333 -54 133 -74s108 -30 172 -30c60.667 0 115.667 10.667 165 32
s88.833 53 118.5 95s44.5 94 44.5 156c0 52.667 -10.667 97.5 -32 134.5s-51 68.833 -89 95.5s-82.333 51.167 -133 73.5s-105.334 44.833 -164.001 67.5c-41.333 16.667 -83.333 36.167 -126 58.5s-82 49.666 -118 81.999s-65 70.833 -87 115.5s-33 97.334 -33 158.001
c0 61.333 11.667 119.333 35 174s56.333 103.167 99 145.5s93.5 75.666 152.5 99.999s124.5 36.5 196.5 36.5c64 0 124.5 -10 181.5 -30s107.833 -45.5 152.5 -76.5s80.334 -63.5 107.001 -97.5l-95 -149c-22 28.667 -50 55.834 -84 81.501s-73 46.5 -117 62.5
s-91.333 24 -142 24c-62 0 -114.5 -12.833 -157.5 -38.5s-75.833 -58.834 -98.5 -99.501s-34 -84 -34 -130c0 -41.333 8.5 -76.333 25.5 -105s39.833 -53 68.5 -73s61 -37.667 97 -53s73 -30 111 -44c68 -26.667 132.333 -54.167 193 -82.5s114 -61.333 160 -99
s82.167 -82.834 108.5 -135.501s39.5 -116.334 39.5 -191.001c0 -100.667 -23.833 -186.5 -71.5 -257.5s-112.834 -125.167 -195.501 -162.5s-177 -56 -283 -56z" />
    <glyph glyph-name="T" unicode="T" horiz-adv-x="1339" 
d="M568 0v1468h-478v182h1160v-182h-479v-1468h-203z" />
    <glyph glyph-name="U" unicode="U" horiz-adv-x="1638" 
d="M819 -32c-194.667 0 -341.333 52 -440 156s-148 259 -148 465v1061h203v-1010c0 -160.667 31.5 -279.5 94.5 -356.5s159.833 -115.5 290.5 -115.5s227.5 38.5 290.5 115.5s94.5 195.833 94.5 356.5v1010h204v-1061c0 -206 -49.333 -361 -148 -465
s-245.667 -156 -441 -156z" />
    <glyph glyph-name="V" unicode="V" horiz-adv-x="1704" 
d="M772 0l-692 1650h230l542 -1344l542 1344h229l-692 -1650h-159z" />
    <glyph glyph-name="W" unicode="W" horiz-adv-x="2455" 
d="M583 0l-486 1650h226l383 -1379l444 1379h155l445 -1379l382 1379h226l-486 -1650h-227l-417 1254l-417 -1254h-228z" />
    <glyph glyph-name="X" unicode="X" horiz-adv-x="1657" 
d="M73 0l630 890l-531 760h244l412 -589l412 589h244l-530 -760l629 -890h-253l-502 713l-502 -713h-253z" />
    <glyph glyph-name="Y" unicode="Y" horiz-adv-x="1491" 
d="M644 0v721l-577 929h245l433 -717l434 717h245l-577 -929v-721h-203z" />
    <glyph glyph-name="Z" unicode="Z" horiz-adv-x="1573" 
d="M90 0l1018 1468h-904v182h1267l-1018 -1468h964v-182h-1327z" />
    <glyph glyph-name="bracketleft" unicode="[" horiz-adv-x="806" 
d="M246 -520v2240h471v-138h-300v-1964h300v-138h-471z" />
    <glyph glyph-name="backslash" unicode="\" horiz-adv-x="1033" 
d="M848 0l-824 1720h161l824 -1720h-161z" />
    <glyph glyph-name="bracketright" unicode="]" horiz-adv-x="806" 
d="M89 -520v138h300v1964h-300v138h471v-2240h-471z" />
    <glyph glyph-name="asciicircum" unicode="^" horiz-adv-x="1240" 
d="M156 1210l414 471h100l414 -471h-174l-290 336l-290 -336h-174z" />
    <glyph glyph-name="underscore" unicode="_" horiz-adv-x="1436" 
d="M205 -201v100h1026v-100h-1026z" />
    <glyph glyph-name="grave" unicode="`" horiz-adv-x="415" 
d="M266 1143l-266 364l142 104l216 -398z" />
    <glyph glyph-name="a" unicode="a" 
d="M639 -32c-95.333 0 -181.501 23.501 -258.501 70.501s-138 111.5 -183 193.5s-67.5 175.667 -67.5 281c0 104 22 196.833 66 278.5s104.333 146.167 181 193.5s164 71 262 71c86.667 0 165.834 -19.333 237.501 -58s127.167 -92.334 166.5 -161.001v187h194v-1024h-194
v192c-44.667 -70.667 -102 -125.667 -172 -165s-147.333 -59 -232 -59zM690.999 135.001c70 0 131.833 16.167 185.5 48.5s95.834 76.833 126.501 133.5s46 121.667 46 195s-15.333 138.333 -46 195s-72.834 101.167 -126.501 133.5s-115.5 48.5 -185.5 48.5
c-69.333 0 -131 -16.167 -185 -48.5s-96.5 -76.833 -127.5 -133.5s-46.5 -121.667 -46.5 -195c0 -72.667 15.5 -137.5 46.5 -194.5s73.5 -101.667 127.5 -134s115.667 -48.5 185 -48.5z" />
    <glyph glyph-name="b" unicode="b" 
d="M804 -32c-84.667 0 -162.33 19.833 -232.997 59.5s-128 94.5 -172 164.5v-192h-194v1720h194v-883c41.333 68.667 97.166 122.334 167.499 161.001s148.166 58 233.499 58c98 0 185.667 -23.667 263 -71s138.166 -111.833 182.499 -193.5s66.5 -174.834 66.5 -279.501
c0 -105.333 -22.5 -199 -67.5 -281s-105.833 -146.333 -182.5 -193s-162.667 -70 -258 -70zM752.004 135c70 0 131.831 16.167 185.498 48.5s95.834 76.833 126.501 133.5s46 121.334 46 194.001c0 73.333 -15.5 138.5 -46.5 195.5s-73.333 101.667 -127 134
s-115.167 48.5 -184.5 48.5s-131.166 -16.167 -185.499 -48.5s-97 -77 -128 -134s-46.5 -122.167 -46.5 -195.5c0 -72.667 15.333 -137.334 46 -194.001s73.167 -101.167 127.5 -133.5s116.5 -48.5 186.5 -48.5z" />
    <glyph glyph-name="c" unicode="c" horiz-adv-x="1119" 
d="M682 -32c-77.333 0 -149.834 13.667 -217.501 41s-127.167 65.666 -178.5 114.999s-91.5 107 -120.5 173s-43.5 137.667 -43.5 215c0 76 14 146.833 42 212.5s67.333 123.334 118 173.001s110 88.5 178 116.5s141.667 42 221 42c67.333 0 131.333 -9.83301 192 -29.5
s112 -46.167 154 -79.5l-73 -131c-67.333 52 -149.666 78 -246.999 78c-77.333 0 -145 -17.167 -203 -51.5s-102.833 -80.5 -134.5 -138.5s-47.5 -122 -47.5 -192c0 -72 16.333 -136.833 49 -194.5s78.167 -103.334 136.5 -137.001s125.5 -50.5 201.5 -50.5
c47.333 0 92 6.83301 134 20.5s78.667 32.834 110 57.501l74 -131c-42.667 -32.667 -94 -59 -154 -79s-123.667 -30 -191 -30z" />
    <glyph glyph-name="d" unicode="d" 
d="M638 -32c-94.667 0 -180.497 23.333 -257.497 70s-138 111 -183 193s-67.5 175.667 -67.5 281c0 104.667 22.167 197.834 66.5 279.501s105 146.167 182 193.5s164.833 71 263.5 71c85.333 0 163.166 -19.333 233.499 -58s126.166 -92.334 167.499 -161.001v884h194
v-1721h-194v192c-44 -70 -101.333 -124.833 -172 -164.5s-148.334 -59.5 -233.001 -59.5zM690.003 135c70 0 132 16.167 186 48.5s96.333 76.833 127 133.5s46 121.334 46 194.001c0 73.333 -15.333 138.5 -46 195.5s-73 101.667 -127 134s-115.667 48.5 -185 48.5
s-131 -16.167 -185 -48.5s-96.5 -77 -127.5 -134s-46.5 -122.167 -46.5 -195.5c0 -72.667 15.333 -137.334 46 -194.001s73 -101.167 127 -133.5s115.667 -48.5 185 -48.5z" />
    <glyph glyph-name="e" unicode="e" horiz-adv-x="1322" 
d="M688 -32c-107.333 0 -203.668 23.666 -289.001 70.999s-152.666 111.833 -201.999 193.5s-74 173.834 -74 276.501c0 76 14 147 42 213s67 124.167 117 174.5s108 89.5 174 117.5s136.667 42 212 42c106.667 0 200.167 -22 280.5 -66s143 -105.333 188 -184
s67.5 -170 67.5 -274c0 -8.66699 -0.333008 -15.667 -1 -21s-2 -12.333 -4 -21h-880c0 -71.333 16.167 -134.333 48.5 -189s77 -97.5 134 -128.5s122.5 -46.5 196.5 -46.5c70 0 132.667 14.333 188 43s103.333 71.334 144 128.001l142 -74
c-48.667 -80.667 -115.5 -143.334 -200.5 -188.001s-179.5 -67 -283.5 -67zM328.998 632.999h680.001c-9.33301 52.667 -29.833 98.834 -61.5 138.501s-71.334 70.667 -119.001 93s-100.167 33.5 -157.5 33.5c-60 0 -114.167 -10.833 -162.5 -32.5s-88 -52.334 -119 -92.001
s-51.167 -86.5 -60.5 -140.5z" />
    <glyph glyph-name="f" unicode="f" horiz-adv-x="753" 
d="M233 0l0.00195312 876.999h-113v147h113v333c0 82.667 12.167 153.334 36.5 212.001s59.666 103.5 105.999 134.5s102.833 46.5 169.5 46.5c41.333 0 80.5 -5.83301 117.5 -17.5s69.167 -28.167 96.5 -49.5l-68 -138c-30.667 22.667 -68.334 34 -113.001 34
c-36.667 0 -66 -9 -88 -27s-38 -43.5 -48 -76.5s-15 -72.167 -15 -117.5v-334h255v-147h-255v-877h-194z" />
    <glyph glyph-name="g" unicode="g" 
d="M669 -550c-132 0 -243.331 25.333 -333.998 76s-157.667 124.667 -201 222l161 76c30.667 -63.333 79.667 -113.833 147 -151.5s143 -56.5 227 -56.5c72 0 136.167 14.333 192.5 43s100.666 69.667 132.999 123s48.5 117 48.5 191v219
c-43.333 -70 -100.333 -124.833 -171 -164.5s-148.667 -59.5 -234 -59.5c-94.667 0 -180.334 23.333 -257.001 70s-137.667 111 -183 193s-68 175.667 -68 281c0 104.667 22.333 197.834 67 279.501s105.5 146.167 182.5 193.5s164.5 71 262.5 71
c85.333 0 163.333 -19.333 234 -58s126.334 -92.334 167.001 -161.001v187h194v-1052c0 -109.333 -22.167 -203 -66.5 -281s-108.833 -137.667 -193.5 -179s-187.334 -62 -308.001 -62zM690.002 135c70 0 132.167 16.167 186.5 48.5s96.833 76.833 127.5 133.5
s46 121.334 46 194.001c0 73.333 -15.5 138.5 -46.5 195.5s-73.5 101.667 -127.5 134s-115.667 48.5 -185 48.5s-131 -16.167 -185 -48.5s-96.5 -77 -127.5 -134s-46.5 -122.167 -46.5 -195.5c0 -72.667 15.333 -137.334 46 -194.001s73 -101.167 127 -133.5
s115.667 -48.5 185 -48.5z" />
    <glyph glyph-name="h" unicode="h" horiz-adv-x="1317" 
d="M205 0l-0.000976562 1721h194v-829c31.333 46.667 76.333 85.667 135 117s128.334 47 209.001 47c79.333 0 148 -16.5 206 -49.5s102.833 -80.5 134.5 -142.5s47.5 -136 47.5 -222v-642h-194v603c0 96 -23 169.833 -69 221.5s-110.667 77.5 -194 77.5
c-57.333 0 -106.5 -11.667 -147.5 -35s-72.5 -54.166 -94.5 -92.499s-33 -80.166 -33 -125.499v-649h-194z" />
    <glyph glyph-name="i" unicode="i" horiz-adv-x="604" 
d="M204 0v1024h194v-1024h-194zM301 1231c-22 0 -42.167 5.50098 -60.5 16.501s-33 25.833 -44 44.5s-16.5 39 -16.5 61c0 22.667 5.5 43 16.5 61s25.667 32.5 44 43.5s38.5 16.5 60.5 16.5c22.667 0 43 -5.5 61 -16.5s32.5 -25.5 43.5 -43.5s16.5 -38 16.5 -60
c0 -22.667 -5.5 -43.334 -16.5 -62.001s-25.5 -33.5 -43.5 -44.5s-38.333 -16.5 -61 -16.5z" />
    <glyph glyph-name="j" unicode="j" horiz-adv-x="605" 
d="M100 -550c-38 0 -75.833 4.66797 -113.5 14.001s-68.5 22.666 -92.5 39.999l58 156c30.667 -24.667 67.667 -37 111 -37c95.333 0 143 64.333 143 193v1208h194v-1234c0 -108.667 -26 -192.5 -78 -251.5s-126 -88.5 -222 -88.5zM303 1233c-22 0 -42.333 5.5 -61 16.5
s-33.5 25.667 -44.5 44s-16.5 38.833 -16.5 61.5c0 22 5.5 42.167 16.5 60.5s25.833 33 44.5 44s39 16.5 61 16.5s42.167 -5.5 60.5 -16.5s33 -25.667 44 -44s16.5 -38.5 16.5 -60.5s-5.5 -42.333 -16.5 -61s-25.667 -33.5 -44 -44.5s-38.5 -16.5 -60.5 -16.5z" />
    <glyph glyph-name="k" unicode="k" horiz-adv-x="1160" 
d="M205 0v1720h194v-1102l400 406h252l-477 -488l501 -536h-249l-427 462v-462h-194z" />
    <glyph glyph-name="l" unicode="l" horiz-adv-x="604" 
d="M205 0v1720h194v-1720h-194z" />
    <glyph glyph-name="m" unicode="m" horiz-adv-x="2008" 
d="M205 0l-0.00390625 1024h194v-132c43.333 54.667 92.333 95.667 147 123s115.334 41 182.001 41c82.667 0 155.334 -18.833 218.001 -56.5s106.334 -88.834 131.001 -153.501c42.667 65.333 94 116.666 154 153.999s130.333 56 211 56c73.333 0 138.333 -15 195 -45
s101.334 -73.333 134.001 -130s49 -125.334 49 -206.001v-675h-194v621c0 85.333 -22.333 153 -67 203s-104 75 -178 75c-51.333 0 -97.5 -11.167 -138.5 -33.5s-73.333 -51.333 -97 -87s-35.5 -73.167 -35.5 -112.5v-666h-194v634c0 80.667 -22 145 -66 193
s-102.667 72 -176 72c-51.333 0 -97.833 -10.833 -139.5 -32.5s-74.667 -49.834 -99 -84.501s-36.5 -71 -36.5 -109v-673h-194z" />
    <glyph glyph-name="n" unicode="n" horiz-adv-x="1317" 
d="M205 0l-0.000976562 1024h194v-132c31.333 46.667 76.333 85.667 135 117s128.334 47 209.001 47c79.333 0 148 -16.5 206 -49.5s102.833 -80.5 134.5 -142.5s47.5 -136 47.5 -222v-642h-194v603c0 96 -23 169.667 -69 221s-110.667 77 -194 77
c-57.333 0 -106.5 -11.5 -147.5 -34.5s-72.5 -53.667 -94.5 -92s-33 -80.166 -33 -125.499v-649h-194z" />
    <glyph glyph-name="o" unicode="o" horiz-adv-x="1401" 
d="M700 -32c-108.667 0 -206.5 23 -293.5 69s-156 110 -207 192s-76.5 176.333 -76.5 283c0 107.333 25.5 201.833 76.5 283.5s120 145.5 207 191.5s184.833 69 293.5 69s206.5 -23 293.5 -69s156 -109.833 207 -191.5s76.5 -176.167 76.5 -283.5
c0 -106.667 -25.5 -201 -76.5 -283s-120 -146 -207 -192s-184.833 -69 -293.5 -69zM701 137c71.333 0 135.333 16 192 48s101.334 76.333 134.001 133s49 121.334 49 194.001c0 73.333 -16.333 138.166 -49 194.499s-77.334 100.5 -134.001 132.5s-120.667 48 -192 48
c-72 0 -136.333 -16 -193 -48s-101.334 -76.167 -134.001 -132.5s-49 -121.166 -49 -194.499c0 -72.667 16.333 -137.334 49 -194.001s77.334 -101 134.001 -133s121 -48 193 -48z" />
    <glyph glyph-name="p" unicode="p" 
d="M205 -520l0.000976562 1544h194v-186c41.333 68.667 97.166 122.167 167.499 160.5s147.833 57.5 232.5 57.5c98.667 0 186.5 -23.667 263.5 -71s137.833 -111.833 182.5 -193.5s67 -174.834 67 -279.501c0 -103.333 -22.167 -196.166 -66.5 -278.499
s-104.833 -147.166 -181.5 -194.499s-163.667 -71 -261 -71c-84 0 -161.333 19.667 -232 59s-128 94.333 -172 165v-712h-194zM752.001 134.999c69.333 0 131 16.166 185 48.499s96.333 76.833 127 133.5s46 121.334 46 194.001c0 73.333 -15.5 138.5 -46.5 195.5
s-73.333 101.667 -127 134s-115.167 48.5 -184.5 48.5s-131.166 -16.167 -185.499 -48.5s-97 -76.833 -128 -133.5s-46.5 -121.667 -46.5 -195s15.5 -138.333 46.5 -195s73.667 -101.167 128 -133.5s116.166 -48.5 185.499 -48.5z" />
    <glyph glyph-name="q" unicode="q" 
d="M1043 -520v712c-44.667 -70.667 -102.167 -125.667 -172.5 -165s-147.5 -59 -231.5 -59c-97.333 0 -184.333 23.667 -261 71s-137.167 112.166 -181.5 194.499s-66.5 175.166 -66.5 278.499c0 104.667 22.333 197.834 67 279.501s105.5 146.167 182.5 193.5
s164.833 71 263.5 71c84.667 0 162 -19.167 232 -57.5s126 -92.166 168 -161.499v187h194v-1544h-194zM690 135c70 0 132 16.167 186 48.5s96.333 76.833 127 133.5s46 121.667 46 195s-15.333 138.333 -46 195s-73 101.167 -127 133.5s-115.667 48.5 -185 48.5
s-131 -16.167 -185 -48.5s-96.5 -76.833 -127.5 -133.5s-46.5 -121.667 -46.5 -195s15.333 -138.333 46 -195s73 -101.167 127 -133.5s115.667 -48.5 185 -48.5z" />
    <glyph glyph-name="r" unicode="r" horiz-adv-x="926" 
d="M205 0l-0.000976562 1024h194v-150c34 59.333 77.333 104.5 130 135.5s112.334 46.5 179.001 46.5c32 0 64.5 -3.83301 97.5 -11.5s61.5 -17.834 85.5 -30.501l-80 -164c-20.667 11.333 -44.667 20.333 -72 27s-53 10 -77 10c-44.667 0 -87.167 -11.5 -127.5 -34.5
s-73 -52.833 -98 -89.5s-37.5 -76 -37.5 -118v-645h-194z" />
    <glyph glyph-name="s" unicode="s" horiz-adv-x="1001" 
d="M478 -32c-85.333 0 -160.83 18.501 -226.497 55.501s-117.834 89.833 -156.501 158.5l93 120c35.333 -59.333 78 -105.333 128 -138s103.667 -49 161 -49c37.333 0 71.166 7.33301 101.499 22s54.5 35.834 72.5 63.501s27 60.5 27 98.5
c0 36.667 -9.16699 65.5 -27.5 86.5s-45.333 39.5 -81 55.5s-80.167 34.333 -133.5 55c-42.667 17.333 -84 37 -124 59s-72.833 49.833 -98.5 83.5s-38.5 76.5 -38.5 128.5c0 56 15.167 105.667 45.5 149s72.166 77.333 125.499 102s114 37 182 37c55.333 0 109 -11 161 -33
s101.333 -53.667 148 -95l-78 -118c-69.333 73.333 -146 110 -230 110c-50.667 0 -91.667 -12.833 -123 -38.5s-47 -58.834 -47 -99.501c0 -31.333 11.333 -57.5 34 -78.5s51.667 -39.167 87 -54.5s72 -30.333 110 -45c57.333 -21.333 107.5 -43.333 150.5 -66
s76.5 -51.834 100.5 -87.501s36 -83.5 36 -143.5c0 -70 -16.5 -130.333 -49.5 -181s-79.5 -89.5 -139.5 -116.5s-130 -40.5 -210 -40.5z" />
    <glyph glyph-name="t" unicode="t" horiz-adv-x="780" 
d="M489 -32c-84 0 -149.332 27.832 -195.999 83.499s-70 133.834 -70 234.501v591h-114v147h114v383h194v-383h246v-147h-246v-579c0 -50.667 10 -89.667 30 -117s48.667 -41 86 -41s70.666 11 99.999 33l49 -155c-26 -15.333 -56.167 -27.5 -90.5 -36.5
s-68.5 -13.5 -102.5 -13.5z" />
    <glyph glyph-name="u" unicode="u" horiz-adv-x="1291" 
d="M645 -32c-164.667 0 -282.669 35.5 -354.002 106.5s-107 189.167 -107 354.5v595h194v-555c0 -122.667 20.333 -210 61 -262s109.334 -78 206.001 -78c97.333 0 166.333 26 207 78s61 139.333 61 262v555h194v-595c0 -165.333 -35.667 -283.5 -107 -354.5
s-189.666 -106.5 -354.999 -106.5z" />
    <glyph glyph-name="v" unicode="v" horiz-adv-x="1229" 
d="M550 0l-509 1024h228l346 -757l346 757h228l-510 -1024h-129z" />
    <glyph glyph-name="w" unicode="w" horiz-adv-x="1961" 
d="M550 0l-509 1024h222l346 -755l306 755h131l305 -755l347 755h222l-509 -1024h-130l-301 736l-301 -736h-129z" />
    <glyph glyph-name="x" unicode="x" horiz-adv-x="1193" 
d="M41 0l434 530l-375 494h224l273 -359l272 359h224l-375 -494l434 -530h-231l-324 402l-325 -402h-231z" />
    <glyph glyph-name="y" unicode="y" horiz-adv-x="1241" 
d="M251 -520l275 576l-487 968h221l378 -775l339 775h221l-727 -1544h-220z" />
    <glyph glyph-name="z" unicode="z" horiz-adv-x="1195" 
d="M69 0l700 870h-621v154h962l-701 -870h675v-154h-1015z" />
    <glyph glyph-name="braceleft" unicode="{" horiz-adv-x="778" 
d="M561 -520c-64 0 -116.667 10.8262 -158 32.4932s-73.666 50.334 -96.999 86.001s-39.666 74.834 -48.999 117.501s-14 84.667 -14 126v596c0 38 -8.66699 65.167 -26 81.5s-42 24.5 -74 24.5v112c32 0 56.667 8.16699 74 24.5s26 43.5 26 81.5v596
c0 41.333 4.66699 83.333 14 126s25.666 81.834 48.999 117.501s55.666 64.334 96.999 86.001s94 32.5 158 32.5h105v-148h-53c-64.667 0 -114 -20.167 -148 -60.5s-51 -96.166 -51 -167.499v-604c0 -37.333 -6.5 -67.166 -19.5 -89.499s-30.167 -39.166 -51.5 -50.499
c21.333 -11.333 38.5 -28.333 51.5 -51s19.5 -52.334 19.5 -89.001v-604c0 -71.333 17 -127.166 51 -167.499s83.333 -60.5 148 -60.5h53v-148h-105z" />
    <glyph glyph-name="bar" unicode="|" horiz-adv-x="785" 
d="M307 0v1720h171v-1720h-171z" />
    <glyph glyph-name="braceright" unicode="}" horiz-adv-x="778" 
d="M112 -520v148.007h53c65.333 0 114.833 20.167 148.5 60.5s50.5 96.166 50.5 167.499v604c0 36.667 6.66699 66.334 20 89.001s30.666 39.667 51.999 51c-21.333 11.333 -38.666 28.166 -51.999 50.499s-20 52.166 -20 89.499v604
c0 71.333 -16.833 127.166 -50.5 167.499s-83.167 60.5 -148.5 60.5h-53v148h105c64 0 116.667 -10.833 158 -32.5s73.666 -50.334 96.999 -86.001s39.666 -74.834 48.999 -117.501s14 -84.667 14 -126v-596c0 -38 8.66699 -65.167 26 -81.5s42.333 -24.5 75 -24.5v-112
c-32.667 0 -57.667 -8.16699 -75 -24.5s-26 -43.5 -26 -81.5v-596c0 -41.333 -4.66699 -83.333 -14 -126s-25.666 -81.834 -48.999 -117.501s-55.666 -64.334 -96.999 -86.001s-94 -32.5 -158 -32.5h-105z" />
    <glyph glyph-name="asciitilde" unicode="~" horiz-adv-x="1505" 
d="M957 669c-43.333 0 -82.6699 8.33301 -118.003 25s-69 35.834 -101 57.501s-63.833 40.834 -95.5 57.501s-65.5 25 -101.5 25c-46.667 0 -87.667 -15 -123 -45s-63.333 -67 -84 -111l-106 94c20.667 39.333 47.334 75.5 80.001 108.5s69.334 59.5 110.001 79.5
s83.334 30 128.001 30c43.333 0 82.666 -8.33301 117.999 -25s68.833 -35.834 100.5 -57.501s63.334 -40.834 95.001 -57.501s65.5 -25 101.5 -25c42 0 81.333 13.667 118 41s66.667 65.333 90 114l106 -93c-22 -41.333 -49.833 -78.5 -83.5 -111.5s-70.5 -59 -110.5 -78
s-81.333 -28.5 -124 -28.5z" />
    <glyph glyph-name="uni00A0" unicode="&#xa0;" horiz-adv-x="521" 
 />
    <glyph glyph-name="exclamdown" unicode="&#xa1;" horiz-adv-x="749" 
d="M278 -522l23 1290h147l22 -1290h-192zM373 967c-24 0 -45.833 6 -65.5 18s-35.5 27.833 -47.5 47.5s-18 41.5 -18 65.5c0 24.667 6 46.834 18 66.501s27.833 35.5 47.5 47.5s41.5 18 65.5 18c24.667 0 46.834 -6 66.501 -18s35.5 -27.833 47.5 -47.5
s18 -41.834 18 -66.501c0 -24 -6 -45.833 -18 -65.5s-27.833 -35.5 -47.5 -47.5s-41.834 -18 -66.501 -18z" />
    <glyph glyph-name="cent" unicode="&#xa2;" horiz-adv-x="1309" 
d="M689 -258l-0.000976562 232.998c-94 10.667 -177.833 40.834 -251.5 90.501s-131.5 113.334 -173.5 191.001s-63 162.834 -63 255.501c0 86.667 18.333 166.667 55 240s87.667 135.166 153 185.499s141.333 84.166 228 101.499v233h123v-217
c71.333 -0.666992 135.666 -10.167 192.999 -28.5s108.333 -45.166 153 -80.499l-64 -132c-34 28.667 -73.5 50.5 -118.5 65.5s-92.5 22.5 -142.5 22.5c-74.667 0 -140.667 -16.5 -198 -49.5s-102.166 -78.833 -134.499 -137.5s-48.5 -126 -48.5 -202
s16.167 -143.333 48.5 -202s77.333 -104.667 135 -138s123.834 -50 198.501 -50c49.333 0 96.833 7.66699 142.5 23s84.834 36.333 117.501 63l64 -132c-38.667 -30 -83.334 -54.167 -134.001 -72.5s-103.667 -29.5 -159 -33.5v-229h-124z" />
    <glyph glyph-name="sterling" unicode="&#xa3;" horiz-adv-x="1681" 
d="M1143 -30c-54 0 -104.332 7.83301 -150.999 23.5s-91.5 33.5 -134.5 53.5s-85.167 37.833 -126.5 53.5s-83.666 23.5 -126.999 23.5c-31.333 0 -60.833 -5 -88.5 -15s-50.334 -24.167 -68.001 -42.5s-28.167 -40.5 -31.5 -66.5h-170c1.33301 48 14.5 92.167 39.5 132.5
s59 73.166 102 98.499s91.5 39.333 145.5 42c10.667 23.333 19.667 51.333 27 84s11 65.334 11 98.001c0 33.333 -4.16699 62.666 -12.5 87.999s-18.833 48.666 -31.5 69.999h-317v115h261c-36.667 56.667 -69 118.167 -97 184.5s-42 142.833 -42 229.5
c0 109.333 23.167 204.333 69.5 285s110.333 143.167 192 187.5s175.834 66.5 282.501 66.5c92 0 175.5 -16.5 250.5 -49.5s138 -79.833 189 -140.5s86.5 -132.667 106.5 -216l-168 -76c-12 54 -33.167 104.833 -63.5 152.5s-71.333 86.5 -123 116.5
s-115.834 45 -192.501 45c-72.667 0 -135.334 -15 -188.001 -45s-93.167 -72.167 -121.5 -126.5s-42.5 -118.833 -42.5 -193.5c0 -53.333 6.66699 -103.666 20 -150.999s30.666 -92.833 51.999 -136.5l66 -132.5h463v-115h-426c12.667 -24 22.334 -48.5 29.001 -73.5
s10 -53.167 10 -84.5c0 -29.333 -3.33301 -60.666 -10 -93.999s-18 -67.333 -34 -102c36 -2 71.667 -9.66699 107 -23s70.5 -28 105.5 -44s70.5 -30.167 106.5 -42.5s73 -18.5 111 -18.5c48 0 88.333 10 121 30s58.167 46.5 76.5 79.5s29.833 69.167 34.5 108.5l155 -76
c-10 -58 -31.333 -109.833 -64 -155.5s-74.667 -81.667 -126 -108s-110.333 -39.5 -177 -39.5z" />
    <glyph glyph-name="currency" unicode="&#xa4;" horiz-adv-x="1228" 
d="M190 142l-72 72l136 137c-30.667 39.333 -55 83.333 -73 132s-27 100.667 -27 156s9 107.5 27 156.5s42.333 92.833 73 131.5l-136 136l72 73l136 -137c39.333 32 83.5 56.833 132.5 74.5s100.833 26.5 155.5 26.5c55.333 0 107.666 -8.83301 156.999 -26.5
s93.333 -42.5 132 -74.5l136 137l71 -73l-136 -136c31.333 -38.667 55.833 -82.5 73.5 -131.5s26.5 -101.167 26.5 -156.5s-8.83301 -107.5 -26.5 -156.5s-42.167 -93.167 -73.5 -132.5l136 -136l-71 -72l-136 136c-38.667 -31.333 -82.667 -56 -132 -74
s-101.666 -27 -156.999 -27c-54.667 0 -106.5 9 -155.5 27s-93.167 43 -132.5 75zM614 337c56.667 0 107.834 13.333 153.501 40s82 62.834 109 108.501s40.5 96.834 40.5 153.501c0 57.333 -13.5 108.666 -40.5 153.999s-63.333 81.166 -109 107.499
s-96.834 39.5 -153.501 39.5s-107.834 -13.167 -153.501 -39.5s-82 -62.166 -109 -107.499s-40.5 -96.666 -40.5 -153.999c0 -56.667 13.5 -107.834 40.5 -153.501s63.333 -81.834 109 -108.501s96.834 -40 153.501 -40z" />
    <glyph glyph-name="yen" unicode="&#xa5;" horiz-adv-x="1678" 
d="M737 0v296h-402v147h402v212h-402v147h350l-524 848h245l432 -717l434 717h245l-524 -848h349v-147h-401v-212h401v-147h-401v-296h-204z" />
    <glyph glyph-name="brokenbar" unicode="&#xa6;" horiz-adv-x="785" 
d="M307 1056v664h171v-664h-171zM307 0v664h171v-664h-171z" />
    <glyph glyph-name="section" unicode="&#xa7;" horiz-adv-x="1467" 
d="M730 -550c-78.667 0 -148.996 11.168 -210.996 33.501s-115.833 51.666 -161.5 87.999s-82.834 76.166 -111.501 119.499s-48.667 86 -60 128l175 44c17.333 -47.333 43.833 -89.5 79.5 -126.5s78.167 -66.167 127.5 -87.5s103 -32 161 -32s108.833 11 152.5 33
s77.834 52.667 102.501 92s37 85 37 137c0 57.333 -16.833 104.833 -50.5 142.5s-79.834 71 -138.501 100s-125.334 58.5 -200.001 88.5c-45.333 20 -91.166 42.333 -137.499 67s-88.833 53.167 -127.5 85.5s-69.5 69.666 -92.5 111.999s-33.833 90.833 -32.5 145.5
c2.66699 66.667 24 127.5 64 182.5s94.667 96.167 164 123.5c-62.667 40.667 -109.834 88.334 -141.501 143.001s-47.5 117.334 -47.5 188.001c0 80 18.667 151.833 56 215.5s90.5 114.167 159.5 151.5s150.5 56 244.5 56c63.333 0 119.666 -8.16699 168.999 -24.5
s92.166 -38.666 128.499 -66.999s66.5 -60.166 90.5 -95.499s42 -72 54 -110l-176 -43c-14.667 47.333 -45.334 88 -92.001 122s-102.667 51 -168 51c-50 0 -94.333 -10.833 -133 -32.5s-68.834 -50.834 -90.501 -87.501s-32.5 -77.667 -32.5 -123
c0 -41.333 10.333 -77.333 31 -108s47.834 -57.334 81.501 -80.001s70.5 -42.834 110.5 -60.501l117 -50.5c48.667 -20.667 99 -44 151 -70s100.167 -56 144.5 -90s80 -73 107 -117s39.833 -94.667 38.5 -152c-1.33301 -66 -22.166 -126.333 -62.499 -181
s-95.5 -96.667 -165.5 -126c62.667 -43.333 110.167 -93.5 142.5 -150.5s48.5 -122.5 48.5 -196.5c0 -91.333 -22.5 -169.666 -67.5 -234.999s-105.667 -115.5 -182 -150.5s-161.5 -52.5 -255.5 -52.5zM910.004 311.001c28 10 54.501 24.668 79.501 44.001
s45.5 42.5 61.5 69.5s24 56.5 24 88.5c0 35.333 -10.833 67.833 -32.5 97.5s-57.5 59 -107.5 88s-118 60.167 -204 93.5c-22.667 8 -42.334 15.833 -59.001 23.5l-68 31.5c-26.667 -8 -52.667 -21.333 -78 -40s-46 -41.667 -62 -69s-24 -58.333 -24 -93
c0 -36.667 9.5 -68.334 28.5 -95.001s47.333 -50.834 85 -72.501s84.5 -44.167 140.5 -67.5c37.333 -15.333 67.5 -28.166 90.5 -38.499l62.5 -29z" />
    <glyph glyph-name="dieresis" unicode="&#xa8;" horiz-adv-x="694" 
d="M583 1287c-30.667 0 -56.834 10.833 -78.501 32.5s-32.5 47.834 -32.5 78.501s10.833 56.834 32.5 78.501s47.834 32.5 78.501 32.5s56.834 -10.833 78.501 -32.5s32.5 -47.834 32.5 -78.501s-10.833 -56.834 -32.5 -78.501s-47.834 -32.5 -78.501 -32.5zM111 1287
c-30.667 0 -56.834 10.833 -78.501 32.5s-32.5 47.834 -32.5 78.501s10.833 56.834 32.5 78.501s47.834 32.5 78.501 32.5s56.834 -10.833 78.501 -32.5s32.5 -47.834 32.5 -78.501s-10.833 -56.834 -32.5 -78.501s-47.834 -32.5 -78.501 -32.5z" />
    <glyph glyph-name="copyright" unicode="&#xa9;" horiz-adv-x="2076" 
d="M1037 -31c-118 0 -227.833 21.833 -329.5 65.5s-191 104.334 -268 182.001s-137 168.167 -180 271.5s-64.5 215 -64.5 335c0 118.667 21.667 229.667 65 333s103.5 194.333 180.5 273s166.5 140.167 268.5 184.5s211.333 66.5 328 66.5c117.333 0 227 -22 329 -66
s191.667 -105.333 269 -184s137.833 -169.834 181.5 -273.501s65.5 -215.167 65.5 -334.5c0 -118.667 -21.667 -229.667 -65 -333s-103.5 -194 -180.5 -272s-166.667 -138.833 -269 -182.5s-212.5 -65.5 -330.5 -65.5zM1037 103c99.333 0 191.833 18.3291 277.5 54.9961
s160.667 87.834 225 153.501s114.666 142 150.999 229s54.5 180.833 54.5 281.5s-18.167 194.834 -54.5 282.501s-87 164.5 -152 230.5s-140.333 117.667 -226 155s-177.5 56 -275.5 56s-189.5 -18.667 -274.5 -56s-159.833 -89.166 -224.5 -155.499
s-115.167 -143.333 -151.5 -231s-54.5 -181.5 -54.5 -281.5c0 -100.667 18 -194.667 54 -282s86 -163.666 150 -228.999s138.833 -116.333 224.5 -153s177.834 -55 276.501 -55zM1065 345.996c-91.333 0 -174.165 21.168 -248.498 63.501s-133.333 99.666 -177 171.999
s-65.5 153.166 -65.5 242.499s21.667 170.333 65 243s102.333 130.5 177 173.5s158.667 64.5 252 64.5c56.667 0 111.667 -8.16699 165 -24.5s99.333 -39.5 138 -69.5l-58 -107c-62 46.667 -136.333 70 -223 70c-66 0 -125.333 -15.333 -178 -46
s-94.334 -72.167 -125.001 -124.5s-46 -111.833 -46 -178.5c0 -66 15.167 -125.167 45.5 -177.5s71.833 -93.666 124.5 -123.999s113 -45.5 181 -45.5c41.333 0 81.666 6 120.999 18s72.333 28.667 99 50l59 -107c-97.333 -62 -199.333 -93 -306 -93z" />
    <glyph glyph-name="ordfeminine" unicode="&#xaa;" horiz-adv-x="1064" 
d="M476 1008c-58.667 0 -111.832 14.499 -159.499 43.499s-85.334 68.833 -113.001 119.5s-41.5 108.334 -41.5 173.001c0 64 13.667 121.333 41 172s65 90.667 113 120s102.667 44 164 44c52 0 99.667 -12 143 -36s77.333 -57 102 -99v115h120v-632h-120v119
c-24.667 -42 -58.667 -75.667 -102 -101s-92.333 -38 -147 -38zM508.002 1110c42.667 0 80.499 10.166 113.499 30.499s59 48.166 78 83.499s28.5 75.333 28.5 120c0 68.667 -20.833 124.834 -62.5 168.501s-94.167 65.5 -157.5 65.5c-42 0 -79.667 -10 -113 -30
s-59.666 -47.5 -78.999 -82.5s-29 -75.5 -29 -121.5c0 -44.667 9.5 -84.667 28.5 -120s45.167 -63.166 78.5 -83.499s71.333 -30.5 114 -30.5z" />
    <glyph glyph-name="guillemotleft" unicode="&#xab;" horiz-adv-x="1103" 
d="M505 57l-390 500l390 500l111 -87l-323 -413l323 -414zM859 57l-390 500l390 500l111 -87l-323 -413l323 -414z" />
    <glyph glyph-name="logicalnot" unicode="&#xac;" horiz-adv-x="1405" 
d="M1047 316v429h-857v168h1025v-597h-168z" />
    <glyph glyph-name="uni00AD" unicode="&#xad;" horiz-adv-x="1054" 
d="M205 496v167h644v-167h-644z" />
    <glyph glyph-name="registered" unicode="&#xae;" horiz-adv-x="1353" 
d="M676 775c-83.333 0 -159.667 20.668 -229 62.001s-124.5 96.5 -165.5 165.5s-61.5 145.167 -61.5 228.5s20.5 159.666 61.5 228.999s96 124.833 165 166.5s145.5 62.5 229.5 62.5s160.5 -20.667 229.5 -62s124 -96.5 165 -165.5s61.5 -145.833 61.5 -230.5
s-20.667 -161.5 -62 -230.5s-96.5 -123.833 -165.5 -164.5s-145.167 -61 -228.5 -61zM675.999 856.001c68.667 0 131.333 16.667 188 50s102.167 78.5 136.5 135.5s51.5 120.167 51.5 189.5s-17 132.5 -51 189.5s-79.5 102.5 -136.5 136.5s-119.833 51 -188.5 51
c-69.333 0 -132.333 -17.167 -189 -51.5s-101.834 -80 -135.501 -137s-50.5 -119.833 -50.5 -188.5s17 -131.5 51 -188.5s79.333 -102.333 136 -136s119.334 -50.5 188.001 -50.5zM539.998 969.001v526.001h124c50 0 90.5 -12.833 121.5 -38.5s46.5 -62.834 46.5 -111.501
c0 -42 -12.333 -76.5 -37 -103.5s-57 -43.167 -97 -48.5l176 -224h-86l-166 219h-14v-219h-68zM607.998 1243l37 0.000976562c33.333 0 61 8.66699 83 26s33 42.333 33 75c0 33.333 -11.333 57.666 -34 72.999s-50 23 -82 23h-37v-197z" />
    <glyph glyph-name="macron" unicode="&#xaf;" horiz-adv-x="816" 
d="M0 1321v135h816v-135h-816z" />
    <glyph glyph-name="degree" unicode="&#xb0;" horiz-adv-x="969" 
d="M484 1338c-63.333 0 -115.167 19.501 -155.5 58.501s-60.5 87.833 -60.5 146.5c0 61.333 21 111.166 63 149.499s93 57.5 153 57.5c61.333 0 112.833 -19 154.5 -57s62.5 -87.667 62.5 -149c0 -60.667 -20.5 -110.167 -61.5 -148.5s-92.833 -57.5 -155.5 -57.5z
M484.999 1417c36 0 65.501 11.833 88.501 35.5s34.5 53.834 34.5 90.501c0 38.667 -12.167 69.667 -36.5 93s-53.5 35 -87.5 35c-34.667 0 -63.834 -12 -87.501 -36s-35.5 -54.667 -35.5 -92c0 -36.667 11.5 -66.834 34.5 -90.501s52.833 -35.5 89.5 -35.5z" />
    <glyph glyph-name="plusminus" unicode="&#xb1;" horiz-adv-x="1465" 
d="M649 362v406h-429v167h429v406h167v-406h429v-167h-429v-406h-167zM220 0v168h1025v-168h-1025z" />
    <glyph glyph-name="uni00B2" unicode="&#xb2;" horiz-adv-x="660" 
d="M78 1026l-0.000976562 54.998c84.667 60.667 153.167 114.334 205.5 161.001s90.5 88.834 114.5 126.501s36 72.834 36 105.501c0 36 -11.5 65.333 -34.5 88s-51.5 34 -85.5 34c-36.667 0 -68.167 -13.5 -94.5 -40.5s-43.833 -62.5 -52.5 -106.5l-85 37
c12.667 59.333 39.834 106.666 81.501 141.999s91.834 53 150.501 53c64.667 0 118.667 -19.833 162 -59.5s65 -91.167 65 -154.5c0 -35.333 -8.83301 -70 -26.5 -104s-47.334 -71 -89.001 -111s-98.5 -86.333 -170.5 -139h298v-87h-475z" />
    <glyph glyph-name="uni00B3" unicode="&#xb3;" horiz-adv-x="627" 
d="M300 1026c-62.667 0 -112.999 14.832 -150.999 44.499s-62.333 67.834 -73 114.501l91 40c1.33301 -32.667 13.5 -59.667 36.5 -81s53.5 -32 91.5 -32c37.333 0 65.833 9.66699 85.5 29s29.5 43.666 29.5 72.999c0 34.667 -12.167 63.334 -36.5 86.001
s-53.166 34 -86.499 34c-9.33301 0 -17.666 -1 -24.999 -3v66h26c30 0 56.167 10.5 78.5 31.5s33.5 45.833 33.5 74.5c0 27.333 -9.83301 50.333 -29.5 69s-43.5 28 -71.5 28c-28.667 0 -53.834 -9.66699 -75.501 -29s-33.834 -43.666 -36.501 -72.999l-78 34
c9.33301 44 30.833 79.667 64.5 107s77.5 41 131.5 41c56.667 0 103 -15 139 -45s54 -69 54 -117c0 -30 -7.83301 -58.333 -23.5 -85s-36.834 -47.667 -63.501 -63c32.667 -12.667 58.167 -33.5 76.5 -62.5s27.5 -61.833 27.5 -98.5
c0 -56.667 -19.833 -101.334 -59.5 -134.001s-91.5 -49 -155.5 -49z" />
    <glyph glyph-name="acute" unicode="&#xb4;" horiz-adv-x="415" 
d="M91 1143l-91 70l216 398l142 -104z" />
    <glyph glyph-name="uni00B5" unicode="&#xb5;" horiz-adv-x="1520" 
d="M275 -320c0 74 2.16699 140.668 6.5 200.001s9.5 116.666 15.5 171.999s11.167 113.5 15.5 174.5s6.5 129.833 6.5 206.5v592h194v-604c0 -96.667 22.833 -170.667 68.5 -222s111.167 -77 196.5 -77c50.667 0 96.5 11.5 137.5 34.5s73.833 54 98.5 93s37 81.833 37 128.5
v647h194v-1025h-194v132c-28.667 -48.667 -72 -88.167 -130 -118.5s-119.333 -45.5 -184 -45.5c-52 0 -97 8.5 -135 25.5s-68 42.5 -90 76.5v-390h-237z" />
    <glyph glyph-name="paragraph" unicode="&#xb6;" horiz-adv-x="1522" 
d="M882 0v679h-193c-107.333 0 -199.5 22.333 -276.5 67s-136 104.5 -177 179.5s-61.5 157.833 -61.5 248.5c0 92 20.5 173.833 61.5 245.5s100 128 177 169s169.167 61.5 276.5 61.5h526v-1650h-125v1528h-83v-1528h-125z" />
    <glyph glyph-name="periodcentered" unicode="&#xb7;" horiz-adv-x="779" 
d="M390 407c-24.667 0 -47.001 6 -67.001 18s-36 27.833 -48 47.5s-18 41.834 -18 66.501s6 46.834 18 66.501s28 35.334 48 47.001s42 17.5 66 17.5c24.667 0 46.834 -5.83301 66.501 -17.5s35.334 -27.334 47.001 -47.001s17.5 -41.834 17.5 -66.501
s-5.83301 -46.834 -17.5 -66.501s-27.334 -35.5 -47.001 -47.5s-41.5 -18 -65.5 -18z" />
    <glyph glyph-name="cedilla" unicode="&#xb8;" horiz-adv-x="519" 
d="M268 -539c-55.333 0 -105.832 12.6689 -151.499 38.002s-84.5 61.333 -116.5 108l84 59c42.667 -66.667 103 -100 181 -100c42 0 75.833 10.5 101.5 31.5s38.5 48.5 38.5 82.5c0 32.667 -12.5 59 -37.5 79s-57.5 30 -97.5 30c-21.333 0 -43.833 -2.83301 -67.5 -8.5
s-42.834 -12.834 -57.501 -21.501l-11 8l82 254h95l-52 -161c22 2.66699 41.5 3.16699 58.5 1.5s32.833 -5.16699 47.5 -10.5c46 -6.66699 83.167 -25.667 111.5 -57s42.5 -70.333 42.5 -117c0 -62.667 -23.5 -114.334 -70.5 -155.001s-107.167 -61 -180.5 -61z" />
    <glyph glyph-name="uni00B9" unicode="&#xb9;" horiz-adv-x="421" 
d="M175 1026v529h-80v95h175v-624h-95z" />
    <glyph glyph-name="ordmasculine" unicode="&#xba;" horiz-adv-x="992" 
d="M496 1006c-66.667 0 -126.834 14.333 -180.501 43s-96 68.334 -127 119.001s-46.5 109 -46.5 175c0 66.667 15.5 125.167 46.5 175.5s73.333 89.833 127 118.5s113.834 43 180.501 43s126.5 -14.333 179.5 -43s95.167 -68.167 126.5 -118.5s47 -108.833 47 -175.5
c0 -66 -15.667 -124.333 -47 -175s-73.5 -90.334 -126.5 -119.001s-112.833 -43 -179.5 -43zM495 1109c44 0 83.333 10 118 30s62 47.667 82 83s30 75.666 30 120.999s-10 85.666 -30 120.999s-47.167 63 -81.5 83s-73.5 30 -117.5 30s-83.333 -10 -118 -30
s-62 -47.667 -82 -83s-30 -75.666 -30 -120.999s10 -85.666 30 -120.999s47.333 -63 82 -83s73.667 -30 117 -30z" />
    <glyph glyph-name="guillemotright" unicode="&#xbb;" horiz-adv-x="1092" 
d="M242 57l-111 86l323 414l-323 413l111 87l390 -500zM587 57l-110 86l323 414l-323 413l110 87l390 -500z" />
    <glyph glyph-name="onequarter" unicode="&#xbc;" horiz-adv-x="2246" 
d="M311 600v893h-98v157h256v-1050h-158zM305 0l1084 1650h146l-1083 -1650h-147zM1685 0v196h-586v56l578 798h159v-713h137v-141h-137v-196h-151zM1314 337h371v517z" />
    <glyph glyph-name="onehalf" unicode="&#xbd;" horiz-adv-x="2420" 
d="M311 600v893h-98v157h256v-1050h-158zM305 0l1084 1650h146l-1083 -1650h-147zM1242 0l-0.00195312 80.002c128.667 86 236.334 161.5 323.001 226.5s156 122.333 208 172s89.333 94.167 112 133.5s34 76.666 34 111.999c0 38 -11 73 -33 105s-51.833 57.667 -89.5 77
s-80.5 29 -128.5 29c-45.333 0 -87 -9.5 -125 -28.5s-70 -46.167 -96 -81.5s-43.667 -77 -53 -125l-139 59c12 64 37.5 120.167 76.5 168.5s88.333 85.833 148 112.5s125.834 40 198.501 40c78.667 0 149.334 -15.333 212.001 -46s112.167 -72.5 148.5 -125.5
s54.5 -113.5 54.5 -181.5c0 -42.667 -9 -84.834 -27 -126.501s-47.833 -85 -89.5 -130s-97.334 -94 -167.001 -147s-156.5 -112.5 -260.5 -178.5h566v-145h-873z" />
    <glyph glyph-name="threequarters" unicode="&#xbe;" horiz-adv-x="2714" 
d="M652 579c-96.667 0 -180.166 24.1699 -250.499 72.5029s-113.166 113.833 -128.499 196.5l150 66c2.66699 -56.667 25 -103 67 -139s96 -54 162 -54c63.333 0 113.666 16.5 150.999 49.5s56 75.833 56 128.5c0 38.667 -9.5 73 -28.5 103s-43.833 53.667 -74.5 71
s-63.667 26 -99 26c-18.667 0 -34.667 -2.33301 -48 -7v110h44c36 0 68.5 8.33301 97.5 25s52.167 38.667 69.5 66s26 56.666 26 87.999s-8.5 59.666 -25.5 84.999s-39.5 45.333 -67.5 60s-59.333 22 -94 22c-34 0 -65.667 -7.5 -95 -22.5s-53.333 -35.5 -72 -61.5
s-29.334 -55.667 -32.001 -89l-130 55c8.66699 50 28.667 93.667 60 131s70.666 66.5 117.999 87.5s99 31.5 155 31.5c65.333 0 122.833 -13.5 172.5 -40.5s88.5 -62.833 116.5 -107.5s42 -93.334 42 -146.001c0 -48.667 -12.667 -93 -38 -133s-60.666 -71.667 -105.999 -95
c51.333 -22 92.833 -55.5 124.5 -100.5s47.5 -98.167 47.5 -159.5c0 -58.667 -15 -112.167 -45 -160.5s-72.667 -86.833 -128 -115.5s-121 -43 -197 -43zM773.001 0.00292969l1084 1650h146l-1083 -1650h-147zM2153 0.00292969v196h-586v56l578 798h159v-713h137v-141h-137
v-196h-151zM1782 337.003h371v517z" />
    <glyph glyph-name="questiondown" unicode="&#xbf;" horiz-adv-x="1298" 
d="M671 -550c-101.333 0 -191.5 22.1689 -270.5 66.502s-140.833 104 -185.5 179s-67 158.167 -67 249.5c0 86 19.5 164.833 58.5 236.5s93 130.167 162 175.5s148.167 71.333 237.5 78v247h179v-419c-13.333 2.66699 -27.333 4.83398 -42 6.50098s-31 2.5 -49 2.5
c-71.333 0 -134.166 -12.833 -188.499 -38.5s-96.833 -62.834 -127.5 -111.501s-46 -108 -46 -178c0 -66.667 14.167 -123.834 42.5 -171.501s68 -84.167 119 -109.5s110.167 -38 177.5 -38c99.333 0 179.666 28 240.999 84s95 132.333 101 229l165 -29
c-8 -97.333 -35.667 -180.333 -83 -249s-107.833 -120.834 -181.5 -156.501s-154.5 -53.5 -242.5 -53.5zM696 899.002c-24 0 -46 6 -66 18s-35.833 27.833 -47.5 47.5s-17.5 41.5 -17.5 65.5c0 24.667 5.83301 46.834 17.5 66.501s27.5 35.5 47.5 47.5s42 18 66 18
c24.667 0 46.834 -6 66.501 -18s35.5 -27.833 47.5 -47.5s18 -41.834 18 -66.501c0 -24 -6 -45.833 -18 -65.5s-27.833 -35.5 -47.5 -47.5s-41.834 -18 -66.501 -18z" />
    <glyph glyph-name="Agrave" unicode="&#xc0;" horiz-adv-x="1659" 
d="M82 0l653 1650h189l653 -1650h-219l-183 481h-691l-184 -481h-218zM553 660h553l-277 719zM907 1768l-266 364l142 104l216 -398z" />
    <glyph glyph-name="Aacute" unicode="&#xc1;" horiz-adv-x="1659" 
d="M82 0l653 1650h189l653 -1650h-219l-183 481h-691l-184 -481h-218zM553 660h553l-277 719zM806 1768l-91 70l216 398l142 -104z" />
    <glyph glyph-name="Acircumflex" unicode="&#xc2;" horiz-adv-x="1659" 
d="M82 0l653 1650h189l653 -1650h-219l-183 481h-691l-184 -481h-218zM553 660h553l-277 719zM523 1917l-78 106l384 282l385 -282l-79 -106l-306 224z" />
    <glyph glyph-name="Atilde" unicode="&#xc3;" horiz-adv-x="1659" 
d="M82 0l653 1650h189l653 -1650h-219l-183 481h-691l-184 -481h-218zM553 660h553l-277 719zM1031 1864c-40.667 0 -77.6631 8.16797 -110.996 24.501s-65.333 35.166 -96 56.499s-61.834 40.166 -93.501 56.499s-66.5 24.5 -104.5 24.5
c-50.667 0 -92.834 -15.667 -126.501 -47s-59.834 -66.666 -78.501 -105.999l-102 90c32 59.333 74.333 109.5 127 150.5s111.667 61.5 177 61.5c44 0 84.167 -8.16699 120.5 -24.5s70.666 -35.166 102.999 -56.5c32.333 -21.333 64.166 -40.166 95.499 -56.5
c31.333 -16.333 63.333 -24.5 96 -24.5c41.333 0 79.833 14.333 115.5 43s63.834 65.334 84.501 110l101 -90c-22.667 -42.667 -51 -80 -85 -112s-70.333 -56.667 -109 -74s-76.667 -26 -114 -26z" />
    <glyph glyph-name="Adieresis" unicode="&#xc4;" horiz-adv-x="1659" 
d="M82 0l653 1650h189l653 -1650h-219l-183 481h-691l-184 -481h-218zM553 660h553l-277 719zM1065 1912c-30.667 0 -56.834 10.834 -78.501 32.501s-32.5 47.834 -32.5 78.501s10.833 56.834 32.5 78.5c21.667 21.667 47.834 32.5 78.501 32.5s56.834 -10.833 78.501 -32.5
s32.5 -47.834 32.5 -78.501s-10.833 -56.834 -32.5 -78.501s-47.834 -32.5 -78.501 -32.5zM593 1912c-30.667 0 -56.834 10.833 -78.501 32.5s-32.5 47.834 -32.5 78.501s10.833 56.834 32.5 78.5c21.667 21.667 47.834 32.5 78.501 32.5s56.834 -10.833 78.501 -32.5
s32.5 -47.834 32.5 -78.5c0 -30.667 -10.833 -56.834 -32.5 -78.501s-47.834 -32.5 -78.501 -32.5z" />
    <glyph glyph-name="Aring" unicode="&#xc5;" horiz-adv-x="1659" 
d="M82 0l653 1650h189l653 -1650h-219l-183 481h-691l-184 -481h-218zM553 660h553l-277 719zM829 1866c-46.667 0 -89.167 9.5 -127.5 28.5s-68.833 45.5 -91.5 79.5s-34 72.667 -34 116v0c0 43.333 11.333 81.833 34 115.5s53.167 60 91.5 79s80.833 28.5 127.5 28.5
c47.333 0 90 -9.5 128 -28.5s68.333 -45.333 91 -79s34 -72.167 34 -115.5s-11.333 -82 -34 -116s-53 -60.5 -91 -79.5s-80.667 -28.5 -128 -28.5zM829 1968c37.333 0 68.833 11.668 94.5 35.001s38.5 52.333 38.5 86.999c0 34.667 -12.833 63.5 -38.5 86.5
s-57.167 34.5 -94.5 34.5c-36.667 0 -68 -11.5 -94 -34.5s-39 -51.833 -39 -86.5v0c0 -34.667 13 -63.667 39 -87s57.333 -35 94 -35z" />
    <glyph glyph-name="AE" unicode="&#xc6;" horiz-adv-x="2297" 
d="M82 0l653 1650h846l70 -179h-653l215 -555h627l68 -178h-622l219 -559h642l68 -179h-857l-183 481h-691l-184 -481h-218zM553 660h553l-277 718z" />
    <glyph glyph-name="Ccedilla" unicode="&#xc7;" horiz-adv-x="1585" 
d="M983 -32c-124 0 -239.499 21.833 -346.499 65.5s-200.667 104.334 -281 182.001s-142.833 168.5 -187.5 272.5s-67 216 -67 336s22.5 232 67.5 336s107.5 194.833 187.5 272.5s173.333 138.334 280 182.001s222 65.5 346 65.5c102.667 0 199.5 -14.833 290.5 -44.5
s170.5 -70.167 238.5 -121.5l-92 -171c-54.667 44 -118.667 77.833 -192 101.5s-150.666 35.5 -231.999 35.5c-98 0 -188 -16.667 -270 -50s-153.167 -79.833 -213.5 -139.5s-107 -129.334 -140 -209.001s-49.5 -165.5 -49.5 -257.5s16.5 -177.833 49.5 -257.5
s79.667 -149.334 140 -209.001s131.5 -106.167 213.5 -139.5s172 -50 270 -50c81.333 0 158.666 11.833 231.999 35.5s137.333 57.5 192 101.5l92 -171c-66.667 -50 -145.334 -90.167 -236.001 -120.5s-188 -45.5 -292 -45.5zM940.001 -592
c-55.333 0 -105.832 12.6689 -151.499 38.002s-84.5 61.333 -116.5 108l84 59c42.667 -66.667 103 -100 181 -100c42 0 75.833 10.5 101.5 31.5s38.5 48.5 38.5 82.5c0 32.667 -12.5 59 -37.5 79s-57.5 30 -97.5 30c-21.333 0 -43.833 -2.83301 -67.5 -8.5
s-42.834 -12.834 -57.501 -21.501l-11 8l82 254h95l-52 -161c22 2.66699 41.5 3.16699 58.5 1.5s32.833 -5.16699 47.5 -10.5c46 -6.66699 83.167 -25.667 111.5 -57s42.5 -70.333 42.5 -117c0 -62.667 -23.5 -114.334 -70.5 -155.001s-107.167 -61 -180.5 -61z" />
    <glyph glyph-name="Egrave" unicode="&#xc8;" horiz-adv-x="1287" 
d="M256 0v1650h857v-179h-654v-555h630v-178h-630v-559h654v-179h-857zM770 1768l-266 364l142 104l216 -398z" />
    <glyph glyph-name="Eacute" unicode="&#xc9;" horiz-adv-x="1287" 
d="M256 0v1650h857v-179h-654v-555h630v-178h-630v-559h654v-179h-857zM669 1768l-91 70l216 398l142 -104z" />
    <glyph glyph-name="Ecircumflex" unicode="&#xca;" horiz-adv-x="1287" 
d="M256 0v1650h857v-179h-654v-555h630v-178h-630v-559h654v-179h-857zM386 1917l-78 106l384 282l385 -282l-79 -106l-306 224z" />
    <glyph glyph-name="Edieresis" unicode="&#xcb;" horiz-adv-x="1287" 
d="M256 0v1650h857v-179h-654v-555h630v-178h-630v-559h654v-179h-857zM928 1912c-30.667 0 -56.834 10.834 -78.501 32.501s-32.5 47.834 -32.5 78.501s10.833 56.834 32.5 78.5c21.667 21.667 47.834 32.5 78.501 32.5s56.834 -10.833 78.501 -32.5
s32.5 -47.834 32.5 -78.501s-10.833 -56.834 -32.5 -78.501s-47.834 -32.5 -78.501 -32.5zM456 1912c-30.667 0 -56.834 10.833 -78.501 32.5s-32.5 47.834 -32.5 78.501s10.833 56.834 32.5 78.5c21.667 21.667 47.834 32.5 78.501 32.5s56.834 -10.833 78.501 -32.5
s32.5 -47.834 32.5 -78.5c0 -30.667 -10.833 -56.834 -32.5 -78.501s-47.834 -32.5 -78.501 -32.5z" />
    <glyph glyph-name="Igrave" unicode="&#xcc;" horiz-adv-x="715" 
d="M256 0v1650h203v-1650h-203zM435 1768l-266 364l142 104l216 -398z" />
    <glyph glyph-name="Iacute" unicode="&#xcd;" horiz-adv-x="715" 
d="M256 0v1650h203v-1650h-203zM334 1768l-91 70l216 398l142 -104z" />
    <glyph glyph-name="Icircumflex" unicode="&#xce;" horiz-adv-x="715" 
d="M256 0v1650h203v-1650h-203zM51 1917l-78 106l384 282l385 -282l-79 -106l-306 224z" />
    <glyph glyph-name="Idieresis" unicode="&#xcf;" horiz-adv-x="715" 
d="M256 0v1650h203v-1650h-203zM593 1912c-30.667 0 -56.834 10.834 -78.501 32.501s-32.5 47.834 -32.5 78.501s10.833 56.834 32.5 78.5c21.667 21.667 47.834 32.5 78.501 32.5s56.834 -10.833 78.501 -32.5s32.5 -47.834 32.5 -78.501s-10.833 -56.834 -32.5 -78.501
s-47.834 -32.5 -78.501 -32.5zM121 1912c-30.667 0 -56.834 10.833 -78.501 32.5s-32.5 47.834 -32.5 78.501s10.833 56.834 32.5 78.5c21.667 21.667 47.834 32.5 78.501 32.5s56.834 -10.833 78.501 -32.5s32.5 -47.834 32.5 -78.5
c0 -30.667 -10.833 -56.834 -32.5 -78.501s-47.834 -32.5 -78.501 -32.5z" />
    <glyph glyph-name="Eth" unicode="&#xd0;" horiz-adv-x="1668" 
d="M293 0v742.004h-164v166h164v742h396c113.333 0 220 -20.333 320 -61s188.5 -97.834 265.5 -171.501s137.333 -160.834 181 -261.501s65.5 -211 65.5 -331c0 -120.667 -21.833 -231.334 -65.5 -332.001s-103.834 -187.834 -180.501 -261.501
s-165.167 -130.667 -265.5 -171s-207.166 -60.5 -320.499 -60.5h-396zM496 182.004h172.999c88.667 0 171.5 16 248.5 48s144.5 77 202.5 135s103.333 126 136 204s49 163.333 49 256c0 92 -16.167 177 -48.5 255s-77.666 146.167 -135.999 204.5s-126 103.5 -203 135.5
s-159.833 48 -248.5 48h-173v-560h391v-166h-391v-560z" />
    <glyph glyph-name="Ntilde" unicode="&#xd1;" horiz-adv-x="1752" 
d="M256 0v1650h203l834 -1307v1307h203v-1650h-203l-834 1306v-1306h-203zM1078 1864c-40.667 0 -77.6631 8.16797 -110.996 24.501s-65.333 35.166 -96 56.499s-61.834 40.166 -93.501 56.499s-66.5 24.5 -104.5 24.5c-50.667 0 -92.834 -15.667 -126.501 -47
s-59.834 -66.666 -78.501 -105.999l-102 90c32 59.333 74.333 109.5 127 150.5s111.667 61.5 177 61.5c44 0 84.167 -8.16699 120.5 -24.5s70.666 -35.166 102.999 -56.5c32.333 -21.333 64.166 -40.166 95.499 -56.5c31.333 -16.333 63.333 -24.5 96 -24.5
c41.333 0 79.833 14.333 115.5 43s63.834 65.334 84.501 110l101 -90c-22.667 -42.667 -51 -80 -85 -112s-70.333 -56.667 -109 -74s-76.667 -26 -114 -26z" />
    <glyph glyph-name="Ograve" unicode="&#xd2;" horiz-adv-x="1962" 
d="M981 -32c-115.333 0 -223.333 22 -324 66s-189 105.167 -265 183.5s-135.5 169.333 -178.5 273s-64.5 214.834 -64.5 333.501c0 119.333 21.5 230.666 64.5 333.999s102.5 194.166 178.5 272.499s164.333 139.5 265 183.5s208.667 66 324 66s223.333 -22 324 -66
s189 -105.167 265 -183.5s135.5 -169.166 178.5 -272.499s64.5 -214.666 64.5 -333.999c0 -118.667 -21.5 -229.834 -64.5 -333.501s-102.5 -194.667 -178.5 -273s-164.333 -139.5 -265 -183.5s-208.667 -66 -324 -66zM981 164c86.667 0 167.167 16.667 241.5 50
s139.333 79.833 195 139.5s99 129.667 130 210s46.5 167.166 46.5 260.499s-15.5 180.166 -46.5 260.499s-74.333 150.333 -130 210s-120.667 106.167 -195 139.5s-154.833 50 -241.5 50s-167.167 -16.667 -241.5 -50s-139.333 -79.833 -195 -139.5s-99 -129.667 -130 -210
s-46.5 -167.166 -46.5 -260.499s15.5 -180.166 46.5 -260.499s74.333 -150.333 130 -210s120.667 -106.167 195 -139.5s154.833 -50 241.5 -50zM1059 1780l-266 364l142 104l216 -398z" />
    <glyph glyph-name="Oacute" unicode="&#xd3;" horiz-adv-x="1962" 
d="M981 -32c-115.333 0 -223.333 22 -324 66s-189 105.167 -265 183.5s-135.5 169.333 -178.5 273s-64.5 214.834 -64.5 333.501c0 119.333 21.5 230.666 64.5 333.999s102.5 194.166 178.5 272.499s164.333 139.5 265 183.5s208.667 66 324 66s223.333 -22 324 -66
s189 -105.167 265 -183.5s135.5 -169.166 178.5 -272.499s64.5 -214.666 64.5 -333.999c0 -118.667 -21.5 -229.834 -64.5 -333.501s-102.5 -194.667 -178.5 -273s-164.333 -139.5 -265 -183.5s-208.667 -66 -324 -66zM981 164c86.667 0 167.167 16.667 241.5 50
s139.333 79.833 195 139.5s99 129.667 130 210s46.5 167.166 46.5 260.499s-15.5 180.166 -46.5 260.499s-74.333 150.333 -130 210s-120.667 106.167 -195 139.5s-154.833 50 -241.5 50s-167.167 -16.667 -241.5 -50s-139.333 -79.833 -195 -139.5s-99 -129.667 -130 -210
s-46.5 -167.166 -46.5 -260.499s15.5 -180.166 46.5 -260.499s74.333 -150.333 130 -210s120.667 -106.167 195 -139.5s154.833 -50 241.5 -50zM958 1780l-91 70l216 398l142 -104z" />
    <glyph glyph-name="Ocircumflex" unicode="&#xd4;" horiz-adv-x="1962" 
d="M981 -32c-115.333 0 -223.333 22 -324 66s-189 105.167 -265 183.5s-135.5 169.333 -178.5 273s-64.5 214.834 -64.5 333.501c0 119.333 21.5 230.666 64.5 333.999s102.5 194.166 178.5 272.499s164.333 139.5 265 183.5s208.667 66 324 66s223.333 -22 324 -66
s189 -105.167 265 -183.5s135.5 -169.166 178.5 -272.499s64.5 -214.666 64.5 -333.999c0 -118.667 -21.5 -229.834 -64.5 -333.501s-102.5 -194.667 -178.5 -273s-164.333 -139.5 -265 -183.5s-208.667 -66 -324 -66zM981 164c86.667 0 167.167 16.667 241.5 50
s139.333 79.833 195 139.5s99 129.667 130 210s46.5 167.166 46.5 260.499s-15.5 180.166 -46.5 260.499s-74.333 150.333 -130 210s-120.667 106.167 -195 139.5s-154.833 50 -241.5 50s-167.167 -16.667 -241.5 -50s-139.333 -79.833 -195 -139.5s-99 -129.667 -130 -210
s-46.5 -167.166 -46.5 -260.499s15.5 -180.166 46.5 -260.499s74.333 -150.333 130 -210s120.667 -106.167 195 -139.5s154.833 -50 241.5 -50zM675 1929l-78 106l384 282l385 -282l-79 -106l-306 224z" />
    <glyph glyph-name="Otilde" unicode="&#xd5;" horiz-adv-x="1962" 
d="M981 -32c-115.333 0 -223.333 22 -324 66s-189 105.167 -265 183.5s-135.5 169.333 -178.5 273s-64.5 214.834 -64.5 333.501c0 119.333 21.5 230.666 64.5 333.999s102.5 194.166 178.5 272.499s164.333 139.5 265 183.5s208.667 66 324 66s223.333 -22 324 -66
s189 -105.167 265 -183.5s135.5 -169.166 178.5 -272.499s64.5 -214.666 64.5 -333.999c0 -118.667 -21.5 -229.834 -64.5 -333.501s-102.5 -194.667 -178.5 -273s-164.333 -139.5 -265 -183.5s-208.667 -66 -324 -66zM981 164c86.667 0 167.167 16.667 241.5 50
s139.333 79.833 195 139.5s99 129.667 130 210s46.5 167.166 46.5 260.499s-15.5 180.166 -46.5 260.499s-74.333 150.333 -130 210s-120.667 106.167 -195 139.5s-154.833 50 -241.5 50s-167.167 -16.667 -241.5 -50s-139.333 -79.833 -195 -139.5s-99 -129.667 -130 -210
s-46.5 -167.166 -46.5 -260.499s15.5 -180.166 46.5 -260.499s74.333 -150.333 130 -210s120.667 -106.167 195 -139.5s154.833 -50 241.5 -50zM1183 1876c-40.667 0 -77.6631 8.16797 -110.996 24.501s-65.333 35.166 -96 56.499s-61.834 40.166 -93.501 56.499
s-66.5 24.5 -104.5 24.5c-50.667 0 -92.834 -15.667 -126.501 -47s-59.834 -66.666 -78.501 -105.999l-102 90c32 59.333 74.333 109.5 127 150.5s111.667 61.5 177 61.5c44 0 84.167 -8.16699 120.5 -24.5s70.666 -35.166 102.999 -56.5
c32.333 -21.333 64.166 -40.166 95.499 -56.5c31.333 -16.333 63.333 -24.5 96 -24.5c41.333 0 79.833 14.333 115.5 43s63.834 65.334 84.501 110l101 -90c-22.667 -42.667 -51 -80 -85 -112s-70.333 -56.667 -109 -74s-76.667 -26 -114 -26z" />
    <glyph glyph-name="Odieresis" unicode="&#xd6;" horiz-adv-x="1962" 
d="M981 -32c-115.333 0 -223.333 22 -324 66s-189 105.167 -265 183.5s-135.5 169.333 -178.5 273s-64.5 214.834 -64.5 333.501c0 119.333 21.5 230.666 64.5 333.999s102.5 194.166 178.5 272.499s164.333 139.5 265 183.5s208.667 66 324 66s223.333 -22 324 -66
s189 -105.167 265 -183.5s135.5 -169.166 178.5 -272.499s64.5 -214.666 64.5 -333.999c0 -118.667 -21.5 -229.834 -64.5 -333.501s-102.5 -194.667 -178.5 -273s-164.333 -139.5 -265 -183.5s-208.667 -66 -324 -66zM981 164c86.667 0 167.167 16.667 241.5 50
s139.333 79.833 195 139.5s99 129.667 130 210s46.5 167.166 46.5 260.499s-15.5 180.166 -46.5 260.499s-74.333 150.333 -130 210s-120.667 106.167 -195 139.5s-154.833 50 -241.5 50s-167.167 -16.667 -241.5 -50s-139.333 -79.833 -195 -139.5s-99 -129.667 -130 -210
s-46.5 -167.166 -46.5 -260.499s15.5 -180.166 46.5 -260.499s74.333 -150.333 130 -210s120.667 -106.167 195 -139.5s154.833 -50 241.5 -50zM1217 1924c-30.667 0 -56.834 10.834 -78.501 32.501s-32.5 47.834 -32.5 78.501s10.833 56.834 32.5 78.5
c21.667 21.667 47.834 32.5 78.501 32.5s56.834 -10.833 78.501 -32.5s32.5 -47.834 32.5 -78.501s-10.833 -56.834 -32.5 -78.501s-47.834 -32.5 -78.501 -32.5zM745 1924c-30.667 0 -56.834 10.833 -78.501 32.5s-32.5 47.834 -32.5 78.501s10.833 56.834 32.5 78.5
c21.667 21.667 47.834 32.5 78.501 32.5s56.834 -10.833 78.501 -32.5s32.5 -47.834 32.5 -78.5c0 -30.667 -10.833 -56.834 -32.5 -78.501s-47.834 -32.5 -78.501 -32.5z" />
    <glyph glyph-name="multiply" unicode="&#xd7;" horiz-adv-x="1312" 
d="M301 357l-117 117l356 355l-356 356l118 115l354 -354l355 354l116 -115l-355 -356l355 -355l-117 -117l-354 355z" />
    <glyph glyph-name="Oslash" unicode="&#xd8;" horiz-adv-x="1962" 
d="M989 -32c-115.333 0 -223.333 22 -324 66s-189 105.167 -265 183.5s-135.5 169.333 -178.5 273s-64.5 214.834 -64.5 333.501c0 119.333 21.5 230.666 64.5 333.999s102.5 194.166 178.5 272.499s164.333 139.5 265 183.5s208.667 66 324 66s223.333 -22 324 -66
s189 -105.167 265 -183.5s135.5 -169.166 178.5 -272.499s64.5 -214.666 64.5 -333.999c0 -118.667 -21.5 -229.834 -64.5 -333.501s-102.5 -194.667 -178.5 -273s-164.333 -139.5 -265 -183.5s-208.667 -66 -324 -66zM989 164c86.667 0 167.167 16.667 241.5 50
s139.333 79.833 195 139.5s99 129.667 130 210s46.5 167.166 46.5 260.499s-15.5 180.166 -46.5 260.499s-74.333 150.333 -130 210s-120.667 106.167 -195 139.5s-154.833 50 -241.5 50s-167.334 -16.667 -242.001 -50s-139.834 -79.833 -195.501 -139.5
s-99 -129.667 -130 -210s-46.5 -167.166 -46.5 -260.499s15.5 -180.166 46.5 -260.499s74.333 -150.333 130 -210s120.834 -106.167 195.501 -139.5s155.334 -50 242.001 -50zM432 -8l-127 93l1249 1587l128 -97z" />
    <glyph glyph-name="Ugrave" unicode="&#xd9;" horiz-adv-x="1638" 
d="M819 -32c-194.667 0 -341.333 52 -440 156s-148 259 -148 465v1061h203v-1010c0 -160.667 31.5 -279.5 94.5 -356.5s159.833 -115.5 290.5 -115.5s227.5 38.5 290.5 115.5s94.5 195.833 94.5 356.5v1010h204v-1061c0 -206 -49.333 -361 -148 -465
s-245.667 -156 -441 -156zM898.001 1768l-266 364l142 104l216 -398z" />
    <glyph glyph-name="Uacute" unicode="&#xda;" horiz-adv-x="1638" 
d="M819 -32c-194.667 0 -341.333 52 -440 156s-148 259 -148 465v1061h203v-1010c0 -160.667 31.5 -279.5 94.5 -356.5s159.833 -115.5 290.5 -115.5s227.5 38.5 290.5 115.5s94.5 195.833 94.5 356.5v1010h204v-1061c0 -206 -49.333 -361 -148 -465
s-245.667 -156 -441 -156zM797.001 1768l-91 70l216 398l142 -104z" />
    <glyph glyph-name="Ucircumflex" unicode="&#xdb;" horiz-adv-x="1638" 
d="M819 -32c-194.667 0 -341.333 52 -440 156s-148 259 -148 465v1061h203v-1010c0 -160.667 31.5 -279.5 94.5 -356.5s159.833 -115.5 290.5 -115.5s227.5 38.5 290.5 115.5s94.5 195.833 94.5 356.5v1010h204v-1061c0 -206 -49.333 -361 -148 -465
s-245.667 -156 -441 -156zM514.001 1917l-78 106l384 282l385 -282l-79 -106l-306 224z" />
    <glyph glyph-name="Udieresis" unicode="&#xdc;" horiz-adv-x="1638" 
d="M819 -32c-194.667 0 -341.333 52 -440 156s-148 259 -148 465v1061h203v-1010c0 -160.667 31.5 -279.5 94.5 -356.5s159.833 -115.5 290.5 -115.5s227.5 38.5 290.5 115.5s94.5 195.833 94.5 356.5v1010h204v-1061c0 -206 -49.333 -361 -148 -465
s-245.667 -156 -441 -156zM1056 1912c-30.667 0 -56.834 10.834 -78.501 32.501s-32.5 47.834 -32.5 78.501s10.833 56.834 32.5 78.5c21.667 21.667 47.834 32.5 78.501 32.5s56.834 -10.833 78.501 -32.5s32.5 -47.834 32.5 -78.501s-10.833 -56.834 -32.5 -78.501
s-47.834 -32.5 -78.501 -32.5zM584.001 1912c-30.667 0 -56.834 10.833 -78.501 32.5s-32.5 47.834 -32.5 78.501s10.833 56.834 32.5 78.5c21.667 21.667 47.834 32.5 78.501 32.5s56.834 -10.833 78.501 -32.5s32.5 -47.834 32.5 -78.5
c0 -30.667 -10.833 -56.834 -32.5 -78.501s-47.834 -32.5 -78.501 -32.5z" />
    <glyph glyph-name="Yacute" unicode="&#xdd;" horiz-adv-x="1491" 
d="M644 0v721l-577 929h245l433 -717l434 717h245l-577 -929v-721h-203zM722 1768l-91 70l216 398l142 -104z" />
    <glyph glyph-name="Thorn" unicode="&#xde;" horiz-adv-x="1383" 
d="M256 0v1650h203v-345h265c168 0 299.167 -43 393.5 -129s141.5 -201.667 141.5 -347c0 -96.667 -21.5 -182.334 -64.5 -257.001s-104.333 -133 -184 -175s-175.167 -63 -286.5 -63h-265v-334h-203zM459 501.001l209.999 -0.000976562c79.333 0 146.833 13.833 202.5 41.5
s98.334 65.834 128.001 114.501s44.5 105 44.5 169c0 96 -32.5 172.5 -97.5 229.5s-157.5 85.5 -277.5 85.5h-210v-640z" />
    <glyph glyph-name="germandbls" unicode="&#xdf;" horiz-adv-x="1358" 
d="M573 -32v179h134c61.333 0 116.666 15.333 165.999 46s88.5 72.167 117.5 124.5s43.5 110.5 43.5 174.5c0 65.333 -14.5 124.166 -43.5 176.499s-68.167 93.833 -117.5 124.5s-104.666 46 -165.999 46h-134v154h134c53.333 0 101.5 13.167 144.5 39.5
s77.167 62 102.5 107s38 95.167 38 150.5c0 54.667 -12.667 104.167 -38 148.5s-59.5 79.5 -102.5 105.5s-90.833 39 -143.5 39c-51.333 0 -97.666 -12.667 -138.999 -38s-74 -60 -98 -104s-36 -94 -36 -150v-1291h-194v707h-132v156h132v422c0 87.333 20.833 166 62.5 236
s97.834 125.667 168.501 167s150 62 238 62c87.333 0 166.166 -20.167 236.499 -60.5s126.166 -95 167.499 -164s62 -146.167 62 -231.5c0 -82.667 -21.167 -157 -63.5 -223s-100.833 -116.333 -175.5 -151c62 -24.667 115.333 -58.667 160 -102
s79.167 -93.666 103.5 -150.999s36.5 -119.333 36.5 -186c0 -96 -23.167 -182.667 -69.5 -260s-109.5 -138.5 -189.5 -183.5s-170.333 -68.167 -271 -69.5h-134z" />
    <glyph glyph-name="agrave" unicode="&#xe0;" 
d="M639 -32c-95.333 0 -181.501 23.501 -258.501 70.501s-138 111.5 -183 193.5s-67.5 175.667 -67.5 281c0 104 22 196.833 66 278.5s104.333 146.167 181 193.5s164 71 262 71c86.667 0 165.834 -19.333 237.501 -58s127.167 -92.334 166.5 -161.001v187h194v-1024h-194
v192c-44.667 -70.667 -102 -125.667 -172 -165s-147.333 -59 -232 -59zM690.999 135.001c70 0 131.833 16.167 185.5 48.5s95.834 76.833 126.501 133.5s46 121.667 46 195s-15.333 138.333 -46 195s-72.834 101.167 -126.501 133.5s-115.5 48.5 -185.5 48.5
c-69.333 0 -131 -16.167 -185 -48.5s-96.5 -76.833 -127.5 -133.5s-46.5 -121.667 -46.5 -195c0 -72.667 15.5 -137.5 46.5 -194.5s73.5 -101.667 127.5 -134s115.667 -48.5 185 -48.5zM836.999 1174l-266 364l142 104l216 -398z" />
    <glyph glyph-name="aacute" unicode="&#xe1;" 
d="M639 -32c-95.333 0 -181.501 23.501 -258.501 70.501s-138 111.5 -183 193.5s-67.5 175.667 -67.5 281c0 104 22 196.833 66 278.5s104.333 146.167 181 193.5s164 71 262 71c86.667 0 165.834 -19.333 237.501 -58s127.167 -92.334 166.5 -161.001v187h194v-1024h-194
v192c-44.667 -70.667 -102 -125.667 -172 -165s-147.333 -59 -232 -59zM690.999 135.001c70 0 131.833 16.167 185.5 48.5s95.834 76.833 126.501 133.5s46 121.667 46 195s-15.333 138.333 -46 195s-72.834 101.167 -126.501 133.5s-115.5 48.5 -185.5 48.5
c-69.333 0 -131 -16.167 -185 -48.5s-96.5 -76.833 -127.5 -133.5s-46.5 -121.667 -46.5 -195c0 -72.667 15.5 -137.5 46.5 -194.5s73.5 -101.667 127.5 -134s115.667 -48.5 185 -48.5zM735.999 1174l-91 70l216 398l142 -104z" />
    <glyph glyph-name="acircumflex" unicode="&#xe2;" 
d="M639 -32c-95.333 0 -181.501 23.501 -258.501 70.501s-138 111.5 -183 193.5s-67.5 175.667 -67.5 281c0 104 22 196.833 66 278.5s104.333 146.167 181 193.5s164 71 262 71c86.667 0 165.834 -19.333 237.501 -58s127.167 -92.334 166.5 -161.001v187h194v-1024h-194
v192c-44.667 -70.667 -102 -125.667 -172 -165s-147.333 -59 -232 -59zM690.999 135.001c70 0 131.833 16.167 185.5 48.5s95.834 76.833 126.501 133.5s46 121.667 46 195s-15.333 138.333 -46 195s-72.834 101.167 -126.501 133.5s-115.5 48.5 -185.5 48.5
c-69.333 0 -131 -16.167 -185 -48.5s-96.5 -76.833 -127.5 -133.5s-46.5 -121.667 -46.5 -195c0 -72.667 15.5 -137.5 46.5 -194.5s73.5 -101.667 127.5 -134s115.667 -48.5 185 -48.5zM452.999 1323l-78 106l384 282l385 -282l-79 -106l-306 224z" />
    <glyph glyph-name="atilde" unicode="&#xe3;" 
d="M639 -32c-95.333 0 -181.501 23.501 -258.501 70.501s-138 111.5 -183 193.5s-67.5 175.667 -67.5 281c0 104 22 196.833 66 278.5s104.333 146.167 181 193.5s164 71 262 71c86.667 0 165.834 -19.333 237.501 -58s127.167 -92.334 166.5 -161.001v187h194v-1024h-194
v192c-44.667 -70.667 -102 -125.667 -172 -165s-147.333 -59 -232 -59zM690.999 135.001c70 0 131.833 16.167 185.5 48.5s95.834 76.833 126.501 133.5s46 121.667 46 195s-15.333 138.333 -46 195s-72.834 101.167 -126.501 133.5s-115.5 48.5 -185.5 48.5
c-69.333 0 -131 -16.167 -185 -48.5s-96.5 -76.833 -127.5 -133.5s-46.5 -121.667 -46.5 -195c0 -72.667 15.5 -137.5 46.5 -194.5s73.5 -101.667 127.5 -134s115.667 -48.5 185 -48.5zM960.999 1270c-40.667 0 -77.6631 8.16504 -110.996 24.498s-65.333 35.166 -96 56.499
s-61.834 40.166 -93.501 56.499s-66.5 24.5 -104.5 24.5c-50.667 0 -92.834 -15.667 -126.501 -47s-59.834 -66.666 -78.501 -105.999l-102 90c32 59.333 74.333 109.5 127 150.5s111.667 61.5 177 61.5c44 0 84.167 -8.16699 120.5 -24.5s70.666 -35.166 102.999 -56.499
s64.166 -40.166 95.499 -56.499s63.333 -24.5 96 -24.5c41.333 0 79.833 14.333 115.5 43s63.834 65.334 84.501 110.001l101 -90c-22.667 -42.667 -51 -80 -85 -112s-70.333 -56.667 -109 -74s-76.667 -26 -114 -26z" />
    <glyph glyph-name="adieresis" unicode="&#xe4;" 
d="M639 -32c-95.333 0 -181.501 23.501 -258.501 70.501s-138 111.5 -183 193.5s-67.5 175.667 -67.5 281c0 104 22 196.833 66 278.5s104.333 146.167 181 193.5s164 71 262 71c86.667 0 165.834 -19.333 237.501 -58s127.167 -92.334 166.5 -161.001v187h194v-1024h-194
v192c-44.667 -70.667 -102 -125.667 -172 -165s-147.333 -59 -232 -59zM690.999 135.001c70 0 131.833 16.167 185.5 48.5s95.834 76.833 126.501 133.5s46 121.667 46 195s-15.333 138.333 -46 195s-72.834 101.167 -126.501 133.5s-115.5 48.5 -185.5 48.5
c-69.333 0 -131 -16.167 -185 -48.5s-96.5 -76.833 -127.5 -133.5s-46.5 -121.667 -46.5 -195c0 -72.667 15.5 -137.5 46.5 -194.5s73.5 -101.667 127.5 -134s115.667 -48.5 185 -48.5zM994.999 1318c-30.667 0 -56.834 10.833 -78.501 32.5s-32.5 47.834 -32.5 78.501
s10.833 56.834 32.5 78.501s47.834 32.5 78.501 32.5s56.834 -10.833 78.501 -32.5s32.5 -47.834 32.5 -78.501s-10.833 -56.834 -32.5 -78.501s-47.834 -32.5 -78.501 -32.5zM522.999 1318c-30.667 0 -56.834 10.833 -78.501 32.5s-32.5 47.834 -32.5 78.501
s10.833 56.834 32.5 78.501s47.834 32.5 78.501 32.5s56.834 -10.833 78.501 -32.5s32.5 -47.834 32.5 -78.501s-10.833 -56.834 -32.5 -78.501s-47.834 -32.5 -78.501 -32.5z" />
    <glyph glyph-name="aring" unicode="&#xe5;" 
d="M639 -32c-95.333 0 -181.501 23.501 -258.501 70.501s-138 111.5 -183 193.5s-67.5 175.667 -67.5 281c0 104 22 196.833 66 278.5s104.333 146.167 181 193.5s164 71 262 71c86.667 0 165.834 -19.333 237.501 -58s127.167 -92.334 166.5 -161.001v187h194v-1024h-194
v192c-44.667 -70.667 -102 -125.667 -172 -165s-147.333 -59 -232 -59zM690.999 135.001c70 0 131.833 16.167 185.5 48.5s95.834 76.833 126.501 133.5s46 121.667 46 195s-15.333 138.333 -46 195s-72.834 101.167 -126.501 133.5s-115.5 48.5 -185.5 48.5
c-69.333 0 -131 -16.167 -185 -48.5s-96.5 -76.833 -127.5 -133.5s-46.5 -121.667 -46.5 -195c0 -72.667 15.5 -137.5 46.5 -194.5s73.5 -101.667 127.5 -134s115.667 -48.5 185 -48.5zM758.999 1272c-46.667 0 -89.167 9.5 -127.5 28.5s-68.833 45.5 -91.5 79.5
s-34 72.667 -34 116v0c0 43.333 11.333 81.833 34 115.5s53.167 60 91.5 79s80.833 28.5 127.5 28.5c47.333 0 90 -9.5 128 -28.5s68.333 -45.333 91 -79s34 -72.167 34 -115.5s-11.333 -82 -34 -116s-53 -60.5 -91 -79.5s-80.667 -28.5 -128 -28.5zM758.999 1374
c37.333 0 68.833 11.667 94.5 35s38.5 52.333 38.5 87s-12.833 63.5 -38.5 86.5s-57.167 34.5 -94.5 34.5c-36.667 0 -68 -11.5 -94 -34.5s-39 -51.833 -39 -86.5v0c0 -34.667 13 -63.667 39 -87s57.333 -35 94 -35z" />
    <glyph glyph-name="ae" unicode="&#xe6;" horiz-adv-x="2031" 
d="M508 -32c-76 0 -143.664 13.1689 -202.997 39.502s-105.833 63.666 -139.5 111.999s-50.5 105.5 -50.5 171.5c0 65.333 17.167 122.5 51.5 171.5s81.333 87.333 141 115s127.5 41.5 203.5 41.5c65.333 0 126.666 -10.667 183.999 -32s104.666 -50.666 141.999 -87.999
v112c0 90 -27 160.5 -81 211.5s-125.667 76.5 -215 76.5c-38.667 0 -75.5 -4.66699 -110.5 -14s-67.5 -21.833 -97.5 -37.5s-57 -33.834 -81 -54.501l-73 128c49.333 47.333 106.166 81.666 170.499 102.999s132.166 32 203.499 32c102.667 0 187.834 -21.833 255.501 -65.5
s115.167 -98.167 142.5 -163.5c46.667 69.333 107.334 124.833 182.001 166.5s156.334 62.5 245.001 62.5c101.333 0 192.166 -23.167 272.499 -69.5s144 -109.833 191 -190.5s70.833 -172 71.5 -274c0 -4.66699 -0.166992 -9 -0.5 -13s-0.833008 -10.333 -1.5 -19h-883
c0 -71.333 16 -134.5 48 -189.5s76.5 -97.833 133.5 -128.5s122.833 -46 197.5 -46c70 0 132.667 14.333 188 43s103.333 71.334 144 128.001l142 -74c-50 -81.333 -117.333 -144.166 -202 -188.499s-179.667 -66.5 -285 -66.5c-95.333 0 -181.833 19.667 -259.5 59
s-141.834 95.333 -192.501 168c-39.333 -48.667 -81.5 -89.834 -126.5 -123.501s-93 -59.334 -144 -77.001s-105.5 -26.5 -163.5 -26.5zM575.003 94.002c50 0 95.5 8.66504 136.5 25.998s73.667 41.5 98 72.5s36.5 66.833 36.5 107.5c0 41.333 -12.333 77.333 -37 108
s-57.667 54.5 -99 71.5s-87 25.5 -137 25.5c-49.333 0 -94.333 -8.5 -135 -25.5s-73 -40.667 -97 -71s-36 -65.833 -36 -106.5c0 -41.333 12.167 -77.666 36.5 -108.999s56.833 -55.666 97.5 -72.999s86 -26 136 -26zM1034 603h687.998
c-6 61.333 -24.667 115.666 -56 162.999s-71.666 84.5 -120.999 111.5s-104.333 40.5 -165 40.5c-61.333 0 -117.166 -13.667 -167.499 -41s-91.333 -64.666 -123 -111.999s-50.167 -101.333 -55.5 -162z" />
    <glyph glyph-name="ccedilla" unicode="&#xe7;" horiz-adv-x="1119" 
d="M682 -32c-77.333 0 -149.834 13.667 -217.501 41s-127.167 65.666 -178.5 114.999s-91.5 107 -120.5 173s-43.5 137.667 -43.5 215c0 76 14 146.833 42 212.5s67.333 123.334 118 173.001s110 88.5 178 116.5s141.667 42 221 42c67.333 0 131.333 -9.83301 192 -29.5
s112 -46.167 154 -79.5l-73 -131c-67.333 52 -149.666 78 -246.999 78c-77.333 0 -145 -17.167 -203 -51.5s-102.833 -80.5 -134.5 -138.5s-47.5 -122 -47.5 -192c0 -72 16.333 -136.833 49 -194.5s78.167 -103.334 136.5 -137.001s125.5 -50.5 201.5 -50.5
c47.333 0 92 6.83301 134 20.5s78.667 32.834 110 57.501l74 -131c-42.667 -32.667 -94 -59 -154 -79s-123.667 -30 -191 -30zM645.999 -547c-55.333 0 -105.832 12.6689 -151.499 38.002s-84.5 61.333 -116.5 108l84 59c42.667 -66.667 103 -100 181 -100
c42 0 75.833 10.5 101.5 31.5s38.5 48.5 38.5 82.5c0 32.667 -12.5 59 -37.5 79s-57.5 30 -97.5 30c-21.333 0 -43.833 -2.83301 -67.5 -8.5s-42.834 -12.834 -57.501 -21.501l-11 8l82 254h95l-52 -161c22 2.66699 41.5 3.16699 58.5 1.5s32.833 -5.16699 47.5 -10.5
c46 -6.66699 83.167 -25.667 111.5 -57s42.5 -70.333 42.5 -117c0 -62.667 -23.5 -114.334 -70.5 -155.001s-107.167 -61 -180.5 -61z" />
    <glyph glyph-name="egrave" unicode="&#xe8;" horiz-adv-x="1322" 
d="M688 -32c-107.333 0 -203.668 23.666 -289.001 70.999s-152.666 111.833 -201.999 193.5s-74 173.834 -74 276.501c0 76 14 147 42 213s67 124.167 117 174.5s108 89.5 174 117.5s136.667 42 212 42c106.667 0 200.167 -22 280.5 -66s143 -105.333 188 -184
s67.5 -170 67.5 -274c0 -8.66699 -0.333008 -15.667 -1 -21s-2 -12.333 -4 -21h-880c0 -71.333 16.167 -134.333 48.5 -189s77 -97.5 134 -128.5s122.5 -46.5 196.5 -46.5c70 0 132.667 14.333 188 43s103.333 71.334 144 128.001l142 -74
c-48.667 -80.667 -115.5 -143.334 -200.5 -188.001s-179.5 -67 -283.5 -67zM328.998 632.999h680.001c-9.33301 52.667 -29.833 98.834 -61.5 138.501s-71.334 70.667 -119.001 93s-100.167 33.5 -157.5 33.5c-60 0 -114.167 -10.833 -162.5 -32.5s-88 -52.334 -119 -92.001
s-51.167 -86.5 -60.5 -140.5zM745.999 1156l-266 364l142 104l216 -398z" />
    <glyph glyph-name="eacute" unicode="&#xe9;" horiz-adv-x="1322" 
d="M688 -32c-107.333 0 -203.668 23.666 -289.001 70.999s-152.666 111.833 -201.999 193.5s-74 173.834 -74 276.501c0 76 14 147 42 213s67 124.167 117 174.5s108 89.5 174 117.5s136.667 42 212 42c106.667 0 200.167 -22 280.5 -66s143 -105.333 188 -184
s67.5 -170 67.5 -274c0 -8.66699 -0.333008 -15.667 -1 -21s-2 -12.333 -4 -21h-880c0 -71.333 16.167 -134.333 48.5 -189s77 -97.5 134 -128.5s122.5 -46.5 196.5 -46.5c70 0 132.667 14.333 188 43s103.333 71.334 144 128.001l142 -74
c-48.667 -80.667 -115.5 -143.334 -200.5 -188.001s-179.5 -67 -283.5 -67zM328.998 632.999h680.001c-9.33301 52.667 -29.833 98.834 -61.5 138.501s-71.334 70.667 -119.001 93s-100.167 33.5 -157.5 33.5c-60 0 -114.167 -10.833 -162.5 -32.5s-88 -52.334 -119 -92.001
s-51.167 -86.5 -60.5 -140.5zM644.999 1156l-91 70l216 398l142 -104z" />
    <glyph glyph-name="ecircumflex" unicode="&#xea;" horiz-adv-x="1322" 
d="M688 -32c-107.333 0 -203.668 23.666 -289.001 70.999s-152.666 111.833 -201.999 193.5s-74 173.834 -74 276.501c0 76 14 147 42 213s67 124.167 117 174.5s108 89.5 174 117.5s136.667 42 212 42c106.667 0 200.167 -22 280.5 -66s143 -105.333 188 -184
s67.5 -170 67.5 -274c0 -8.66699 -0.333008 -15.667 -1 -21s-2 -12.333 -4 -21h-880c0 -71.333 16.167 -134.333 48.5 -189s77 -97.5 134 -128.5s122.5 -46.5 196.5 -46.5c70 0 132.667 14.333 188 43s103.333 71.334 144 128.001l142 -74
c-48.667 -80.667 -115.5 -143.334 -200.5 -188.001s-179.5 -67 -283.5 -67zM328.998 632.999h680.001c-9.33301 52.667 -29.833 98.834 -61.5 138.501s-71.334 70.667 -119.001 93s-100.167 33.5 -157.5 33.5c-60 0 -114.167 -10.833 -162.5 -32.5s-88 -52.334 -119 -92.001
s-51.167 -86.5 -60.5 -140.5zM361.999 1305l-78 106l384 282l385 -282l-79 -106l-306 224z" />
    <glyph glyph-name="edieresis" unicode="&#xeb;" horiz-adv-x="1322" 
d="M688 -32c-107.333 0 -203.668 23.666 -289.001 70.999s-152.666 111.833 -201.999 193.5s-74 173.834 -74 276.501c0 76 14 147 42 213s67 124.167 117 174.5s108 89.5 174 117.5s136.667 42 212 42c106.667 0 200.167 -22 280.5 -66s143 -105.333 188 -184
s67.5 -170 67.5 -274c0 -8.66699 -0.333008 -15.667 -1 -21s-2 -12.333 -4 -21h-880c0 -71.333 16.167 -134.333 48.5 -189s77 -97.5 134 -128.5s122.5 -46.5 196.5 -46.5c70 0 132.667 14.333 188 43s103.333 71.334 144 128.001l142 -74
c-48.667 -80.667 -115.5 -143.334 -200.5 -188.001s-179.5 -67 -283.5 -67zM328.998 632.999h680.001c-9.33301 52.667 -29.833 98.834 -61.5 138.501s-71.334 70.667 -119.001 93s-100.167 33.5 -157.5 33.5c-60 0 -114.167 -10.833 -162.5 -32.5s-88 -52.334 -119 -92.001
s-51.167 -86.5 -60.5 -140.5zM903.999 1300c-30.667 0 -56.834 10.833 -78.501 32.5s-32.5 47.834 -32.5 78.501s10.833 56.834 32.5 78.501s47.834 32.5 78.501 32.5s56.834 -10.833 78.501 -32.5s32.5 -47.834 32.5 -78.501s-10.833 -56.834 -32.5 -78.501
s-47.834 -32.5 -78.501 -32.5zM431.999 1300c-30.667 0 -56.834 10.833 -78.501 32.5s-32.5 47.834 -32.5 78.501s10.833 56.834 32.5 78.501s47.834 32.5 78.501 32.5s56.834 -10.833 78.501 -32.5s32.5 -47.834 32.5 -78.501s-10.833 -56.834 -32.5 -78.501
s-47.834 -32.5 -78.501 -32.5z" />
    <glyph glyph-name="igrave" unicode="&#xec;" horiz-adv-x="604" 
d="M205 0v1024h194v-1024h-194zM380 1143l-266 364l142 104l216 -398z" />
    <glyph glyph-name="iacute" unicode="&#xed;" horiz-adv-x="604" 
d="M205 0v1024h194v-1024h-194zM279 1143l-91 70l216 398l142 -104z" />
    <glyph glyph-name="icircumflex" unicode="&#xee;" horiz-adv-x="604" 
d="M205 0v1024h194v-1024h-194zM-4 1292l-78 106l384 282l385 -282l-79 -106l-306 224z" />
    <glyph glyph-name="idieresis" unicode="&#xef;" horiz-adv-x="604" 
d="M205 0v1024h194v-1024h-194zM538 1287c-30.667 0 -56.834 10.833 -78.501 32.5s-32.5 47.834 -32.5 78.501s10.833 56.834 32.5 78.501s47.834 32.5 78.501 32.5s56.834 -10.833 78.501 -32.5s32.5 -47.834 32.5 -78.501s-10.833 -56.834 -32.5 -78.501
s-47.834 -32.5 -78.501 -32.5zM66 1287c-30.667 0 -56.834 10.833 -78.501 32.5s-32.5 47.834 -32.5 78.501s10.833 56.834 32.5 78.501s47.834 32.5 78.501 32.5s56.834 -10.833 78.501 -32.5s32.5 -47.834 32.5 -78.501s-10.833 -56.834 -32.5 -78.501
s-47.834 -32.5 -78.501 -32.5z" />
    <glyph glyph-name="eth" unicode="&#xf0;" horiz-adv-x="1432" 
d="M705 -32c-112.667 0 -212.667 23.3359 -300 70.0029s-155.833 110.834 -205.5 192.501s-74.5 175.5 -74.5 281.5c0 86.667 15.833 164 47.5 232s74.5 125.667 128.5 173s114.833 83.333 182.5 108s137.5 37 209.5 37c65.333 0 124.666 -14.333 177.999 -43
s95.333 -67.667 126 -117c-28.667 109.333 -70.167 205.333 -124.5 288s-118.166 152.334 -191.499 209.001l-159 -159l-93 93l137 136c-40.667 26 -82.334 48.667 -125.001 68s-83.667 35.333 -123 48l49 165c54 -16.667 109.333 -37.334 166 -62.001
s111.334 -53.667 164.001 -87l150 149l92 -94l-129 -127c68.667 -52.667 131.834 -113.334 189.501 -182.001s107.667 -145.334 150 -230.001s75.166 -177.334 98.499 -278.001s35 -209.667 35 -327c0 -106 -25.167 -199.833 -75.5 -281.5s-119 -145.834 -206 -192.501
s-185.833 -70 -296.5 -70zM704 136.003c72.667 0 137.332 16.167 193.999 48.5s101.334 76.833 134.001 133.5s49 121.334 49 194.001c0 73.333 -16.5 138.333 -49.5 195s-77.833 101.167 -134.5 133.5s-121 48.5 -193 48.5s-136.5 -16.167 -193.5 -48.5
s-102 -76.833 -135 -133.5s-49.5 -121.667 -49.5 -195c0 -72.667 16.167 -137.334 48.5 -194.001s77 -101.167 134 -133.5s122.167 -48.5 195.5 -48.5z" />
    <glyph glyph-name="ntilde" unicode="&#xf1;" horiz-adv-x="1317" 
d="M205 0l-0.000976562 1024h194v-132c31.333 46.667 76.333 85.667 135 117s128.334 47 209.001 47c79.333 0 148 -16.5 206 -49.5s102.833 -80.5 134.5 -142.5s47.5 -136 47.5 -222v-642h-194v603c0 96 -23 169.667 -69 221s-110.667 77 -194 77
c-57.333 0 -106.5 -11.5 -147.5 -34.5s-72.5 -53.667 -94.5 -92s-33 -80.166 -33 -125.499v-649h-194zM883.999 1270c-40.667 0 -77.6631 8.16504 -110.996 24.498s-65.333 35.166 -96 56.499s-61.834 40.166 -93.501 56.499s-66.5 24.5 -104.5 24.5
c-50.667 0 -92.834 -15.667 -126.501 -47s-59.834 -66.666 -78.501 -105.999l-102 90c32 59.333 74.333 109.5 127 150.5s111.667 61.5 177 61.5c44 0 84.167 -8.16699 120.5 -24.5s70.666 -35.166 102.999 -56.499s64.166 -40.166 95.499 -56.499s63.333 -24.5 96 -24.5
c41.333 0 79.833 14.333 115.5 43s63.834 65.334 84.501 110.001l101 -90c-22.667 -42.667 -51 -80 -85 -112s-70.333 -56.667 -109 -74s-76.667 -26 -114 -26z" />
    <glyph glyph-name="ograve" unicode="&#xf2;" horiz-adv-x="1401" 
d="M700 -32c-108.667 0 -206.5 23 -293.5 69s-156 110 -207 192s-76.5 176.333 -76.5 283c0 107.333 25.5 201.833 76.5 283.5s120 145.5 207 191.5s184.833 69 293.5 69s206.5 -23 293.5 -69s156 -109.833 207 -191.5s76.5 -176.167 76.5 -283.5
c0 -106.667 -25.5 -201 -76.5 -283s-120 -146 -207 -192s-184.833 -69 -293.5 -69zM701 137c71.333 0 135.333 16 192 48s101.334 76.333 134.001 133s49 121.334 49 194.001c0 73.333 -16.333 138.166 -49 194.499s-77.334 100.5 -134.001 132.5s-120.667 48 -192 48
c-72 0 -136.333 -16 -193 -48s-101.334 -76.167 -134.001 -132.5s-49 -121.166 -49 -194.499c0 -72.667 16.333 -137.334 49 -194.001s77.334 -101 134.001 -133s121 -48 193 -48zM778 1174l-266 364l142 104l216 -398z" />
    <glyph glyph-name="oacute" unicode="&#xf3;" horiz-adv-x="1401" 
d="M700 -32c-108.667 0 -206.5 23 -293.5 69s-156 110 -207 192s-76.5 176.333 -76.5 283c0 107.333 25.5 201.833 76.5 283.5s120 145.5 207 191.5s184.833 69 293.5 69s206.5 -23 293.5 -69s156 -109.833 207 -191.5s76.5 -176.167 76.5 -283.5
c0 -106.667 -25.5 -201 -76.5 -283s-120 -146 -207 -192s-184.833 -69 -293.5 -69zM701 137c71.333 0 135.333 16 192 48s101.334 76.333 134.001 133s49 121.334 49 194.001c0 73.333 -16.333 138.166 -49 194.499s-77.334 100.5 -134.001 132.5s-120.667 48 -192 48
c-72 0 -136.333 -16 -193 -48s-101.334 -76.167 -134.001 -132.5s-49 -121.166 -49 -194.499c0 -72.667 16.333 -137.334 49 -194.001s77.334 -101 134.001 -133s121 -48 193 -48zM677 1174l-91 70l216 398l142 -104z" />
    <glyph glyph-name="ocircumflex" unicode="&#xf4;" horiz-adv-x="1401" 
d="M700 -32c-108.667 0 -206.5 23 -293.5 69s-156 110 -207 192s-76.5 176.333 -76.5 283c0 107.333 25.5 201.833 76.5 283.5s120 145.5 207 191.5s184.833 69 293.5 69s206.5 -23 293.5 -69s156 -109.833 207 -191.5s76.5 -176.167 76.5 -283.5
c0 -106.667 -25.5 -201 -76.5 -283s-120 -146 -207 -192s-184.833 -69 -293.5 -69zM701 137c71.333 0 135.333 16 192 48s101.334 76.333 134.001 133s49 121.334 49 194.001c0 73.333 -16.333 138.166 -49 194.499s-77.334 100.5 -134.001 132.5s-120.667 48 -192 48
c-72 0 -136.333 -16 -193 -48s-101.334 -76.167 -134.001 -132.5s-49 -121.166 -49 -194.499c0 -72.667 16.333 -137.334 49 -194.001s77.334 -101 134.001 -133s121 -48 193 -48zM394 1323l-78 106l384 282l385 -282l-79 -106l-306 224z" />
    <glyph glyph-name="otilde" unicode="&#xf5;" horiz-adv-x="1401" 
d="M700 -32c-108.667 0 -206.5 23 -293.5 69s-156 110 -207 192s-76.5 176.333 -76.5 283c0 107.333 25.5 201.833 76.5 283.5s120 145.5 207 191.5s184.833 69 293.5 69s206.5 -23 293.5 -69s156 -109.833 207 -191.5s76.5 -176.167 76.5 -283.5
c0 -106.667 -25.5 -201 -76.5 -283s-120 -146 -207 -192s-184.833 -69 -293.5 -69zM701 137c71.333 0 135.333 16 192 48s101.334 76.333 134.001 133s49 121.334 49 194.001c0 73.333 -16.333 138.166 -49 194.499s-77.334 100.5 -134.001 132.5s-120.667 48 -192 48
c-72 0 -136.333 -16 -193 -48s-101.334 -76.167 -134.001 -132.5s-49 -121.166 -49 -194.499c0 -72.667 16.333 -137.334 49 -194.001s77.334 -101 134.001 -133s121 -48 193 -48zM902 1270c-40.667 0 -77.6631 8.16504 -110.996 24.498s-65.333 35.166 -96 56.499
s-61.834 40.166 -93.501 56.499s-66.5 24.5 -104.5 24.5c-50.667 0 -92.834 -15.667 -126.501 -47s-59.834 -66.666 -78.501 -105.999l-102 90c32 59.333 74.333 109.5 127 150.5s111.667 61.5 177 61.5c44 0 84.167 -8.16699 120.5 -24.5s70.666 -35.166 102.999 -56.499
s64.166 -40.166 95.499 -56.499s63.333 -24.5 96 -24.5c41.333 0 79.833 14.333 115.5 43s63.834 65.334 84.501 110.001l101 -90c-22.667 -42.667 -51 -80 -85 -112s-70.333 -56.667 -109 -74s-76.667 -26 -114 -26z" />
    <glyph glyph-name="odieresis" unicode="&#xf6;" horiz-adv-x="1401" 
d="M700 -32c-108.667 0 -206.5 23 -293.5 69s-156 110 -207 192s-76.5 176.333 -76.5 283c0 107.333 25.5 201.833 76.5 283.5s120 145.5 207 191.5s184.833 69 293.5 69s206.5 -23 293.5 -69s156 -109.833 207 -191.5s76.5 -176.167 76.5 -283.5
c0 -106.667 -25.5 -201 -76.5 -283s-120 -146 -207 -192s-184.833 -69 -293.5 -69zM701 137c71.333 0 135.333 16 192 48s101.334 76.333 134.001 133s49 121.334 49 194.001c0 73.333 -16.333 138.166 -49 194.499s-77.334 100.5 -134.001 132.5s-120.667 48 -192 48
c-72 0 -136.333 -16 -193 -48s-101.334 -76.167 -134.001 -132.5s-49 -121.166 -49 -194.499c0 -72.667 16.333 -137.334 49 -194.001s77.334 -101 134.001 -133s121 -48 193 -48zM936 1318c-30.667 0 -56.834 10.833 -78.501 32.5s-32.5 47.834 -32.5 78.501
s10.833 56.834 32.5 78.501s47.834 32.5 78.501 32.5s56.834 -10.833 78.501 -32.5s32.5 -47.834 32.5 -78.501s-10.833 -56.834 -32.5 -78.501s-47.834 -32.5 -78.501 -32.5zM464 1318c-30.667 0 -56.834 10.833 -78.501 32.5s-32.5 47.834 -32.5 78.501
s10.833 56.834 32.5 78.501s47.834 32.5 78.501 32.5s56.834 -10.833 78.501 -32.5s32.5 -47.834 32.5 -78.501s-10.833 -56.834 -32.5 -78.501s-47.834 -32.5 -78.501 -32.5z" />
    <glyph glyph-name="divide" unicode="&#xf7;" horiz-adv-x="1389" 
d="M164 746v168h1026v-168h-1026zM677 249c-26.667 0 -49.834 9.83301 -69.501 29.5s-29.5 43.834 -29.5 72.501s9.83301 52.834 29.5 72.501s42.834 29.5 69.501 29.5c27.333 0 50.833 -9.83301 70.5 -29.5s29.5 -43.834 29.5 -72.501s-9.83301 -52.834 -29.5 -72.501
s-43.167 -29.5 -70.5 -29.5zM677 1208c-26.667 0 -49.834 9.83301 -69.501 29.5s-29.5 43.5 -29.5 71.5c0 28.667 9.83301 52.834 29.5 72.501s42.834 29.5 69.501 29.5c27.333 0 50.833 -9.83301 70.5 -29.5s29.5 -43.834 29.5 -72.501c0 -28 -9.83301 -51.833 -29.5 -71.5
s-43.167 -29.5 -70.5 -29.5z" />
    <glyph glyph-name="oslash" unicode="&#xf8;" horiz-adv-x="1401" 
d="M700 -32c-108.667 0 -206.5 23 -293.5 69s-156 110 -207 192s-76.5 176.333 -76.5 283c0 107.333 25.5 201.833 76.5 283.5s120 145.5 207 191.5s184.833 69 293.5 69s206.5 -23 293.5 -69s156 -109.833 207 -191.5s76.5 -176.167 76.5 -283.5
c0 -106.667 -25.5 -201 -76.5 -283s-120 -146 -207 -192s-184.833 -69 -293.5 -69zM701 137c71.333 0 135.333 16 192 48s101.334 76.333 134.001 133s49 121.334 49 194.001c0 73.333 -16.333 138.166 -49 194.499s-77.334 100.5 -134.001 132.5s-120.667 48 -192 48
c-72 0 -136.333 -16 -193 -48s-101.334 -76.167 -134.001 -132.5s-49 -121.166 -49 -194.499c0 -72.667 16.333 -137.334 49 -194.001s77.334 -101 134.001 -133s121 -48 193 -48zM199 -32l892 1088h110l-892 -1088h-110z" />
    <glyph glyph-name="ugrave" unicode="&#xf9;" horiz-adv-x="1291" 
d="M645 -32c-164.667 0 -282.669 35.5 -354.002 106.5s-107 189.167 -107 354.5v595h194v-555c0 -122.667 20.333 -210 61 -262s109.334 -78 206.001 -78c97.333 0 166.333 26 207 78s61 139.333 61 262v555h194v-595c0 -165.333 -35.667 -283.5 -107 -354.5
s-189.666 -106.5 -354.999 -106.5zM723.998 1143l-266 364l142 104l216 -398z" />
    <glyph glyph-name="uacute" unicode="&#xfa;" horiz-adv-x="1291" 
d="M645 -32c-164.667 0 -282.669 35.5 -354.002 106.5s-107 189.167 -107 354.5v595h194v-555c0 -122.667 20.333 -210 61 -262s109.334 -78 206.001 -78c97.333 0 166.333 26 207 78s61 139.333 61 262v555h194v-595c0 -165.333 -35.667 -283.5 -107 -354.5
s-189.666 -106.5 -354.999 -106.5zM622.998 1143l-91 70l216 398l142 -104z" />
    <glyph glyph-name="ucircumflex" unicode="&#xfb;" horiz-adv-x="1291" 
d="M645 -32c-164.667 0 -282.669 35.5 -354.002 106.5s-107 189.167 -107 354.5v595h194v-555c0 -122.667 20.333 -210 61 -262s109.334 -78 206.001 -78c97.333 0 166.333 26 207 78s61 139.333 61 262v555h194v-595c0 -165.333 -35.667 -283.5 -107 -354.5
s-189.666 -106.5 -354.999 -106.5zM339.998 1292l-78 106l384 282l385 -282l-79 -106l-306 224z" />
    <glyph glyph-name="udieresis" unicode="&#xfc;" horiz-adv-x="1291" 
d="M645 -32c-164.667 0 -282.669 35.5 -354.002 106.5s-107 189.167 -107 354.5v595h194v-555c0 -122.667 20.333 -210 61 -262s109.334 -78 206.001 -78c97.333 0 166.333 26 207 78s61 139.333 61 262v555h194v-595c0 -165.333 -35.667 -283.5 -107 -354.5
s-189.666 -106.5 -354.999 -106.5zM881.998 1287c-30.667 0 -56.834 10.833 -78.501 32.5s-32.5 47.834 -32.5 78.501s10.833 56.834 32.5 78.501s47.834 32.5 78.501 32.5s56.834 -10.833 78.501 -32.5s32.5 -47.834 32.5 -78.501s-10.833 -56.834 -32.5 -78.501
s-47.834 -32.5 -78.501 -32.5zM409.998 1287c-30.667 0 -56.834 10.833 -78.501 32.5s-32.5 47.834 -32.5 78.501s10.833 56.834 32.5 78.501s47.834 32.5 78.501 32.5s56.834 -10.833 78.501 -32.5s32.5 -47.834 32.5 -78.501s-10.833 -56.834 -32.5 -78.501
s-47.834 -32.5 -78.501 -32.5z" />
    <glyph glyph-name="yacute" unicode="&#xfd;" horiz-adv-x="1241" 
d="M251 -520l275 576l-487 968h221l378 -775l339 775h221l-727 -1544h-220zM598 1143l-91 70l216 398l142 -104z" />
    <glyph glyph-name="thorn" unicode="&#xfe;" 
d="M205 -520v2240h194v-883c41.333 68 97 121.5 167 160.5s148.333 58.5 235 58.5c98.667 0 186.334 -23.667 263.001 -71s137.167 -112 181.5 -194s66.5 -175 66.5 -279c0 -103.333 -22.167 -196.166 -66.5 -278.499s-104.833 -147.166 -181.5 -194.499
s-164.334 -71 -263.001 -71c-86.667 0 -165.167 20.5 -235.5 61.5s-125.833 95.167 -166.5 162.5v-712h-194zM751 134.998c70 0 131.999 16.167 185.999 48.5s96.333 76.833 127 133.5s46 121.667 46 195c0 74 -15.667 139.333 -47 196s-74 101 -128 133
s-115.333 48 -184 48c-68 0 -129.167 -16 -183.5 -48s-97.166 -76.333 -128.499 -133s-47 -122 -47 -196c0 -73.333 15.5 -138.333 46.5 -195s73.5 -101.167 127.5 -133.5s115.667 -48.5 185 -48.5z" />
    <glyph glyph-name="ydieresis" unicode="&#xff;" horiz-adv-x="1241" 
d="M251 -520l275 576l-487 968h221l378 -775l339 775h221l-727 -1544h-220zM857 1287c-30.667 0 -56.834 10.833 -78.501 32.5s-32.5 47.834 -32.5 78.501s10.833 56.834 32.5 78.501s47.834 32.5 78.501 32.5s56.834 -10.833 78.501 -32.5s32.5 -47.834 32.5 -78.501
s-10.833 -56.834 -32.5 -78.501s-47.834 -32.5 -78.501 -32.5zM385 1287c-30.667 0 -56.834 10.833 -78.501 32.5s-32.5 47.834 -32.5 78.501s10.833 56.834 32.5 78.501s47.834 32.5 78.501 32.5s56.834 -10.833 78.501 -32.5s32.5 -47.834 32.5 -78.501
s-10.833 -56.834 -32.5 -78.501s-47.834 -32.5 -78.501 -32.5z" />
    <glyph glyph-name="Amacron" unicode="&#x100;" horiz-adv-x="1659" 
d="M82 0l653 1650h189l653 -1650h-219l-183 481h-691l-184 -481h-218zM553 660h553l-277 719zM421 1946v135h816v-135h-816z" />
    <glyph glyph-name="amacron" unicode="&#x101;" 
d="M639 -32c-95.333 0 -181.501 23.501 -258.501 70.501s-138 111.5 -183 193.5s-67.5 175.667 -67.5 281c0 104 22 196.833 66 278.5s104.333 146.167 181 193.5s164 71 262 71c86.667 0 165.834 -19.333 237.501 -58s127.167 -92.334 166.5 -161.001v187h194v-1024h-194
v192c-44.667 -70.667 -102 -125.667 -172 -165s-147.333 -59 -232 -59zM690.999 135.001c70 0 131.833 16.167 185.5 48.5s95.834 76.833 126.501 133.5s46 121.667 46 195s-15.333 138.333 -46 195s-72.834 101.167 -126.501 133.5s-115.5 48.5 -185.5 48.5
c-69.333 0 -131 -16.167 -185 -48.5s-96.5 -76.833 -127.5 -133.5s-46.5 -121.667 -46.5 -195c0 -72.667 15.5 -137.5 46.5 -194.5s73.5 -101.667 127.5 -134s115.667 -48.5 185 -48.5zM350.999 1352v135h816v-135h-816z" />
    <glyph glyph-name="Abreve" unicode="&#x102;" horiz-adv-x="1659" 
d="M82 0l653 1650h189l653 -1650h-219l-183 481h-691l-184 -481h-218zM553 660h553l-277 719zM829 1939c-74 0 -140.997 13.833 -200.997 41.5s-109.167 66.5 -147.5 116.5s-63.166 107.667 -74.499 173l143 35c8 -44 24 -83.833 48 -119.5s55.5 -64.167 94.5 -85.5
s84.833 -32 137.5 -32s98.5 10.667 137.5 32s70.667 49.833 95 85.5s40.166 75.5 47.499 119.5l143 -35c-10.667 -65.333 -35.334 -123 -74.001 -173s-87.834 -88.833 -147.501 -116.5s-126.834 -41.5 -201.501 -41.5z" />
    <glyph glyph-name="abreve" unicode="&#x103;" 
d="M639 -32c-95.333 0 -181.501 23.501 -258.501 70.501s-138 111.5 -183 193.5s-67.5 175.667 -67.5 281c0 104 22 196.833 66 278.5s104.333 146.167 181 193.5s164 71 262 71c86.667 0 165.834 -19.333 237.501 -58s127.167 -92.334 166.5 -161.001v187h194v-1024h-194
v192c-44.667 -70.667 -102 -125.667 -172 -165s-147.333 -59 -232 -59zM690.999 135.001c70 0 131.833 16.167 185.5 48.5s95.834 76.833 126.501 133.5s46 121.667 46 195s-15.333 138.333 -46 195s-72.834 101.167 -126.501 133.5s-115.5 48.5 -185.5 48.5
c-69.333 0 -131 -16.167 -185 -48.5s-96.5 -76.833 -127.5 -133.5s-46.5 -121.667 -46.5 -195c0 -72.667 15.5 -137.5 46.5 -194.5s73.5 -101.667 127.5 -134s115.667 -48.5 185 -48.5zM758.999 1345c-74 0 -140.997 13.833 -200.997 41.5s-109.167 66.5 -147.5 116.5
s-63.166 107.667 -74.499 173l143 35c8 -44 24 -83.833 48 -119.5s55.5 -64.167 94.5 -85.5s84.833 -32 137.5 -32s98.5 10.667 137.5 32s70.667 49.833 95 85.5s40.166 75.5 47.499 119.5l143 -35c-10.667 -65.333 -35.334 -123 -74.001 -173
s-87.834 -88.833 -147.501 -116.5s-126.834 -41.5 -201.501 -41.5z" />
    <glyph glyph-name="Aogonek" unicode="&#x104;" horiz-adv-x="1659" 
d="M82 0l653 1650h189l653 -1650h-219l-183 481h-691l-184 -481h-218zM553 660h553l-277 719zM1547 -555c-72.667 0 -132.668 21.999 -180.001 65.999s-71 97 -71 159c0 46 15.5 97.5 46.5 154.5s75.167 116.833 132.5 179.5h102
c-49.333 -55.333 -88 -110.666 -116 -165.999s-42 -103 -42 -143c0 -36.667 12.167 -68 36.5 -94s60.5 -39 108.5 -39c32.667 0 63.334 7.33301 92.001 22s55.667 37.334 81 68.001l85 -63c-30.667 -44.667 -70.667 -79.834 -120 -105.501s-101 -38.5 -155 -38.5z" />
    <glyph glyph-name="aogonek" unicode="&#x105;" 
d="M639 -32c-95.333 0 -181.501 23.501 -258.501 70.501s-138 111.5 -183 193.5s-67.5 175.667 -67.5 281c0 104 22 196.833 66 278.5s104.333 146.167 181 193.5s164 71 262 71c86.667 0 165.834 -19.333 237.501 -58s127.167 -92.334 166.5 -161.001v187h194v-1024h-194
v192c-44.667 -70.667 -102 -125.667 -172 -165s-147.333 -59 -232 -59zM690.999 135.001c70 0 131.833 16.167 185.5 48.5s95.834 76.833 126.501 133.5s46 121.667 46 195s-15.333 138.333 -46 195s-72.834 101.167 -126.501 133.5s-115.5 48.5 -185.5 48.5
c-69.333 0 -131 -16.167 -185 -48.5s-96.5 -76.833 -127.5 -133.5s-46.5 -121.667 -46.5 -195c0 -72.667 15.5 -137.5 46.5 -194.5s73.5 -101.667 127.5 -134s115.667 -48.5 185 -48.5zM1207 -558.999c-72.667 0 -132.668 21.999 -180.001 65.999s-71 97 -71 159
c0 46 15.5 97.5 46.5 154.5s75.167 116.833 132.5 179.5h102c-49.333 -55.333 -88 -110.666 -116 -165.999s-42 -103 -42 -143c0 -36.667 12.167 -68 36.5 -94s60.5 -39 108.5 -39c32.667 0 63.334 7.33301 92.001 22s55.667 37.334 81 68.001l85 -63
c-30.667 -44.667 -70.667 -79.834 -120 -105.501s-101 -38.5 -155 -38.5z" />
    <glyph glyph-name="Cacute" unicode="&#x106;" horiz-adv-x="1585" 
d="M983 -32c-124 0 -239.499 21.833 -346.499 65.5s-200.667 104.334 -281 182.001s-142.833 168.5 -187.5 272.5s-67 216 -67 336s22.5 232 67.5 336s107.5 194.833 187.5 272.5s173.333 138.334 280 182.001s222 65.5 346 65.5c102.667 0 199.5 -14.833 290.5 -44.5
s170.5 -70.167 238.5 -121.5l-92 -171c-54.667 44 -118.667 77.833 -192 101.5s-150.666 35.5 -231.999 35.5c-98 0 -188 -16.667 -270 -50s-153.167 -79.833 -213.5 -139.5s-107 -129.334 -140 -209.001s-49.5 -165.5 -49.5 -257.5s16.5 -177.833 49.5 -257.5
s79.667 -149.334 140 -209.001s131.5 -106.167 213.5 -139.5s172 -50 270 -50c81.333 0 158.666 11.833 231.999 35.5s137.333 57.5 192 101.5l92 -171c-66.667 -50 -145.334 -90.167 -236.001 -120.5s-188 -45.5 -292 -45.5zM959.001 1798l-91 70l216 398l142 -104z" />
    <glyph glyph-name="cacute" unicode="&#x107;" horiz-adv-x="1119" 
d="M682 -32c-77.333 0 -149.834 13.667 -217.501 41s-127.167 65.666 -178.5 114.999s-91.5 107 -120.5 173s-43.5 137.667 -43.5 215c0 76 14 146.833 42 212.5s67.333 123.334 118 173.001s110 88.5 178 116.5s141.667 42 221 42c67.333 0 131.333 -9.83301 192 -29.5
s112 -46.167 154 -79.5l-73 -131c-67.333 52 -149.666 78 -246.999 78c-77.333 0 -145 -17.167 -203 -51.5s-102.833 -80.5 -134.5 -138.5s-47.5 -122 -47.5 -192c0 -72 16.333 -136.833 49 -194.5s78.167 -103.334 136.5 -137.001s125.5 -50.5 201.5 -50.5
c47.333 0 92 6.83301 134 20.5s78.667 32.834 110 57.501l74 -131c-42.667 -32.667 -94 -59 -154 -79s-123.667 -30 -191 -30zM631.999 1174l-91 70l216 398l142 -104z" />
    <glyph glyph-name="Cdotaccent" unicode="&#x10a;" horiz-adv-x="1585" 
d="M983 -32c-124 0 -239.499 21.833 -346.499 65.5s-200.667 104.334 -281 182.001s-142.833 168.5 -187.5 272.5s-67 216 -67 336s22.5 232 67.5 336s107.5 194.833 187.5 272.5s173.333 138.334 280 182.001s222 65.5 346 65.5c102.667 0 199.5 -14.833 290.5 -44.5
s170.5 -70.167 238.5 -121.5l-92 -171c-54.667 44 -118.667 77.833 -192 101.5s-150.666 35.5 -231.999 35.5c-98 0 -188 -16.667 -270 -50s-153.167 -79.833 -213.5 -139.5s-107 -129.334 -140 -209.001s-49.5 -165.5 -49.5 -257.5s16.5 -177.833 49.5 -257.5
s79.667 -149.334 140 -209.001s131.5 -106.167 213.5 -139.5s172 -50 270 -50c81.333 0 158.666 11.833 231.999 35.5s137.333 57.5 192 101.5l92 -171c-66.667 -50 -145.334 -90.167 -236.001 -120.5s-188 -45.5 -292 -45.5zM983.001 2010
c-22.667 0 -43.167 5.5 -61.5 16.5s-33 25.667 -44 44s-16.5 38.833 -16.5 61.5c0 22 5.5 42.167 16.5 60.5s25.667 33 44 44s38.833 16.5 61.5 16.5s43 -5.5 61 -16.5s32.5 -25.667 43.5 -44s16.5 -38.5 16.5 -60.5c0 -22.667 -5.5 -43.167 -16.5 -61.5
s-25.5 -33 -43.5 -44s-38.333 -16.5 -61 -16.5z" />
    <glyph glyph-name="cdotaccent" unicode="&#x10b;" horiz-adv-x="1119" 
d="M682 -32c-77.333 0 -149.834 13.667 -217.501 41s-127.167 65.666 -178.5 114.999s-91.5 107 -120.5 173s-43.5 137.667 -43.5 215c0 76 14 146.833 42 212.5s67.333 123.334 118 173.001s110 88.5 178 116.5s141.667 42 221 42c67.333 0 131.333 -9.83301 192 -29.5
s112 -46.167 154 -79.5l-73 -131c-67.333 52 -149.666 78 -246.999 78c-77.333 0 -145 -17.167 -203 -51.5s-102.833 -80.5 -134.5 -138.5s-47.5 -122 -47.5 -192c0 -72 16.333 -136.833 49 -194.5s78.167 -103.334 136.5 -137.001s125.5 -50.5 201.5 -50.5
c47.333 0 92 6.83301 134 20.5s78.667 32.834 110 57.501l74 -131c-42.667 -32.667 -94 -59 -154 -79s-123.667 -30 -191 -30zM655.999 1386c-22.667 0 -43.167 5.5 -61.5 16.5s-33 25.667 -44 44s-16.5 38.833 -16.5 61.5c0 22 5.5 42.167 16.5 60.5s25.667 33 44 44
s38.833 16.5 61.5 16.5s43 -5.5 61 -16.5s32.5 -25.667 43.5 -44s16.5 -38.5 16.5 -60.5c0 -22.667 -5.5 -43.167 -16.5 -61.5s-25.5 -33 -43.5 -44s-38.333 -16.5 -61 -16.5z" />
    <glyph glyph-name="Ccaron" unicode="&#x10c;" horiz-adv-x="1585" 
d="M983 -32c-124 0 -239.499 21.833 -346.499 65.5s-200.667 104.334 -281 182.001s-142.833 168.5 -187.5 272.5s-67 216 -67 336s22.5 232 67.5 336s107.5 194.833 187.5 272.5s173.333 138.334 280 182.001s222 65.5 346 65.5c102.667 0 199.5 -14.833 290.5 -44.5
s170.5 -70.167 238.5 -121.5l-92 -171c-54.667 44 -118.667 77.833 -192 101.5s-150.666 35.5 -231.999 35.5c-98 0 -188 -16.667 -270 -50s-153.167 -79.833 -213.5 -139.5s-107 -129.334 -140 -209.001s-49.5 -165.5 -49.5 -257.5s16.5 -177.833 49.5 -257.5
s79.667 -149.334 140 -209.001s131.5 -106.167 213.5 -139.5s172 -50 270 -50c81.333 0 158.666 11.833 231.999 35.5s137.333 57.5 192 101.5l92 -171c-66.667 -50 -145.334 -90.167 -236.001 -120.5s-188 -45.5 -292 -45.5zM982.001 1860l-384 282l78 107l306 -224
l306 224l79 -107z" />
    <glyph glyph-name="ccaron" unicode="&#x10d;" horiz-adv-x="1119" 
d="M682 -32c-77.333 0 -149.834 13.667 -217.501 41s-127.167 65.666 -178.5 114.999s-91.5 107 -120.5 173s-43.5 137.667 -43.5 215c0 76 14 146.833 42 212.5s67.333 123.334 118 173.001s110 88.5 178 116.5s141.667 42 221 42c67.333 0 131.333 -9.83301 192 -29.5
s112 -46.167 154 -79.5l-73 -131c-67.333 52 -149.666 78 -246.999 78c-77.333 0 -145 -17.167 -203 -51.5s-102.833 -80.5 -134.5 -138.5s-47.5 -122 -47.5 -192c0 -72 16.333 -136.833 49 -194.5s78.167 -103.334 136.5 -137.001s125.5 -50.5 201.5 -50.5
c47.333 0 92 6.83301 134 20.5s78.667 32.834 110 57.501l74 -131c-42.667 -32.667 -94 -59 -154 -79s-123.667 -30 -191 -30zM654.999 1236l-384 282l78 107l306 -224l306 224l79 -107z" />
    <glyph glyph-name="Dcaron" unicode="&#x10e;" horiz-adv-x="1630" 
d="M256 0l-0.000976562 1650h396c117.333 0 226.333 -21 327 -63s188.834 -100.5 264.501 -175.5s134.667 -162.667 177 -263s63.5 -208.5 63.5 -324.5s-21 -224 -63 -324s-100.833 -187.5 -176.5 -262.5s-164 -133.333 -265 -175s-210.167 -62.5 -327.5 -62.5h-396z
M458.999 182l173 0.000976562c90 0 173.667 16.167 251 48.5s144.833 77.666 202.5 135.999s102.5 126.5 134.5 204.5s48 162.667 48 254s-16 176 -48 254s-76.833 146 -134.5 204s-125.167 103.333 -202.5 136s-161 49 -251 49h-173v-1286zM815.999 1830l-384 282l78 107
l306 -224l306 224l79 -107z" />
    <glyph glyph-name="dcaron" unicode="&#x10f;" 
d="M638 -32c-94.667 0 -180.497 23.333 -257.497 70s-138 111 -183 193s-67.5 175.667 -67.5 281c0 104.667 22.167 197.834 66.5 279.501s105 146.167 182 193.5s164.833 71 263.5 71c85.333 0 163.166 -19.333 233.499 -58s126.166 -92.334 167.499 -161.001v884h194
v-1721h-194v192c-44 -70 -101.333 -124.833 -172 -164.5s-148.334 -59.5 -233.001 -59.5zM690.003 135c70 0 132 16.167 186 48.5s96.333 76.833 127 133.5s46 121.334 46 194.001c0 73.333 -15.333 138.5 -46 195.5s-73 101.667 -127 134s-115.667 48.5 -185 48.5
s-131 -16.167 -185 -48.5s-96.5 -77 -127.5 -134s-46.5 -122.167 -46.5 -195.5c0 -72.667 15.333 -137.334 46 -194.001s73 -101.167 127 -133.5s115.667 -48.5 185 -48.5zM647.003 1554l-384 282l78 107l306 -224l306 224l79 -107z" />
    <glyph glyph-name="Dcroat" unicode="&#x110;" horiz-adv-x="1668" 
d="M293 0v742.004h-164v166h164v742h396c113.333 0 220 -20.333 320 -61s188.5 -97.834 265.5 -171.501s137.333 -160.834 181 -261.501s65.5 -211 65.5 -331c0 -120.667 -21.833 -231.334 -65.5 -332.001s-103.834 -187.834 -180.501 -261.501
s-165.167 -130.667 -265.5 -171s-207.166 -60.5 -320.499 -60.5h-396zM496 182.004h172.999c88.667 0 171.5 16 248.5 48s144.5 77 202.5 135s103.333 126 136 204s49 163.333 49 256c0 92 -16.167 177 -48.5 255s-77.666 146.167 -135.999 204.5s-126 103.5 -203 135.5
s-159.833 48 -248.5 48h-173v-560h391v-166h-391v-560z" />
    <glyph glyph-name="dcroat" unicode="&#x111;" 
d="M641 -32c-98.667 0 -186.334 23.668 -263.001 71.001s-137.167 112.166 -181.5 194.499s-66.5 175.5 -66.5 279.5v0c0 103.333 22.167 196 66.5 278s104.833 146.667 181.5 194s164.334 71 263.001 71c87.333 0 165.833 -19.5 235.5 -58.5s125.167 -92.5 166.5 -160.5
v469h-368v129h368v286h194v-286h162v-129h-162v-1306h-194v192c-40.667 -67.333 -96 -121.5 -166 -162.5s-148.667 -61.5 -236 -61.5zM691 135.001c69.333 0 131 16.167 185 48.5s96.333 76.833 127 133.5s46 121.667 46 195c0 74 -15.667 139.333 -47 196
s-73.833 101 -127.5 133s-114.834 48 -183.501 48c-68 0 -129.167 -16 -183.5 -48s-97.166 -76.333 -128.499 -133s-47 -122 -47 -196v0c0 -73.333 15.333 -138.333 46 -195s73 -101.167 127 -133.5s116 -48.5 186 -48.5z" />
    <glyph glyph-name="Emacron" unicode="&#x112;" horiz-adv-x="1287" 
d="M256 0v1650h857v-179h-654v-555h630v-178h-630v-559h654v-179h-857zM284 1946v135h816v-135h-816z" />
    <glyph glyph-name="emacron" unicode="&#x113;" horiz-adv-x="1322" 
d="M688 -32c-107.333 0 -203.668 23.666 -289.001 70.999s-152.666 111.833 -201.999 193.5s-74 173.834 -74 276.501c0 76 14 147 42 213s67 124.167 117 174.5s108 89.5 174 117.5s136.667 42 212 42c106.667 0 200.167 -22 280.5 -66s143 -105.333 188 -184
s67.5 -170 67.5 -274c0 -8.66699 -0.333008 -15.667 -1 -21s-2 -12.333 -4 -21h-880c0 -71.333 16.167 -134.333 48.5 -189s77 -97.5 134 -128.5s122.5 -46.5 196.5 -46.5c70 0 132.667 14.333 188 43s103.333 71.334 144 128.001l142 -74
c-48.667 -80.667 -115.5 -143.334 -200.5 -188.001s-179.5 -67 -283.5 -67zM328.998 632.999h680.001c-9.33301 52.667 -29.833 98.834 -61.5 138.501s-71.334 70.667 -119.001 93s-100.167 33.5 -157.5 33.5c-60 0 -114.167 -10.833 -162.5 -32.5s-88 -52.334 -119 -92.001
s-51.167 -86.5 -60.5 -140.5zM259.999 1334v135h816v-135h-816z" />
    <glyph glyph-name="Edotaccent" unicode="&#x116;" horiz-adv-x="1287" 
d="M256 0v1650h857v-179h-654v-555h630v-178h-630v-559h654v-179h-857zM693 1980c-22.667 0 -43.167 5.5 -61.5 16.5s-33 25.667 -44 44s-16.5 38.833 -16.5 61.5c0 22 5.5 42.167 16.5 60.5s25.667 33 44 44s38.833 16.5 61.5 16.5s43 -5.5 61 -16.5s32.5 -25.667 43.5 -44
s16.5 -38.5 16.5 -60.5c0 -22.667 -5.5 -43.167 -16.5 -61.5s-25.5 -33 -43.5 -44s-38.333 -16.5 -61 -16.5z" />
    <glyph glyph-name="edotaccent" unicode="&#x117;" horiz-adv-x="1322" 
d="M688 -32c-107.333 0 -203.668 23.666 -289.001 70.999s-152.666 111.833 -201.999 193.5s-74 173.834 -74 276.501c0 76 14 147 42 213s67 124.167 117 174.5s108 89.5 174 117.5s136.667 42 212 42c106.667 0 200.167 -22 280.5 -66s143 -105.333 188 -184
s67.5 -170 67.5 -274c0 -8.66699 -0.333008 -15.667 -1 -21s-2 -12.333 -4 -21h-880c0 -71.333 16.167 -134.333 48.5 -189s77 -97.5 134 -128.5s122.5 -46.5 196.5 -46.5c70 0 132.667 14.333 188 43s103.333 71.334 144 128.001l142 -74
c-48.667 -80.667 -115.5 -143.334 -200.5 -188.001s-179.5 -67 -283.5 -67zM328.998 632.999h680.001c-9.33301 52.667 -29.833 98.834 -61.5 138.501s-71.334 70.667 -119.001 93s-100.167 33.5 -157.5 33.5c-60 0 -114.167 -10.833 -162.5 -32.5s-88 -52.334 -119 -92.001
s-51.167 -86.5 -60.5 -140.5zM668.999 1368c-22.667 0 -43.167 5.5 -61.5 16.5s-33 25.667 -44 44s-16.5 38.833 -16.5 61.5c0 22 5.5 42.167 16.5 60.5s25.667 33 44 44s38.833 16.5 61.5 16.5s43 -5.5 61 -16.5s32.5 -25.667 43.5 -44s16.5 -38.5 16.5 -60.5
c0 -22.667 -5.5 -43.167 -16.5 -61.5s-25.5 -33 -43.5 -44s-38.333 -16.5 -61 -16.5z" />
    <glyph glyph-name="Eogonek" unicode="&#x118;" horiz-adv-x="1287" 
d="M256 0v1650h857v-179h-654v-555h630v-178h-630v-559h654v-179h-857zM1083 -559c-72.667 0 -132.668 21.999 -180.001 65.999s-71 97 -71 159c0 46 15.5 97.5 46.5 154.5s75.167 116.833 132.5 179.5h102c-49.333 -55.333 -88 -110.666 -116 -165.999s-42 -103 -42 -143
c0 -36.667 12.167 -68 36.5 -94s60.5 -39 108.5 -39c32.667 0 63.334 7.33301 92.001 22s55.667 37.334 81 68.001l85 -63c-30.667 -44.667 -70.667 -79.834 -120 -105.501s-101 -38.5 -155 -38.5z" />
    <glyph glyph-name="eogonek" unicode="&#x119;" horiz-adv-x="1322" 
d="M688 -32c-107.333 0 -203.668 23.666 -289.001 70.999s-152.666 111.833 -201.999 193.5s-74 173.834 -74 276.501c0 76 14 147 42 213s67 124.167 117 174.5s108 89.5 174 117.5s136.667 42 212 42c106.667 0 200.167 -22 280.5 -66s143 -105.333 188 -184
s67.5 -170 67.5 -274c0 -8.66699 -0.333008 -15.667 -1 -21s-2 -12.333 -4 -21h-880c0 -71.333 16.167 -134.333 48.5 -189s77 -97.5 134 -128.5s122.5 -46.5 196.5 -46.5c70 0 132.667 14.333 188 43s103.333 71.334 144 128.001l142 -74
c-48.667 -80.667 -115.5 -143.334 -200.5 -188.001s-179.5 -67 -283.5 -67zM328.998 632.999h680.001c-9.33301 52.667 -29.833 98.834 -61.5 138.501s-71.334 70.667 -119.001 93s-100.167 33.5 -157.5 33.5c-60 0 -114.167 -10.833 -162.5 -32.5s-88 -52.334 -119 -92.001
s-51.167 -86.5 -60.5 -140.5zM712.999 -555.001c-72.667 0 -132.668 21.999 -180.001 65.999s-71 97 -71 159c0 46 15.5 97.5 46.5 154.5s75.167 116.833 132.5 179.5h102c-49.333 -55.333 -88 -110.666 -116 -165.999s-42 -103 -42 -143c0 -36.667 12.167 -68 36.5 -94
s60.5 -39 108.5 -39c32.667 0 63.334 7.33301 92.001 22s55.667 37.334 81 68.001l85 -63c-30.667 -44.667 -70.667 -79.834 -120 -105.501s-101 -38.5 -155 -38.5z" />
    <glyph glyph-name="Ecaron" unicode="&#x11a;" horiz-adv-x="1287" 
d="M256 0v1650h857v-179h-654v-555h630v-178h-630v-559h654v-179h-857zM692 1830l-384 282l78 107l306 -224l306 224l79 -107z" />
    <glyph glyph-name="ecaron" unicode="&#x11b;" horiz-adv-x="1322" 
d="M688 -32c-107.333 0 -203.668 23.666 -289.001 70.999s-152.666 111.833 -201.999 193.5s-74 173.834 -74 276.501c0 76 14 147 42 213s67 124.167 117 174.5s108 89.5 174 117.5s136.667 42 212 42c106.667 0 200.167 -22 280.5 -66s143 -105.333 188 -184
s67.5 -170 67.5 -274c0 -8.66699 -0.333008 -15.667 -1 -21s-2 -12.333 -4 -21h-880c0 -71.333 16.167 -134.333 48.5 -189s77 -97.5 134 -128.5s122.5 -46.5 196.5 -46.5c70 0 132.667 14.333 188 43s103.333 71.334 144 128.001l142 -74
c-48.667 -80.667 -115.5 -143.334 -200.5 -188.001s-179.5 -67 -283.5 -67zM328.998 632.999h680.001c-9.33301 52.667 -29.833 98.834 -61.5 138.501s-71.334 70.667 -119.001 93s-100.167 33.5 -157.5 33.5c-60 0 -114.167 -10.833 -162.5 -32.5s-88 -52.334 -119 -92.001
s-51.167 -86.5 -60.5 -140.5zM667.999 1218l-384 282l78 107l306 -224l306 224l79 -107z" />
    <glyph glyph-name="Gbreve" unicode="&#x11e;" horiz-adv-x="1858" 
d="M962 -32c-114 0 -220.165 21.8311 -318.498 65.498s-184.333 104.5 -258 182.5s-131.167 168.833 -172.5 272.5s-62 215.5 -62 335.5c0 112 18.667 219.333 56 322s91.666 194 162.999 274s158.166 143.333 260.499 190s218.166 70 347.499 70
c81.333 0 159.5 -9.83301 234.5 -29.5s144.833 -47.5 209.5 -83.5s122 -78.667 172 -128l-101 -156c-61.333 66 -137.5 118.5 -228.5 157.5s-186.5 58.5 -286.5 58.5c-96.667 0 -182.667 -17.667 -258 -53s-139 -84 -191 -146s-91.5 -133 -118.5 -213s-40.5 -165 -40.5 -255
c0 -97.333 15.167 -187.166 45.5 -269.499s72.833 -154.166 127.5 -215.499s118.334 -108.833 191.001 -142.5s151 -50.5 235 -50.5c68 0 134.333 11.333 199 34s122.834 55.167 174.501 97.5s92.667 92.833 123 151.5s45.5 124 45.5 196v48h-556v161h764v-178
c0 -112 -21.667 -211.167 -65 -297.5s-101.5 -159 -174.5 -218s-154.333 -103.833 -244 -134.5s-180.834 -46 -273.501 -46zM981.002 1951c-74 0 -140.997 13.833 -200.997 41.5s-109.167 66.5 -147.5 116.5s-63.166 107.667 -74.499 173l143 35c8 -44 24 -83.833 48 -119.5
s55.5 -64.167 94.5 -85.5s84.833 -32 137.5 -32s98.5 10.667 137.5 32s70.667 49.833 95 85.5s40.166 75.5 47.499 119.5l143 -35c-10.667 -65.333 -35.334 -123 -74.001 -173s-87.834 -88.833 -147.501 -116.5s-126.834 -41.5 -201.501 -41.5z" />
    <glyph glyph-name="gbreve" unicode="&#x11f;" 
d="M669 -550c-132 0 -243.331 25.333 -333.998 76s-157.667 124.667 -201 222l161 76c30.667 -63.333 79.667 -113.833 147 -151.5s143 -56.5 227 -56.5c72 0 136.167 14.333 192.5 43s100.666 69.667 132.999 123s48.5 117 48.5 191v219
c-43.333 -70 -100.333 -124.833 -171 -164.5s-148.667 -59.5 -234 -59.5c-94.667 0 -180.334 23.333 -257.001 70s-137.667 111 -183 193s-68 175.667 -68 281c0 104.667 22.333 197.834 67 279.501s105.5 146.167 182.5 193.5s164.5 71 262.5 71
c85.333 0 163.333 -19.333 234 -58s126.334 -92.334 167.001 -161.001v187h194v-1052c0 -109.333 -22.167 -203 -66.5 -281s-108.833 -137.667 -193.5 -179s-187.334 -62 -308.001 -62zM690.002 135c70 0 132.167 16.167 186.5 48.5s96.833 76.833 127.5 133.5
s46 121.334 46 194.001c0 73.333 -15.5 138.5 -46.5 195.5s-73.5 101.667 -127.5 134s-115.667 48.5 -185 48.5s-131 -16.167 -185 -48.5s-96.5 -77 -127.5 -134s-46.5 -122.167 -46.5 -195.5c0 -72.667 15.333 -137.334 46 -194.001s73 -101.167 127 -133.5
s115.667 -48.5 185 -48.5zM699.002 1333c-74 0 -140.997 13.833 -200.997 41.5s-109.167 66.5 -147.5 116.5s-63.166 107.667 -74.499 173l143 35c8 -44 24 -83.833 48 -119.5s55.5 -64.167 94.5 -85.5s84.833 -32 137.5 -32s98.5 10.667 137.5 32s70.667 49.833 95 85.5
s40.166 75.5 47.499 119.5l143 -35c-10.667 -65.333 -35.334 -123 -74.001 -173s-87.834 -88.833 -147.501 -116.5s-126.834 -41.5 -201.501 -41.5z" />
    <glyph glyph-name="Gdotaccent" unicode="&#x120;" horiz-adv-x="1858" 
d="M962 -32c-114 0 -220.165 21.8311 -318.498 65.498s-184.333 104.5 -258 182.5s-131.167 168.833 -172.5 272.5s-62 215.5 -62 335.5c0 112 18.667 219.333 56 322s91.666 194 162.999 274s158.166 143.333 260.499 190s218.166 70 347.499 70
c81.333 0 159.5 -9.83301 234.5 -29.5s144.833 -47.5 209.5 -83.5s122 -78.667 172 -128l-101 -156c-61.333 66 -137.5 118.5 -228.5 157.5s-186.5 58.5 -286.5 58.5c-96.667 0 -182.667 -17.667 -258 -53s-139 -84 -191 -146s-91.5 -133 -118.5 -213s-40.5 -165 -40.5 -255
c0 -97.333 15.167 -187.166 45.5 -269.499s72.833 -154.166 127.5 -215.499s118.334 -108.833 191.001 -142.5s151 -50.5 235 -50.5c68 0 134.333 11.333 199 34s122.834 55.167 174.501 97.5s92.667 92.833 123 151.5s45.5 124 45.5 196v48h-556v161h764v-178
c0 -112 -21.667 -211.167 -65 -297.5s-101.5 -159 -174.5 -218s-154.333 -103.833 -244 -134.5s-180.834 -46 -273.501 -46zM982.002 1992c-22.667 0 -43.167 5.5 -61.5 16.5s-33 25.667 -44 44s-16.5 38.833 -16.5 61.5c0 22 5.5 42.167 16.5 60.5s25.667 33 44 44
s38.833 16.5 61.5 16.5s43 -5.5 61 -16.5s32.5 -25.667 43.5 -44s16.5 -38.5 16.5 -60.5c0 -22.667 -5.5 -43.167 -16.5 -61.5s-25.5 -33 -43.5 -44s-38.333 -16.5 -61 -16.5z" />
    <glyph glyph-name="gdotaccent" unicode="&#x121;" 
d="M669 -550c-132 0 -243.331 25.333 -333.998 76s-157.667 124.667 -201 222l161 76c30.667 -63.333 79.667 -113.833 147 -151.5s143 -56.5 227 -56.5c72 0 136.167 14.333 192.5 43s100.666 69.667 132.999 123s48.5 117 48.5 191v219
c-43.333 -70 -100.333 -124.833 -171 -164.5s-148.667 -59.5 -234 -59.5c-94.667 0 -180.334 23.333 -257.001 70s-137.667 111 -183 193s-68 175.667 -68 281c0 104.667 22.333 197.834 67 279.501s105.5 146.167 182.5 193.5s164.5 71 262.5 71
c85.333 0 163.333 -19.333 234 -58s126.334 -92.334 167.001 -161.001v187h194v-1052c0 -109.333 -22.167 -203 -66.5 -281s-108.833 -137.667 -193.5 -179s-187.334 -62 -308.001 -62zM690.002 135c70 0 132.167 16.167 186.5 48.5s96.833 76.833 127.5 133.5
s46 121.334 46 194.001c0 73.333 -15.5 138.5 -46.5 195.5s-73.5 101.667 -127.5 134s-115.667 48.5 -185 48.5s-131 -16.167 -185 -48.5s-96.5 -77 -127.5 -134s-46.5 -122.167 -46.5 -195.5c0 -72.667 15.333 -137.334 46 -194.001s73 -101.167 127 -133.5
s115.667 -48.5 185 -48.5zM700.002 1374c-22.667 0 -43.167 5.5 -61.5 16.5s-33 25.667 -44 44s-16.5 38.833 -16.5 61.5c0 22 5.5 42.167 16.5 60.5s25.667 33 44 44s38.833 16.5 61.5 16.5s43 -5.5 61 -16.5s32.5 -25.667 43.5 -44s16.5 -38.5 16.5 -60.5
c0 -22.667 -5.5 -43.167 -16.5 -61.5s-25.5 -33 -43.5 -44s-38.333 -16.5 -61 -16.5z" />
    <glyph glyph-name="uni0122" unicode="&#x122;" horiz-adv-x="1858" 
d="M962 -32c-114 0 -220.165 21.8311 -318.498 65.498s-184.333 104.5 -258 182.5s-131.167 168.833 -172.5 272.5s-62 215.5 -62 335.5c0 112 18.667 219.333 56 322s91.666 194 162.999 274s158.166 143.333 260.499 190s218.166 70 347.499 70
c81.333 0 159.5 -9.83301 234.5 -29.5s144.833 -47.5 209.5 -83.5s122 -78.667 172 -128l-101 -156c-61.333 66 -137.5 118.5 -228.5 157.5s-186.5 58.5 -286.5 58.5c-96.667 0 -182.667 -17.667 -258 -53s-139 -84 -191 -146s-91.5 -133 -118.5 -213s-40.5 -165 -40.5 -255
c0 -97.333 15.167 -187.166 45.5 -269.499s72.833 -154.166 127.5 -215.499s118.334 -108.833 191.001 -142.5s151 -50.5 235 -50.5c68 0 134.333 11.333 199 34s122.834 55.167 174.501 97.5s92.667 92.833 123 151.5s45.5 124 45.5 196v48h-556v161h764v-178
c0 -112 -21.667 -211.167 -65 -297.5s-101.5 -159 -174.5 -218s-154.333 -103.833 -244 -134.5s-180.834 -46 -273.501 -46zM966.002 -485.002l-30.001 25.001c15.333 19.333 28.833 44 40.5 74s18.167 61.333 19.5 94c-20.667 3.33301 -38 12.666 -52 27.999
s-21 33.666 -21 54.999c0 24.667 8 45 24 61s37 24 63 24c26.667 0 47.5 -8.66699 62.5 -26s22.5 -43.666 22.5 -78.999c0 -44 -12.167 -90.333 -36.5 -139s-55.166 -87.667 -92.499 -117z" />
    <glyph glyph-name="uni0123" unicode="&#x123;" 
d="M669 -550c-132 0 -243.331 25.333 -333.998 76s-157.667 124.667 -201 222l161 76c30.667 -63.333 79.667 -113.833 147 -151.5s143 -56.5 227 -56.5c72 0 136.167 14.333 192.5 43s100.666 69.667 132.999 123s48.5 117 48.5 191v219
c-43.333 -70 -100.333 -124.833 -171 -164.5s-148.667 -59.5 -234 -59.5c-94.667 0 -180.334 23.333 -257.001 70s-137.667 111 -183 193s-68 175.667 -68 281c0 104.667 22.333 197.834 67 279.501s105.5 146.167 182.5 193.5s164.5 71 262.5 71
c85.333 0 163.333 -19.333 234 -58s126.334 -92.334 167.001 -161.001v187h194v-1052c0 -109.333 -22.167 -203 -66.5 -281s-108.833 -137.667 -193.5 -179s-187.334 -62 -308.001 -62zM690.002 135c70 0 132.167 16.167 186.5 48.5s96.833 76.833 127.5 133.5
s46 121.334 46 194.001c0 73.333 -15.5 138.5 -46.5 195.5s-73.5 101.667 -127.5 134s-115.667 48.5 -185 48.5s-131 -16.167 -185 -48.5s-96.5 -77 -127.5 -134s-46.5 -122.167 -46.5 -195.5c0 -72.667 15.333 -137.334 46 -194.001s73 -101.167 127 -133.5
s115.667 -48.5 185 -48.5zM706.002 1358c-30.667 0 -54.665 8.16699 -71.998 24.5s-26 39.833 -26 70.5c0 39.333 13 80.666 39 123.999s60 79 102 107l48 -25c-16 -16 -30.333 -37.333 -43 -64s-20.334 -54 -23.001 -82c23.333 -2.66699 42.166 -11.167 56.499 -25.5
s21.5 -31.166 21.5 -50.499c0 -22.667 -9.5 -41.5 -28.5 -56.5s-43.833 -22.5 -74.5 -22.5z" />
    <glyph glyph-name="Hbar" unicode="&#x126;" horiz-adv-x="1734" 
d="M256 0v1650h203v-808h816v808h203v-1650h-203v698h-816v-698h-203zM123 1068v143h1498v-143h-1498z" />
    <glyph glyph-name="hbar" unicode="&#x127;" horiz-adv-x="1317" 
d="M205 0l-0.000976562 1721h194v-829c31.333 46.667 76.333 85.667 135 117s128.334 47 209.001 47c79.333 0 148 -16.5 206 -49.5s102.833 -80.5 134.5 -142.5s47.5 -136 47.5 -222v-642h-194v603c0 96 -23 169.833 -69 221.5s-110.667 77.5 -194 77.5
c-57.333 0 -106.5 -11.667 -147.5 -35s-72.5 -54.166 -94.5 -92.499s-33 -80.166 -33 -125.499v-649h-194zM63.999 1292v126h555v-126h-555z" />
    <glyph glyph-name="Imacron" unicode="&#x12a;" horiz-adv-x="715" 
d="M256 0v1650h203v-1650h-203zM-51 1946v135h816v-135h-816z" />
    <glyph glyph-name="imacron" unicode="&#x12b;" horiz-adv-x="604" 
d="M205 0v1024h194v-1024h-194zM-106 1321v135h816v-135h-816z" />
    <glyph glyph-name="Iogonek" unicode="&#x12e;" horiz-adv-x="715" 
d="M256 0v1650h203v-1650h-203zM429 -559c-72.667 0 -132.668 21.999 -180.001 65.999s-71 97 -71 159c0 46 15.5 97.5 46.5 154.5s75.167 116.833 132.5 179.5h102c-49.333 -55.333 -88 -110.666 -116 -165.999s-42 -103 -42 -143c0 -36.667 12.167 -68 36.5 -94
s60.5 -39 108.5 -39c32.667 0 63.334 7.33301 92.001 22s55.667 37.334 81 68.001l85 -63c-30.667 -44.667 -70.667 -79.834 -120 -105.501s-101 -38.5 -155 -38.5z" />
    <glyph glyph-name="iogonek" unicode="&#x12f;" horiz-adv-x="604" 
d="M205 0v1024h194v-1024h-194zM303 1355c-22.667 0 -43.167 5.5 -61.5 16.5s-33 25.667 -44 44s-16.5 38.833 -16.5 61.5c0 22 5.5 42.167 16.5 60.5s25.667 33 44 44s38.833 16.5 61.5 16.5s43 -5.5 61 -16.5s32.5 -25.667 43.5 -44s16.5 -38.5 16.5 -60.5
c0 -22.667 -5.5 -43.167 -16.5 -61.5s-25.5 -33 -43.5 -44s-38.333 -16.5 -61 -16.5zM369 -559c-72.667 0 -132.668 21.999 -180.001 65.999s-71 97 -71 159c0 46 15.5 97.5 46.5 154.5s75.167 116.833 132.5 179.5h102c-49.333 -55.333 -88 -110.666 -116 -165.999
s-42 -103 -42 -143c0 -36.667 12.167 -68 36.5 -94s60.5 -39 108.5 -39c32.667 0 63.334 7.33301 92.001 22s55.667 37.334 81 68.001l85 -63c-30.667 -44.667 -70.667 -79.834 -120 -105.501s-101 -38.5 -155 -38.5z" />
    <glyph glyph-name="Idotaccent" unicode="&#x130;" horiz-adv-x="715" 
d="M256 0v1650h203v-1650h-203zM358 1980c-22.667 0 -43.167 5.5 -61.5 16.5s-33 25.667 -44 44s-16.5 38.833 -16.5 61.5c0 22 5.5 42.167 16.5 60.5s25.667 33 44 44s38.833 16.5 61.5 16.5s43 -5.5 61 -16.5s32.5 -25.667 43.5 -44s16.5 -38.5 16.5 -60.5
c0 -22.667 -5.5 -43.167 -16.5 -61.5s-25.5 -33 -43.5 -44s-38.333 -16.5 -61 -16.5z" />
    <glyph glyph-name="dotlessi" unicode="&#x131;" horiz-adv-x="604" 
d="M205 0v1024h194v-1024h-194z" />
    <glyph glyph-name="uni0136" unicode="&#x136;" horiz-adv-x="1548" 
d="M256 0v1650h203v-736l700 736h253l-772 -810l860 -840h-283l-758 734v-734h-203zM739 -483l-30.001 25.001c15.333 19.333 28.833 44 40.5 74s18.167 61.333 19.5 94c-20.667 3.33301 -38 12.666 -52 27.999s-21 33.666 -21 54.999c0 24.667 8 45 24 61s37 24 63 24
c26.667 0 47.5 -8.66699 62.5 -26s22.5 -43.666 22.5 -78.999c0 -44 -12.167 -90.333 -36.5 -139s-55.166 -87.667 -92.499 -117z" />
    <glyph glyph-name="uni0137" unicode="&#x137;" horiz-adv-x="1160" 
d="M205 0v1720h194v-1102l400 406h252l-477 -488l501 -536h-249l-427 462v-462h-194zM537 -483l-30.001 25.001c15.333 19.333 28.833 44 40.5 74s18.167 61.333 19.5 94c-20.667 3.33301 -38 12.666 -52 27.999s-21 33.666 -21 54.999c0 24.667 8 45 24 61s37 24 63 24
c26.667 0 47.5 -8.66699 62.5 -26s22.5 -43.666 22.5 -78.999c0 -44 -12.167 -90.333 -36.5 -139s-55.166 -87.667 -92.499 -117z" />
    <glyph glyph-name="Lacute" unicode="&#x139;" horiz-adv-x="1211" 
d="M256 0v1650h203v-1471h663v-179h-866zM649 1768l-91 70l216 398l142 -104z" />
    <glyph glyph-name="lacute" unicode="&#x13a;" horiz-adv-x="604" 
d="M205 0v1720h194v-1720h-194zM279 1838l-91 70l216 398l142 -104z" />
    <glyph glyph-name="uni013B" unicode="&#x13b;" horiz-adv-x="1211" 
d="M256 0v1650h203v-1471h663v-179h-866zM618 -483l-30.001 25.001c15.333 19.333 28.833 44 40.5 74s18.167 61.333 19.5 94c-20.667 3.33301 -38 12.666 -52 27.999s-21 33.666 -21 54.999c0 24.667 8 45 24 61s37 24 63 24c26.667 0 47.5 -8.66699 62.5 -26
s22.5 -43.666 22.5 -78.999c0 -44 -12.167 -90.333 -36.5 -139s-55.166 -87.667 -92.499 -117z" />
    <glyph glyph-name="uni013C" unicode="&#x13c;" horiz-adv-x="604" 
d="M205 0v1720h194v-1720h-194zM259 -483l-30.001 25.001c15.333 19.333 28.833 44 40.5 74s18.167 61.333 19.5 94c-20.667 3.33301 -38 12.666 -52 27.999s-21 33.666 -21 54.999c0 24.667 8 45 24 61s37 24 63 24c26.667 0 47.5 -8.66699 62.5 -26
s22.5 -43.666 22.5 -78.999c0 -44 -12.167 -90.333 -36.5 -139s-55.166 -87.667 -92.499 -117z" />
    <glyph glyph-name="Lcaron" unicode="&#x13d;" horiz-adv-x="1211" 
d="M256 0v1650h203v-1471h663v-179h-866zM672 1830l-384 282l78 107l306 -224l306 224l79 -107z" />
    <glyph glyph-name="lcaron" unicode="&#x13e;" horiz-adv-x="604" 
d="M205 0v1720h194v-1720h-194zM302 1900l-384 282l78 107l306 -224l306 224l79 -107z" />
    <glyph glyph-name="Lslash" unicode="&#x141;" horiz-adv-x="1248" 
d="M293 0v685l-160 -126v166l160 126v799h204v-639l213 167v-165l-213 -168v-666h661v-179h-865z" />
    <glyph glyph-name="lslash" unicode="&#x142;" horiz-adv-x="681" 
d="M274 0v761l-174 -136v172l174 136v787h194v-634l173 136v-172l-173 -136v-914h-194z" />
    <glyph glyph-name="Nacute" unicode="&#x143;" horiz-adv-x="1752" 
d="M256 0v1650h203l834 -1307v1307h203v-1650h-203l-834 1306v-1306h-203zM853 1768l-91 70l216 398l142 -104z" />
    <glyph glyph-name="nacute" unicode="&#x144;" horiz-adv-x="1317" 
d="M205 0l-0.000976562 1024h194v-132c31.333 46.667 76.333 85.667 135 117s128.334 47 209.001 47c79.333 0 148 -16.5 206 -49.5s102.833 -80.5 134.5 -142.5s47.5 -136 47.5 -222v-642h-194v603c0 96 -23 169.667 -69 221s-110.667 77 -194 77
c-57.333 0 -106.5 -11.5 -147.5 -34.5s-72.5 -53.667 -94.5 -92s-33 -80.166 -33 -125.499v-649h-194zM658.999 1174l-91 70l216 398l142 -104z" />
    <glyph glyph-name="uni0145" unicode="&#x145;" horiz-adv-x="1752" 
d="M256 0v1650h203l834 -1307v1307h203v-1650h-203l-834 1306v-1306h-203zM833 -483l-30.001 25.001c15.333 19.333 28.833 44 40.5 74s18.167 61.333 19.5 94c-20.667 3.33301 -38 12.666 -52 27.999s-21 33.666 -21 54.999c0 24.667 8 45 24 61s37 24 63 24
c26.667 0 47.5 -8.66699 62.5 -26s22.5 -43.666 22.5 -78.999c0 -44 -12.167 -90.333 -36.5 -139s-55.166 -87.667 -92.499 -117z" />
    <glyph glyph-name="uni0146" unicode="&#x146;" horiz-adv-x="1317" 
d="M205 0l-0.000976562 1024h194v-132c31.333 46.667 76.333 85.667 135 117s128.334 47 209.001 47c79.333 0 148 -16.5 206 -49.5s102.833 -80.5 134.5 -142.5s47.5 -136 47.5 -222v-642h-194v603c0 96 -23 169.667 -69 221s-110.667 77 -194 77
c-57.333 0 -106.5 -11.5 -147.5 -34.5s-72.5 -53.667 -94.5 -92s-33 -80.166 -33 -125.499v-649h-194zM615.999 -483.001l-30.001 25.001c15.333 19.333 28.833 44 40.5 74s18.167 61.333 19.5 94c-20.667 3.33301 -38 12.666 -52 27.999s-21 33.666 -21 54.999
c0 24.667 8 45 24 61s37 24 63 24c26.667 0 47.5 -8.66699 62.5 -26s22.5 -43.666 22.5 -78.999c0 -44 -12.167 -90.333 -36.5 -139s-55.166 -87.667 -92.499 -117z" />
    <glyph glyph-name="Ncaron" unicode="&#x147;" horiz-adv-x="1752" 
d="M256 0v1650h203l834 -1307v1307h203v-1650h-203l-834 1306v-1306h-203zM876 1830l-384 282l78 107l306 -224l306 224l79 -107z" />
    <glyph glyph-name="ncaron" unicode="&#x148;" horiz-adv-x="1317" 
d="M205 0l-0.000976562 1024h194v-132c31.333 46.667 76.333 85.667 135 117s128.334 47 209.001 47c79.333 0 148 -16.5 206 -49.5s102.833 -80.5 134.5 -142.5s47.5 -136 47.5 -222v-642h-194v603c0 96 -23 169.667 -69 221s-110.667 77 -194 77
c-57.333 0 -106.5 -11.5 -147.5 -34.5s-72.5 -53.667 -94.5 -92s-33 -80.166 -33 -125.499v-649h-194zM681.999 1236l-384 282l78 107l306 -224l306 224l79 -107z" />
    <glyph glyph-name="Eng" unicode="&#x14a;" horiz-adv-x="1734" 
d="M1004 -551c-78.667 0 -148.997 12.499 -210.997 37.499s-120 63.833 -174 116.5l75 169c45.333 -45.333 91.666 -78.166 138.999 -98.499s95.666 -30.5 144.999 -30.5c101.333 0 179.166 30 233.499 90s81.5 142.333 81.5 247v20l-834 1306v-1306h-203v1650h203
l834 -1307v1307h203v-1705c0 -156.667 -43.5 -278.5 -130.5 -365.5s-207.5 -130.5 -361.5 -130.5z" />
    <glyph glyph-name="eng" unicode="&#x14b;" horiz-adv-x="1312" 
d="M830 -550c-38.667 0 -76.667 4.83203 -114 14.499s-67.666 22.834 -90.999 39.501l59 156c30.667 -24.667 67.334 -37 110.001 -37c95.333 0 143 64.333 143 193v784c0 55.333 -10.333 105.833 -31 151.5s-50.834 82.167 -90.501 109.5s-88.167 41 -145.5 41
c-48 0 -92.667 -10.167 -134 -30.5s-74.5 -49.5 -99.5 -87.5s-37.5 -83 -37.5 -135v-649h-194v1024h194v-132c31.333 49.333 77.5 89 138.5 119s127.167 45 198.5 45c78 0 146.667 -17.833 206 -53.5s105.666 -84.5 138.999 -146.5s50 -132.333 50 -211v-855
c0 -108 -25.833 -191.667 -77.5 -251s-126.167 -89 -223.5 -89z" />
    <glyph glyph-name="Omacron" unicode="&#x14c;" horiz-adv-x="1962" 
d="M981 -32c-115.333 0 -223.333 22 -324 66s-189 105.167 -265 183.5s-135.5 169.333 -178.5 273s-64.5 214.834 -64.5 333.501c0 119.333 21.5 230.666 64.5 333.999s102.5 194.166 178.5 272.499s164.333 139.5 265 183.5s208.667 66 324 66s223.333 -22 324 -66
s189 -105.167 265 -183.5s135.5 -169.166 178.5 -272.499s64.5 -214.666 64.5 -333.999c0 -118.667 -21.5 -229.834 -64.5 -333.501s-102.5 -194.667 -178.5 -273s-164.333 -139.5 -265 -183.5s-208.667 -66 -324 -66zM981 164c86.667 0 167.167 16.667 241.5 50
s139.333 79.833 195 139.5s99 129.667 130 210s46.5 167.166 46.5 260.499s-15.5 180.166 -46.5 260.499s-74.333 150.333 -130 210s-120.667 106.167 -195 139.5s-154.833 50 -241.5 50s-167.167 -16.667 -241.5 -50s-139.333 -79.833 -195 -139.5s-99 -129.667 -130 -210
s-46.5 -167.166 -46.5 -260.499s15.5 -180.166 46.5 -260.499s74.333 -150.333 130 -210s120.667 -106.167 195 -139.5s154.833 -50 241.5 -50zM573 1958v135h816v-135h-816z" />
    <glyph glyph-name="omacron" unicode="&#x14d;" horiz-adv-x="1401" 
d="M700 -32c-108.667 0 -206.5 23 -293.5 69s-156 110 -207 192s-76.5 176.333 -76.5 283c0 107.333 25.5 201.833 76.5 283.5s120 145.5 207 191.5s184.833 69 293.5 69s206.5 -23 293.5 -69s156 -109.833 207 -191.5s76.5 -176.167 76.5 -283.5
c0 -106.667 -25.5 -201 -76.5 -283s-120 -146 -207 -192s-184.833 -69 -293.5 -69zM701 137c71.333 0 135.333 16 192 48s101.334 76.333 134.001 133s49 121.334 49 194.001c0 73.333 -16.333 138.166 -49 194.499s-77.334 100.5 -134.001 132.5s-120.667 48 -192 48
c-72 0 -136.333 -16 -193 -48s-101.334 -76.167 -134.001 -132.5s-49 -121.166 -49 -194.499c0 -72.667 16.333 -137.334 49 -194.001s77.334 -101 134.001 -133s121 -48 193 -48zM292 1352v135h816v-135h-816z" />
    <glyph glyph-name="Ohungarumlaut" unicode="&#x150;" horiz-adv-x="1962" 
d="M981 -32c-115.333 0 -223.333 22 -324 66s-189 105.167 -265 183.5s-135.5 169.333 -178.5 273s-64.5 214.834 -64.5 333.501c0 119.333 21.5 230.666 64.5 333.999s102.5 194.166 178.5 272.499s164.333 139.5 265 183.5s208.667 66 324 66s223.333 -22 324 -66
s189 -105.167 265 -183.5s135.5 -169.166 178.5 -272.499s64.5 -214.666 64.5 -333.999c0 -118.667 -21.5 -229.834 -64.5 -333.501s-102.5 -194.667 -178.5 -273s-164.333 -139.5 -265 -183.5s-208.667 -66 -324 -66zM981 164c86.667 0 167.167 16.667 241.5 50
s139.333 79.833 195 139.5s99 129.667 130 210s46.5 167.166 46.5 260.499s-15.5 180.166 -46.5 260.499s-74.333 150.333 -130 210s-120.667 106.167 -195 139.5s-154.833 50 -241.5 50s-167.167 -16.667 -241.5 -50s-139.333 -79.833 -195 -139.5s-99 -129.667 -130 -210
s-46.5 -167.166 -46.5 -260.499s15.5 -180.166 46.5 -260.499s74.333 -150.333 130 -210s120.667 -106.167 195 -139.5s154.833 -50 241.5 -50zM1138 1970l-83 93l256 254l132 -139zM739 1970l-83 93l257 254l130 -139z" />
    <glyph glyph-name="ohungarumlaut" unicode="&#x151;" horiz-adv-x="1401" 
d="M700 -32c-108.667 0 -206.5 23 -293.5 69s-156 110 -207 192s-76.5 176.333 -76.5 283c0 107.333 25.5 201.833 76.5 283.5s120 145.5 207 191.5s184.833 69 293.5 69s206.5 -23 293.5 -69s156 -109.833 207 -191.5s76.5 -176.167 76.5 -283.5
c0 -106.667 -25.5 -201 -76.5 -283s-120 -146 -207 -192s-184.833 -69 -293.5 -69zM701 137c71.333 0 135.333 16 192 48s101.334 76.333 134.001 133s49 121.334 49 194.001c0 73.333 -16.333 138.166 -49 194.499s-77.334 100.5 -134.001 132.5s-120.667 48 -192 48
c-72 0 -136.333 -16 -193 -48s-101.334 -76.167 -134.001 -132.5s-49 -121.166 -49 -194.499c0 -72.667 16.333 -137.334 49 -194.001s77.334 -101 134.001 -133s121 -48 193 -48zM857 1364l-83 93l256 254l132 -139zM458 1364l-83 93l257 254l130 -139z" />
    <glyph glyph-name="OE" unicode="&#x152;" horiz-adv-x="2055" 
d="M976 0c-117.333 0 -226.167 20.667 -326.5 62s-188 99.5 -263 174.5s-133.5 163 -175.5 264s-63 210.833 -63 329.5c0 118 21.167 226.833 63.5 326.5s103.166 186.5 182.499 260.5s174.833 131.333 286.5 172s236.834 61 375.501 61h825v-179h-654v-555h630v-178h-630
v-559h654v-179h-905zM1023 182l0.00195312 1286c-94.667 0 -182 -15.667 -262 -47s-149.5 -75.666 -208.5 -132.999s-104.833 -125.166 -137.5 -203.499s-49 -164.833 -49 -259.5c0 -92.667 15.833 -178.167 47.5 -256.5s76.667 -146.333 135 -204
s127.666 -102.5 207.999 -134.5s169.166 -48 266.499 -48z" />
    <glyph glyph-name="oe" unicode="&#x153;" horiz-adv-x="2268" 
d="M694 -32c-108.667 0 -206 23.1641 -292 69.4971s-153.667 110.333 -203 192s-74 175.834 -74 282.501s24.667 200.834 74 282.501s117 145.667 203 192s183.333 69.5 292 69.5c106 0 200.333 -24.333 283 -73s144 -115.667 184 -201c30 55.333 67.833 103.5 113.5 144.5
s97.667 72.833 156 95.5s120.166 34 185.499 34c100.667 0 191.167 -23.333 271.5 -70s144 -110 191 -190s70.833 -170.667 71.5 -272v-12c0 -3.33301 -0.666992 -10.666 -2 -21.999h-882c0 -71.333 16 -134.5 48 -189.5s76.333 -97.833 133 -128.5s122.334 -46 197.001 -46
c70 0 132.667 14.333 188 43s103.333 71.334 144 128.001l142 -74c-50 -80.667 -117.333 -143.334 -202 -188.001s-180 -67 -286 -67c-104.667 0 -197.834 24 -279.501 72s-145.167 114.667 -190.5 200c-39.333 -84 -100.166 -150.333 -182.499 -199
s-176.833 -73 -283.5 -73zM702 134.997c72.667 0 137.5 16.333 194.5 49s101.833 77.334 134.5 134.001s49 121.334 49 194.001s-16.333 137.334 -49 194.001s-77.5 101.334 -134.5 134.001s-121.833 49 -194.5 49s-137.5 -16.333 -194.5 -49
s-101.833 -77.334 -134.5 -134.001s-49 -121.334 -49 -194.001s16.333 -137.334 49 -194.001s77.5 -101.334 134.5 -134.001s121.833 -49 194.5 -49zM1271 602.997h688.998c-6.66699 61.333 -25.667 115.666 -57 162.999s-71.666 84.5 -120.999 111.5
s-104.333 40.5 -165 40.5c-61.333 0 -117.166 -13.667 -167.499 -41s-91.333 -64.666 -123 -111.999s-50.167 -101.333 -55.5 -162z" />
    <glyph glyph-name="Racute" unicode="&#x154;" horiz-adv-x="1431" 
d="M256 0v1650h468c109.333 0 204 -19 284 -57s141.833 -92.5 185.5 -163.5s65.5 -156.167 65.5 -255.5c0 -86.667 -17 -163.667 -51 -231s-82.5 -122.333 -145.5 -165s-138.167 -70.667 -225.5 -84l546 -694h-258l-511 673h-155v-673h-203zM459 846h209.998
c78.667 0 146.334 13 203.001 39s100.334 63.167 131.001 111.5s46 105.833 46 172.5c0 99.333 -33.5 177 -100.5 233s-160.167 84 -279.5 84h-210v-640zM692.998 1768l-91 70l216 398l142 -104z" />
    <glyph glyph-name="racute" unicode="&#x155;" horiz-adv-x="926" 
d="M205 0l-0.000976562 1024h194v-150c34 59.333 77.333 104.5 130 135.5s112.334 46.5 179.001 46.5c32 0 64.5 -3.83301 97.5 -11.5s61.5 -17.834 85.5 -30.501l-80 -164c-20.667 11.333 -44.667 20.333 -72 27s-53 10 -77 10c-44.667 0 -87.167 -11.5 -127.5 -34.5
s-73 -52.833 -98 -89.5s-37.5 -76 -37.5 -118v-645h-194zM477.999 1174l-91 70l216 398l142 -104z" />
    <glyph glyph-name="uni0156" unicode="&#x156;" horiz-adv-x="1431" 
d="M256 0v1650h468c109.333 0 204 -19 284 -57s141.833 -92.5 185.5 -163.5s65.5 -156.167 65.5 -255.5c0 -86.667 -17 -163.667 -51 -231s-82.5 -122.333 -145.5 -165s-138.167 -70.667 -225.5 -84l546 -694h-258l-511 673h-155v-673h-203zM459 846h209.998
c78.667 0 146.334 13 203.001 39s100.334 63.167 131.001 111.5s46 105.833 46 172.5c0 99.333 -33.5 177 -100.5 233s-160.167 84 -279.5 84h-210v-640zM672.998 -483l-30.001 25.001c15.333 19.333 28.833 44 40.5 74s18.167 61.333 19.5 94
c-20.667 3.33301 -38 12.666 -52 27.999s-21 33.666 -21 54.999c0 24.667 8 45 24 61s37 24 63 24c26.667 0 47.5 -8.66699 62.5 -26s22.5 -43.666 22.5 -78.999c0 -44 -12.167 -90.333 -36.5 -139s-55.166 -87.667 -92.499 -117z" />
    <glyph glyph-name="uni0157" unicode="&#x157;" horiz-adv-x="926" 
d="M205 0l-0.000976562 1024h194v-150c34 59.333 77.333 104.5 130 135.5s112.334 46.5 179.001 46.5c32 0 64.5 -3.83301 97.5 -11.5s61.5 -17.834 85.5 -30.501l-80 -164c-20.667 11.333 -44.667 20.333 -72 27s-53 10 -77 10c-44.667 0 -87.167 -11.5 -127.5 -34.5
s-73 -52.833 -98 -89.5s-37.5 -76 -37.5 -118v-645h-194zM432.999 -482.999l-30.001 25.001c15.333 19.333 28.833 44 40.5 74s18.167 61.333 19.5 94c-20.667 3.33301 -38 12.666 -52 27.999s-21 33.666 -21 54.999c0 24.667 8 45 24 61s37 24 63 24
c26.667 0 47.5 -8.66699 62.5 -26s22.5 -43.666 22.5 -78.999c0 -44 -12.167 -90.333 -36.5 -139s-55.166 -87.667 -92.499 -117z" />
    <glyph glyph-name="Rcaron" unicode="&#x158;" horiz-adv-x="1431" 
d="M256 0v1650h468c109.333 0 204 -19 284 -57s141.833 -92.5 185.5 -163.5s65.5 -156.167 65.5 -255.5c0 -86.667 -17 -163.667 -51 -231s-82.5 -122.333 -145.5 -165s-138.167 -70.667 -225.5 -84l546 -694h-258l-511 673h-155v-673h-203zM459 846h209.998
c78.667 0 146.334 13 203.001 39s100.334 63.167 131.001 111.5s46 105.833 46 172.5c0 99.333 -33.5 177 -100.5 233s-160.167 84 -279.5 84h-210v-640zM715.998 1830l-384 282l78 107l306 -224l306 224l79 -107z" />
    <glyph glyph-name="rcaron" unicode="&#x159;" horiz-adv-x="926" 
d="M205 0l-0.000976562 1024h194v-150c34 59.333 77.333 104.5 130 135.5s112.334 46.5 179.001 46.5c32 0 64.5 -3.83301 97.5 -11.5s61.5 -17.834 85.5 -30.501l-80 -164c-20.667 11.333 -44.667 20.333 -72 27s-53 10 -77 10c-44.667 0 -87.167 -11.5 -127.5 -34.5
s-73 -52.833 -98 -89.5s-37.5 -76 -37.5 -118v-645h-194zM500.999 1236l-384 282l78 107l306 -224l306 224l79 -107z" />
    <glyph glyph-name="Sacute" unicode="&#x15a;" horiz-adv-x="1366" 
d="M673 -32c-82.667 0 -156.331 11.5029 -220.998 34.5029s-120.334 51.167 -167.001 84.5s-85 66.166 -115 98.499s-52 57.833 -66 76.5l111 158l62 -72c26 -29.333 58 -58.666 96 -87.999s82.333 -54 133 -74s108 -30 172 -30c60.667 0 115.667 10.667 165 32
s88.833 53 118.5 95s44.5 94 44.5 156c0 52.667 -10.667 97.5 -32 134.5s-51 68.833 -89 95.5s-82.333 51.167 -133 73.5s-105.334 44.833 -164.001 67.5c-41.333 16.667 -83.333 36.167 -126 58.5s-82 49.666 -118 81.999s-65 70.833 -87 115.5s-33 97.334 -33 158.001
c0 61.333 11.667 119.333 35 174s56.333 103.167 99 145.5s93.5 75.666 152.5 99.999s124.5 36.5 196.5 36.5c64 0 124.5 -10 181.5 -30s107.833 -45.5 152.5 -76.5s80.334 -63.5 107.001 -97.5l-95 -149c-22 28.667 -50 55.834 -84 81.501s-73 46.5 -117 62.5
s-91.333 24 -142 24c-62 0 -114.5 -12.833 -157.5 -38.5s-75.833 -58.834 -98.5 -99.501s-34 -84 -34 -130c0 -41.333 8.5 -76.333 25.5 -105s39.833 -53 68.5 -73s61 -37.667 97 -53s73 -30 111 -44c68 -26.667 132.333 -54.167 193 -82.5s114 -61.333 160 -99
s82.167 -82.834 108.5 -135.501s39.5 -116.334 39.5 -191.001c0 -100.667 -23.833 -186.5 -71.5 -257.5s-112.834 -125.167 -195.501 -162.5s-177 -56 -283 -56zM684.003 1786l-91 70l216 398l142 -104z" />
    <glyph glyph-name="sacute" unicode="&#x15b;" horiz-adv-x="1001" 
d="M478 -32c-85.333 0 -160.83 18.501 -226.497 55.501s-117.834 89.833 -156.501 158.5l93 120c35.333 -59.333 78 -105.333 128 -138s103.667 -49 161 -49c37.333 0 71.166 7.33301 101.499 22s54.5 35.834 72.5 63.501s27 60.5 27 98.5
c0 36.667 -9.16699 65.5 -27.5 86.5s-45.333 39.5 -81 55.5s-80.167 34.333 -133.5 55c-42.667 17.333 -84 37 -124 59s-72.833 49.833 -98.5 83.5s-38.5 76.5 -38.5 128.5c0 56 15.167 105.667 45.5 149s72.166 77.333 125.499 102s114 37 182 37c55.333 0 109 -11 161 -33
s101.333 -53.667 148 -95l-78 -118c-69.333 73.333 -146 110 -230 110c-50.667 0 -91.667 -12.833 -123 -38.5s-47 -58.834 -47 -99.501c0 -31.333 11.333 -57.5 34 -78.5s51.667 -39.167 87 -54.5s72 -30.333 110 -45c57.333 -21.333 107.5 -43.333 150.5 -66
s76.5 -51.834 100.5 -87.501s36 -83.5 36 -143.5c0 -70 -16.5 -130.333 -49.5 -181s-79.5 -89.5 -139.5 -116.5s-130 -40.5 -210 -40.5zM481.003 1162l-91 70l216 398l142 -104z" />
    <glyph glyph-name="Scedilla" unicode="&#x15e;" horiz-adv-x="1366" 
d="M673 -32c-82.667 0 -156.331 11.5029 -220.998 34.5029s-120.334 51.167 -167.001 84.5s-85 66.166 -115 98.499s-52 57.833 -66 76.5l111 158l62 -72c26 -29.333 58 -58.666 96 -87.999s82.333 -54 133 -74s108 -30 172 -30c60.667 0 115.667 10.667 165 32
s88.833 53 118.5 95s44.5 94 44.5 156c0 52.667 -10.667 97.5 -32 134.5s-51 68.833 -89 95.5s-82.333 51.167 -133 73.5s-105.334 44.833 -164.001 67.5c-41.333 16.667 -83.333 36.167 -126 58.5s-82 49.666 -118 81.999s-65 70.833 -87 115.5s-33 97.334 -33 158.001
c0 61.333 11.667 119.333 35 174s56.333 103.167 99 145.5s93.5 75.666 152.5 99.999s124.5 36.5 196.5 36.5c64 0 124.5 -10 181.5 -30s107.833 -45.5 152.5 -76.5s80.334 -63.5 107.001 -97.5l-95 -149c-22 28.667 -50 55.834 -84 81.501s-73 46.5 -117 62.5
s-91.333 24 -142 24c-62 0 -114.5 -12.833 -157.5 -38.5s-75.833 -58.834 -98.5 -99.501s-34 -84 -34 -130c0 -41.333 8.5 -76.333 25.5 -105s39.833 -53 68.5 -73s61 -37.667 97 -53s73 -30 111 -44c68 -26.667 132.333 -54.167 193 -82.5s114 -61.333 160 -99
s82.167 -82.834 108.5 -135.501s39.5 -116.334 39.5 -191.001c0 -100.667 -23.833 -186.5 -71.5 -257.5s-112.834 -125.167 -195.501 -162.5s-177 -56 -283 -56zM655.003 -559.997c-55.333 0 -105.832 12.6689 -151.499 38.002s-84.5 61.333 -116.5 108l84 59
c42.667 -66.667 103 -100 181 -100c42 0 75.833 10.5 101.5 31.5s38.5 48.5 38.5 82.5c0 32.667 -12.5 59 -37.5 79s-57.5 30 -97.5 30c-21.333 0 -43.833 -2.83301 -67.5 -8.5s-42.834 -12.834 -57.501 -21.501l-11 8l82 254h95l-52 -161c22 2.66699 41.5 3.16699 58.5 1.5
s32.833 -5.16699 47.5 -10.5c46 -6.66699 83.167 -25.667 111.5 -57s42.5 -70.333 42.5 -117c0 -62.667 -23.5 -114.334 -70.5 -155.001s-107.167 -61 -180.5 -61z" />
    <glyph glyph-name="scedilla" unicode="&#x15f;" horiz-adv-x="1001" 
d="M478 -32c-85.333 0 -160.83 18.501 -226.497 55.501s-117.834 89.833 -156.501 158.5l93 120c35.333 -59.333 78 -105.333 128 -138s103.667 -49 161 -49c37.333 0 71.166 7.33301 101.499 22s54.5 35.834 72.5 63.501s27 60.5 27 98.5
c0 36.667 -9.16699 65.5 -27.5 86.5s-45.333 39.5 -81 55.5s-80.167 34.333 -133.5 55c-42.667 17.333 -84 37 -124 59s-72.833 49.833 -98.5 83.5s-38.5 76.5 -38.5 128.5c0 56 15.167 105.667 45.5 149s72.166 77.333 125.499 102s114 37 182 37c55.333 0 109 -11 161 -33
s101.333 -53.667 148 -95l-78 -118c-69.333 73.333 -146 110 -230 110c-50.667 0 -91.667 -12.833 -123 -38.5s-47 -58.834 -47 -99.501c0 -31.333 11.333 -57.5 34 -78.5s51.667 -39.167 87 -54.5s72 -30.333 110 -45c57.333 -21.333 107.5 -43.333 150.5 -66
s76.5 -51.834 100.5 -87.501s36 -83.5 36 -143.5c0 -70 -16.5 -130.333 -49.5 -181s-79.5 -89.5 -139.5 -116.5s-130 -40.5 -210 -40.5zM500.003 -559.999c-55.333 0 -105.832 12.6689 -151.499 38.002s-84.5 61.333 -116.5 108l84 59c42.667 -66.667 103 -100 181 -100
c42 0 75.833 10.5 101.5 31.5s38.5 48.5 38.5 82.5c0 32.667 -12.5 59 -37.5 79s-57.5 30 -97.5 30c-21.333 0 -43.833 -2.83301 -67.5 -8.5s-42.834 -12.834 -57.501 -21.501l-11 8l82 254h95l-52 -161c22 2.66699 41.5 3.16699 58.5 1.5s32.833 -5.16699 47.5 -10.5
c46 -6.66699 83.167 -25.667 111.5 -57s42.5 -70.333 42.5 -117c0 -62.667 -23.5 -114.334 -70.5 -155.001s-107.167 -61 -180.5 -61z" />
    <glyph glyph-name="Scaron" unicode="&#x160;" horiz-adv-x="1366" 
d="M673 -32c-82.667 0 -156.331 11.5029 -220.998 34.5029s-120.334 51.167 -167.001 84.5s-85 66.166 -115 98.499s-52 57.833 -66 76.5l111 158l62 -72c26 -29.333 58 -58.666 96 -87.999s82.333 -54 133 -74s108 -30 172 -30c60.667 0 115.667 10.667 165 32
s88.833 53 118.5 95s44.5 94 44.5 156c0 52.667 -10.667 97.5 -32 134.5s-51 68.833 -89 95.5s-82.333 51.167 -133 73.5s-105.334 44.833 -164.001 67.5c-41.333 16.667 -83.333 36.167 -126 58.5s-82 49.666 -118 81.999s-65 70.833 -87 115.5s-33 97.334 -33 158.001
c0 61.333 11.667 119.333 35 174s56.333 103.167 99 145.5s93.5 75.666 152.5 99.999s124.5 36.5 196.5 36.5c64 0 124.5 -10 181.5 -30s107.833 -45.5 152.5 -76.5s80.334 -63.5 107.001 -97.5l-95 -149c-22 28.667 -50 55.834 -84 81.501s-73 46.5 -117 62.5
s-91.333 24 -142 24c-62 0 -114.5 -12.833 -157.5 -38.5s-75.833 -58.834 -98.5 -99.501s-34 -84 -34 -130c0 -41.333 8.5 -76.333 25.5 -105s39.833 -53 68.5 -73s61 -37.667 97 -53s73 -30 111 -44c68 -26.667 132.333 -54.167 193 -82.5s114 -61.333 160 -99
s82.167 -82.834 108.5 -135.501s39.5 -116.334 39.5 -191.001c0 -100.667 -23.833 -186.5 -71.5 -257.5s-112.834 -125.167 -195.501 -162.5s-177 -56 -283 -56zM707.003 1848l-384 282l78 107l306 -224l306 224l79 -107z" />
    <glyph glyph-name="scaron" unicode="&#x161;" horiz-adv-x="1001" 
d="M478 -32c-85.333 0 -160.83 18.501 -226.497 55.501s-117.834 89.833 -156.501 158.5l93 120c35.333 -59.333 78 -105.333 128 -138s103.667 -49 161 -49c37.333 0 71.166 7.33301 101.499 22s54.5 35.834 72.5 63.501s27 60.5 27 98.5
c0 36.667 -9.16699 65.5 -27.5 86.5s-45.333 39.5 -81 55.5s-80.167 34.333 -133.5 55c-42.667 17.333 -84 37 -124 59s-72.833 49.833 -98.5 83.5s-38.5 76.5 -38.5 128.5c0 56 15.167 105.667 45.5 149s72.166 77.333 125.499 102s114 37 182 37c55.333 0 109 -11 161 -33
s101.333 -53.667 148 -95l-78 -118c-69.333 73.333 -146 110 -230 110c-50.667 0 -91.667 -12.833 -123 -38.5s-47 -58.834 -47 -99.501c0 -31.333 11.333 -57.5 34 -78.5s51.667 -39.167 87 -54.5s72 -30.333 110 -45c57.333 -21.333 107.5 -43.333 150.5 -66
s76.5 -51.834 100.5 -87.501s36 -83.5 36 -143.5c0 -70 -16.5 -130.333 -49.5 -181s-79.5 -89.5 -139.5 -116.5s-130 -40.5 -210 -40.5zM504.003 1224l-384 282l78 107l306 -224l306 224l79 -107z" />
    <glyph glyph-name="uni0162" unicode="&#x162;" horiz-adv-x="1339" 
d="M568 0v1468h-478v182h1160v-182h-479v-1468h-203zM651 -560c-55.333 0 -105.832 12.6689 -151.499 38.002s-84.5 61.333 -116.5 108l84 59c42.667 -66.667 103 -100 181 -100c42 0 75.833 10.5 101.5 31.5s38.5 48.5 38.5 82.5c0 32.667 -12.5 59 -37.5 79
s-57.5 30 -97.5 30c-21.333 0 -43.833 -2.83301 -67.5 -8.5s-42.834 -12.834 -57.501 -21.501l-11 8l82 254h95l-52 -161c22 2.66699 41.5 3.16699 58.5 1.5s32.833 -5.16699 47.5 -10.5c46 -6.66699 83.167 -25.667 111.5 -57s42.5 -70.333 42.5 -117
c0 -62.667 -23.5 -114.334 -70.5 -155.001s-107.167 -61 -180.5 -61z" />
    <glyph glyph-name="uni0163" unicode="&#x163;" horiz-adv-x="780" 
d="M489 -32c-84 0 -149.332 27.832 -195.999 83.499s-70 133.834 -70 234.501v591h-114v147h114v383h194v-383h246v-147h-246v-579c0 -50.667 10 -89.667 30 -117s48.667 -41 86 -41s70.666 11 99.999 33l49 -155c-26 -15.333 -56.167 -27.5 -90.5 -36.5
s-68.5 -13.5 -102.5 -13.5zM449.001 -560.001c-55.333 0 -105.832 12.6689 -151.499 38.002s-84.5 61.333 -116.5 108l84 59c42.667 -66.667 103 -100 181 -100c42 0 75.833 10.5 101.5 31.5s38.5 48.5 38.5 82.5c0 32.667 -12.5 59 -37.5 79s-57.5 30 -97.5 30
c-21.333 0 -43.833 -2.83301 -67.5 -8.5s-42.834 -12.834 -57.501 -21.501l-11 8l82 254h95l-52 -161c22 2.66699 41.5 3.16699 58.5 1.5s32.833 -5.16699 47.5 -10.5c46 -6.66699 83.167 -25.667 111.5 -57s42.5 -70.333 42.5 -117
c0 -62.667 -23.5 -114.334 -70.5 -155.001s-107.167 -61 -180.5 -61z" />
    <glyph glyph-name="Tcaron" unicode="&#x164;" horiz-adv-x="1339" 
d="M568 0v1468h-478v182h1160v-182h-479v-1468h-203zM670 1830l-384 282l78 107l306 -224l306 224l79 -107z" />
    <glyph glyph-name="tcaron" unicode="&#x165;" horiz-adv-x="780" 
d="M489 -32c-84 0 -149.332 27.832 -195.999 83.499s-70 133.834 -70 234.501v591h-114v147h114v383h194v-383h246v-147h-246v-579c0 -50.667 10 -89.667 30 -117s48.667 -41 86 -41s70.666 11 99.999 33l49 -155c-26 -15.333 -56.167 -27.5 -90.5 -36.5
s-68.5 -13.5 -102.5 -13.5zM409.001 1455l-384 282l78 107l306 -224l306 224l79 -107z" />
    <glyph glyph-name="Tbar" unicode="&#x166;" horiz-adv-x="1339" 
d="M568 0v1468h-478v182h1160v-182h-479v-1468h-203zM296 914v143h748v-143h-748z" />
    <glyph glyph-name="tbar" unicode="&#x167;" horiz-adv-x="780" 
d="M489 -32c-84 0 -149.332 27.832 -195.999 83.499s-70 133.834 -70 234.501v429h-114v109h114v130h-114v108h114v345h194v-345h246v-108h-246v-130h246v-109h-246v-417c0 -50.667 10 -89.667 30 -117s48.667 -41 86 -41s70.666 11 99.999 33l49 -155
c-26 -15.333 -56.167 -27.5 -90.5 -36.5s-68.5 -13.5 -102.5 -13.5z" />
    <glyph glyph-name="Umacron" unicode="&#x16a;" horiz-adv-x="1638" 
d="M819 -32c-194.667 0 -341.333 52 -440 156s-148 259 -148 465v1061h203v-1010c0 -160.667 31.5 -279.5 94.5 -356.5s159.833 -115.5 290.5 -115.5s227.5 38.5 290.5 115.5s94.5 195.833 94.5 356.5v1010h204v-1061c0 -206 -49.333 -361 -148 -465
s-245.667 -156 -441 -156zM412.001 1946v135h816v-135h-816z" />
    <glyph glyph-name="umacron" unicode="&#x16b;" horiz-adv-x="1291" 
d="M645 -32c-164.667 0 -282.669 35.5 -354.002 106.5s-107 189.167 -107 354.5v595h194v-555c0 -122.667 20.333 -210 61 -262s109.334 -78 206.001 -78c97.333 0 166.333 26 207 78s61 139.333 61 262v555h194v-595c0 -165.333 -35.667 -283.5 -107 -354.5
s-189.666 -106.5 -354.999 -106.5zM237.998 1321v135h816v-135h-816z" />
    <glyph glyph-name="Uring" unicode="&#x16e;" horiz-adv-x="1638" 
d="M819 -32c-194.667 0 -341.333 52 -440 156s-148 259 -148 465v1061h203v-1010c0 -160.667 31.5 -279.5 94.5 -356.5s159.833 -115.5 290.5 -115.5s227.5 38.5 290.5 115.5s94.5 195.833 94.5 356.5v1010h204v-1061c0 -206 -49.333 -361 -148 -465
s-245.667 -156 -441 -156zM820.001 1866c-46.667 0 -89.167 9.5 -127.5 28.5s-68.833 45.5 -91.5 79.5s-34 72.667 -34 116v0c0 43.333 11.333 81.833 34 115.5s53.167 60 91.5 79s80.833 28.5 127.5 28.5c47.333 0 90 -9.5 128 -28.5s68.333 -45.333 91 -79
s34 -72.167 34 -115.5s-11.333 -82 -34 -116s-53 -60.5 -91 -79.5s-80.667 -28.5 -128 -28.5zM820.001 1968c37.333 0 68.833 11.668 94.5 35.001s38.5 52.333 38.5 86.999c0 34.667 -12.833 63.5 -38.5 86.5s-57.167 34.5 -94.5 34.5c-36.667 0 -68 -11.5 -94 -34.5
s-39 -51.833 -39 -86.5v0c0 -34.667 13 -63.667 39 -87s57.333 -35 94 -35z" />
    <glyph glyph-name="uring" unicode="&#x16f;" horiz-adv-x="1291" 
d="M645 -32c-164.667 0 -282.669 35.5 -354.002 106.5s-107 189.167 -107 354.5v595h194v-555c0 -122.667 20.333 -210 61 -262s109.334 -78 206.001 -78c97.333 0 166.333 26 207 78s61 139.333 61 262v555h194v-595c0 -165.333 -35.667 -283.5 -107 -354.5
s-189.666 -106.5 -354.999 -106.5zM645.998 1241c-46.667 0 -89.167 9.5 -127.5 28.5s-68.833 45.5 -91.5 79.5s-34 72.667 -34 116v0c0 43.333 11.333 81.833 34 115.5s53.167 60 91.5 79s80.833 28.5 127.5 28.5c47.333 0 90 -9.5 128 -28.5s68.333 -45.333 91 -79
s34 -72.167 34 -115.5s-11.333 -82 -34 -116s-53 -60.5 -91 -79.5s-80.667 -28.5 -128 -28.5zM645.998 1343c37.333 0 68.833 11.667 94.5 35s38.5 52.333 38.5 87s-12.833 63.5 -38.5 86.5s-57.167 34.5 -94.5 34.5c-36.667 0 -68 -11.5 -94 -34.5s-39 -51.833 -39 -86.5v0
c0 -34.667 13 -63.667 39 -87s57.333 -35 94 -35z" />
    <glyph glyph-name="Uhungarumlaut" unicode="&#x170;" horiz-adv-x="1638" 
d="M819 -32c-194.667 0 -341.333 52 -440 156s-148 259 -148 465v1061h203v-1010c0 -160.667 31.5 -279.5 94.5 -356.5s159.833 -115.5 290.5 -115.5s227.5 38.5 290.5 115.5s94.5 195.833 94.5 356.5v1010h204v-1061c0 -206 -49.333 -361 -148 -465
s-245.667 -156 -441 -156zM977.001 1958l-83 93l256 254l132 -139zM578.001 1958l-83 93l257 254l130 -139z" />
    <glyph glyph-name="uhungarumlaut" unicode="&#x171;" horiz-adv-x="1291" 
d="M645 -32c-164.667 0 -282.669 35.5 -354.002 106.5s-107 189.167 -107 354.5v595h194v-555c0 -122.667 20.333 -210 61 -262s109.334 -78 206.001 -78c97.333 0 166.333 26 207 78s61 139.333 61 262v555h194v-595c0 -165.333 -35.667 -283.5 -107 -354.5
s-189.666 -106.5 -354.999 -106.5zM802.998 1333l-83 93l256 254l132 -139zM403.998 1333l-83 93l257 254l130 -139z" />
    <glyph glyph-name="Uogonek" unicode="&#x172;" horiz-adv-x="1638" 
d="M819 -32c-194.667 0 -341.333 52 -440 156s-148 259 -148 465v1061h203v-1010c0 -160.667 31.5 -279.5 94.5 -356.5s159.833 -115.5 290.5 -115.5s227.5 38.5 290.5 115.5s94.5 195.833 94.5 356.5v1010h204v-1061c0 -206 -49.333 -361 -148 -465
s-245.667 -156 -441 -156zM861.001 -555c-72.667 0 -132.668 21.999 -180.001 65.999s-71 97 -71 159c0 46 15.5 97.5 46.5 154.5s75.167 116.833 132.5 179.5h102c-49.333 -55.333 -88 -110.666 -116 -165.999s-42 -103 -42 -143c0 -36.667 12.167 -68 36.5 -94
s60.5 -39 108.5 -39c32.667 0 63.334 7.33301 92.001 22s55.667 37.334 81 68.001l85 -63c-30.667 -44.667 -70.667 -79.834 -120 -105.501s-101 -38.5 -155 -38.5z" />
    <glyph glyph-name="uogonek" unicode="&#x173;" horiz-adv-x="1291" 
d="M645 -32c-164.667 0 -282.669 35.5 -354.002 106.5s-107 189.167 -107 354.5v595h194v-555c0 -122.667 20.333 -210 61 -262s109.334 -78 206.001 -78c97.333 0 166.333 26 207 78s61 139.333 61 262v555h194v-595c0 -165.333 -35.667 -283.5 -107 -354.5
s-189.666 -106.5 -354.999 -106.5zM685.998 -548c-72.667 0 -132.668 21.999 -180.001 65.999s-71 97 -71 159c0 46 15.5 97.5 46.5 154.5s75.167 116.833 132.5 179.5h102c-49.333 -55.333 -88 -110.666 -116 -165.999s-42 -103 -42 -143c0 -36.667 12.167 -68 36.5 -94
s60.5 -39 108.5 -39c32.667 0 63.334 7.33301 92.001 22s55.667 37.334 81 68.001l85 -63c-30.667 -44.667 -70.667 -79.834 -120 -105.501s-101 -38.5 -155 -38.5z" />
    <glyph glyph-name="Wcircumflex" unicode="&#x174;" horiz-adv-x="2455" 
d="M583 0l-486 1650h226l383 -1379l444 1379h155l445 -1379l382 1379h226l-486 -1650h-227l-417 1254l-417 -1254h-228zM922 1917l-78 106l384 282l385 -282l-79 -106l-306 224z" />
    <glyph glyph-name="wcircumflex" unicode="&#x175;" horiz-adv-x="1961" 
d="M550 0l-509 1024h222l346 -755l306 755h131l305 -755l347 755h222l-509 -1024h-130l-301 736l-301 -736h-129zM674 1292l-78 106l384 282l385 -282l-79 -106l-306 224z" />
    <glyph glyph-name="Ycircumflex" unicode="&#x176;" horiz-adv-x="1491" 
d="M644 0v721l-577 929h245l433 -717l434 717h245l-577 -929v-721h-203zM439 1917l-78 106l384 282l385 -282l-79 -106l-306 224z" />
    <glyph glyph-name="ycircumflex" unicode="&#x177;" horiz-adv-x="1241" 
d="M251 -520l275 576l-487 968h221l378 -775l339 775h221l-727 -1544h-220zM315 1292l-78 106l384 282l385 -282l-79 -106l-306 224z" />
    <glyph glyph-name="Ydieresis" unicode="&#x178;" horiz-adv-x="1491" 
d="M644 0v721l-577 929h245l433 -717l434 717h245l-577 -929v-721h-203zM981 1912c-30.667 0 -56.834 10.834 -78.501 32.501s-32.5 47.834 -32.5 78.501s10.833 56.834 32.5 78.5c21.667 21.667 47.834 32.5 78.501 32.5s56.834 -10.833 78.501 -32.5
s32.5 -47.834 32.5 -78.501s-10.833 -56.834 -32.5 -78.501s-47.834 -32.5 -78.501 -32.5zM509 1912c-30.667 0 -56.834 10.833 -78.501 32.5s-32.5 47.834 -32.5 78.501s10.833 56.834 32.5 78.5c21.667 21.667 47.834 32.5 78.501 32.5s56.834 -10.833 78.501 -32.5
s32.5 -47.834 32.5 -78.5c0 -30.667 -10.833 -56.834 -32.5 -78.501s-47.834 -32.5 -78.501 -32.5z" />
    <glyph glyph-name="Zacute" unicode="&#x179;" horiz-adv-x="1573" 
d="M90 0l1018 1468h-904v182h1267l-1018 -1468h964v-182h-1327zM764 1768l-91 70l216 398l142 -104z" />
    <glyph glyph-name="zacute" unicode="&#x17a;" horiz-adv-x="1195" 
d="M69 0l700 870h-621v154h962l-701 -870h675v-154h-1015zM574 1143l-91 70l216 398l142 -104z" />
    <glyph glyph-name="Zdotaccent" unicode="&#x17b;" horiz-adv-x="1573" 
d="M90 0l1018 1468h-904v182h1267l-1018 -1468h964v-182h-1327zM788 1980c-22.667 0 -43.167 5.5 -61.5 16.5s-33 25.667 -44 44s-16.5 38.833 -16.5 61.5c0 22 5.5 42.167 16.5 60.5s25.667 33 44 44s38.833 16.5 61.5 16.5s43 -5.5 61 -16.5s32.5 -25.667 43.5 -44
s16.5 -38.5 16.5 -60.5c0 -22.667 -5.5 -43.167 -16.5 -61.5s-25.5 -33 -43.5 -44s-38.333 -16.5 -61 -16.5z" />
    <glyph glyph-name="zdotaccent" unicode="&#x17c;" horiz-adv-x="1195" 
d="M69 0l700 870h-621v154h962l-701 -870h675v-154h-1015zM598 1355c-22.667 0 -43.167 5.5 -61.5 16.5s-33 25.667 -44 44s-16.5 38.833 -16.5 61.5c0 22 5.5 42.167 16.5 60.5s25.667 33 44 44s38.833 16.5 61.5 16.5s43 -5.5 61 -16.5s32.5 -25.667 43.5 -44
s16.5 -38.5 16.5 -60.5c0 -22.667 -5.5 -43.167 -16.5 -61.5s-25.5 -33 -43.5 -44s-38.333 -16.5 -61 -16.5z" />
    <glyph glyph-name="Zcaron" unicode="&#x17d;" horiz-adv-x="1573" 
d="M90 0l1018 1468h-904v182h1267l-1018 -1468h964v-182h-1327zM787 1830l-384 282l78 107l306 -224l306 224l79 -107z" />
    <glyph glyph-name="zcaron" unicode="&#x17e;" horiz-adv-x="1195" 
d="M69 0l700 870h-621v154h962l-701 -870h675v-154h-1015zM597 1205l-384 282l78 107l306 -224l306 224l79 -107z" />
    <glyph glyph-name="florin" unicode="&#x192;" horiz-adv-x="959" 
d="M102 -551c-40.667 0 -79.1689 5.83301 -115.502 17.5s-67.166 28.167 -92.499 49.5l80 138c26.667 -22.667 63.334 -34 110.001 -34c51.333 0 91.333 18 120 54s46.334 91.667 53.001 167l104 1036h-114l14 147h113l34 333c8 83.333 27 154.333 57 213
s69.667 103.334 119 134.001s107 46 173 46c41.333 0 80 -5.83301 116 -17.5s66.667 -28.167 92 -49.5l-80 -138c-28 22.667 -64.667 34 -110 34c-50.667 0 -90.334 -18 -119.001 -54s-46.667 -91.667 -54 -167l-34 -334h255l-13 -147h-255l-104 -1035
c-8 -83.333 -27 -154.333 -57 -213s-69.667 -103.334 -119 -134.001s-107 -46 -173 -46z" />
    <glyph glyph-name="uni0218" unicode="&#x218;" horiz-adv-x="1366" 
d="M673 -32c-82.667 0 -156.331 11.5029 -220.998 34.5029s-120.334 51.167 -167.001 84.5s-85 66.166 -115 98.499s-52 57.833 -66 76.5l111 158l62 -72c26 -29.333 58 -58.666 96 -87.999s82.333 -54 133 -74s108 -30 172 -30c60.667 0 115.667 10.667 165 32
s88.833 53 118.5 95s44.5 94 44.5 156c0 52.667 -10.667 97.5 -32 134.5s-51 68.833 -89 95.5s-82.333 51.167 -133 73.5s-105.334 44.833 -164.001 67.5c-41.333 16.667 -83.333 36.167 -126 58.5s-82 49.666 -118 81.999s-65 70.833 -87 115.5s-33 97.334 -33 158.001
c0 61.333 11.667 119.333 35 174s56.333 103.167 99 145.5s93.5 75.666 152.5 99.999s124.5 36.5 196.5 36.5c64 0 124.5 -10 181.5 -30s107.833 -45.5 152.5 -76.5s80.334 -63.5 107.001 -97.5l-95 -149c-22 28.667 -50 55.834 -84 81.501s-73 46.5 -117 62.5
s-91.333 24 -142 24c-62 0 -114.5 -12.833 -157.5 -38.5s-75.833 -58.834 -98.5 -99.501s-34 -84 -34 -130c0 -41.333 8.5 -76.333 25.5 -105s39.833 -53 68.5 -73s61 -37.667 97 -53s73 -30 111 -44c68 -26.667 132.333 -54.167 193 -82.5s114 -61.333 160 -99
s82.167 -82.834 108.5 -135.501s39.5 -116.334 39.5 -191.001c0 -100.667 -23.833 -186.5 -71.5 -257.5s-112.834 -125.167 -195.501 -162.5s-177 -56 -283 -56zM655.003 -482.997l-30.001 25.001c15.333 19.333 28.833 44 40.5 74s18.167 61.333 19.5 94
c-20.667 3.33301 -38 12.666 -52 27.999s-21 33.666 -21 54.999c0 24.667 8 45 24 61s37 24 63 24c26.667 0 47.5 -8.66699 62.5 -26s22.5 -43.666 22.5 -78.999c0 -44 -12.167 -90.333 -36.5 -139s-55.166 -87.667 -92.499 -117z" />
    <glyph glyph-name="uni0219" unicode="&#x219;" horiz-adv-x="1001" 
d="M478 -32c-85.333 0 -160.83 18.501 -226.497 55.501s-117.834 89.833 -156.501 158.5l93 120c35.333 -59.333 78 -105.333 128 -138s103.667 -49 161 -49c37.333 0 71.166 7.33301 101.499 22s54.5 35.834 72.5 63.501s27 60.5 27 98.5
c0 36.667 -9.16699 65.5 -27.5 86.5s-45.333 39.5 -81 55.5s-80.167 34.333 -133.5 55c-42.667 17.333 -84 37 -124 59s-72.833 49.833 -98.5 83.5s-38.5 76.5 -38.5 128.5c0 56 15.167 105.667 45.5 149s72.166 77.333 125.499 102s114 37 182 37c55.333 0 109 -11 161 -33
s101.333 -53.667 148 -95l-78 -118c-69.333 73.333 -146 110 -230 110c-50.667 0 -91.667 -12.833 -123 -38.5s-47 -58.834 -47 -99.501c0 -31.333 11.333 -57.5 34 -78.5s51.667 -39.167 87 -54.5s72 -30.333 110 -45c57.333 -21.333 107.5 -43.333 150.5 -66
s76.5 -51.834 100.5 -87.501s36 -83.5 36 -143.5c0 -70 -16.5 -130.333 -49.5 -181s-79.5 -89.5 -139.5 -116.5s-130 -40.5 -210 -40.5zM500.003 -482.999l-30.001 25.001c15.333 19.333 28.833 44 40.5 74s18.167 61.333 19.5 94c-20.667 3.33301 -38 12.666 -52 27.999
s-21 33.666 -21 54.999c0 24.667 8 45 24 61s37 24 63 24c26.667 0 47.5 -8.66699 62.5 -26s22.5 -43.666 22.5 -78.999c0 -44 -12.167 -90.333 -36.5 -139s-55.166 -87.667 -92.499 -117z" />
    <glyph glyph-name="uni021A" unicode="&#x21a;" horiz-adv-x="1339" 
d="M568 0v1468h-478v182h1160v-182h-479v-1468h-203zM651 -483l-30.001 25.001c15.333 19.333 28.833 44 40.5 74s18.167 61.333 19.5 94c-20.667 3.33301 -38 12.666 -52 27.999s-21 33.666 -21 54.999c0 24.667 8 45 24 61s37 24 63 24c26.667 0 47.5 -8.66699 62.5 -26
s22.5 -43.666 22.5 -78.999c0 -44 -12.167 -90.333 -36.5 -139s-55.166 -87.667 -92.499 -117z" />
    <glyph glyph-name="uni021B" unicode="&#x21b;" horiz-adv-x="780" 
d="M489 -32c-84 0 -149.332 27.832 -195.999 83.499s-70 133.834 -70 234.501v591h-114v147h114v383h194v-383h246v-147h-246v-579c0 -50.667 10 -89.667 30 -117s48.667 -41 86 -41s70.666 11 99.999 33l49 -155c-26 -15.333 -56.167 -27.5 -90.5 -36.5
s-68.5 -13.5 -102.5 -13.5zM449.001 -483.001l-30.001 25.001c15.333 19.333 28.833 44 40.5 74s18.167 61.333 19.5 94c-20.667 3.33301 -38 12.666 -52 27.999s-21 33.666 -21 54.999c0 24.667 8 45 24 61s37 24 63 24c26.667 0 47.5 -8.66699 62.5 -26
s22.5 -43.666 22.5 -78.999c0 -44 -12.167 -90.333 -36.5 -139s-55.166 -87.667 -92.499 -117z" />
    <glyph glyph-name="circumflex" unicode="&#x2c6;" horiz-adv-x="769" 
d="M78 1292l-78 106l384 282l385 -282l-79 -106l-306 224z" />
    <glyph glyph-name="caron" unicode="&#x2c7;" horiz-adv-x="769" 
d="M384 1205l-384 282l78 107l306 -224l306 224l79 -107z" />
    <glyph glyph-name="breve" unicode="&#x2d8;" horiz-adv-x="846" 
d="M423 1314c-74 0 -140.997 13.833 -200.997 41.5s-109.167 66.5 -147.5 116.5s-63.166 107.667 -74.499 173l143 35c8 -44 24 -83.833 48 -119.5s55.5 -64.167 94.5 -85.5s84.833 -32 137.5 -32s98.5 10.667 137.5 32s70.667 49.833 95 85.5s40.166 75.5 47.499 119.5
l143 -35c-10.667 -65.333 -35.334 -123 -74.001 -173s-87.834 -88.833 -147.501 -116.5s-126.834 -41.5 -201.501 -41.5z" />
    <glyph glyph-name="dotaccent" unicode="&#x2d9;" horiz-adv-x="243" 
d="M122 1355c-22.667 0 -43.167 5.5 -61.5 16.5s-33 25.667 -44 44s-16.5 38.833 -16.5 61.5c0 22 5.5 42.167 16.5 60.5s25.667 33 44 44s38.833 16.5 61.5 16.5s43 -5.5 61 -16.5s32.5 -25.667 43.5 -44s16.5 -38.5 16.5 -60.5c0 -22.667 -5.5 -43.167 -16.5 -61.5
s-25.5 -33 -43.5 -44s-38.333 -16.5 -61 -16.5z" />
    <glyph glyph-name="ring" unicode="&#x2da;" horiz-adv-x="506" 
d="M253 1241c-46.667 0 -89.167 9.5 -127.5 28.5s-68.833 45.5 -91.5 79.5s-34 72.667 -34 116v0c-0 43.333 11.333 81.833 34 115.5s53.167 60 91.5 79s80.833 28.5 127.5 28.5c47.333 0 90 -9.5 128 -28.5s68.333 -45.333 91 -79s34 -72.167 34 -115.5
s-11.333 -82 -34 -116s-53 -60.5 -91 -79.5s-80.667 -28.5 -128 -28.5zM253 1343c37.333 0 68.833 11.667 94.5 35s38.5 52.333 38.5 87s-12.833 63.5 -38.5 86.5s-57.167 34.5 -94.5 34.5c-36.667 0 -68 -11.5 -94 -34.5s-39 -51.833 -39 -86.5v0
c0 -34.667 13 -63.667 39 -87s57.333 -35 94 -35z" />
    <glyph glyph-name="ogonek" unicode="&#x2db;" horiz-adv-x="526" 
d="M251 -538c-72.667 0 -132.668 21.999 -180.001 65.999s-71 97 -71 159c0 46 15.5 97.5 46.5 154.5s75.167 116.833 132.5 179.5h102c-49.333 -55.333 -88 -110.666 -116 -165.999s-42 -103 -42 -143c0 -36.667 12.167 -68 36.5 -94s60.5 -39 108.5 -39
c32.667 0 63.334 7.33301 92.001 22s55.667 37.334 81 68.001l85 -63c-30.667 -44.667 -70.667 -79.834 -120 -105.501s-101 -38.5 -155 -38.5z" />
    <glyph glyph-name="tilde" unicode="&#x2dc;" horiz-adv-x="1046" 
d="M712 1239c-40.667 0 -77.6631 8.16504 -110.996 24.498s-65.333 35.166 -96 56.499s-61.834 40.166 -93.501 56.499s-66.5 24.5 -104.5 24.5c-50.667 0 -92.834 -15.667 -126.501 -47s-59.834 -66.666 -78.501 -105.999l-102 90c32 59.333 74.333 109.5 127 150.5
s111.667 61.5 177 61.5c44 0 84.167 -8.16699 120.5 -24.5s70.666 -35.166 102.999 -56.499s64.166 -40.166 95.499 -56.499s63.333 -24.5 96 -24.5c41.333 0 79.833 14.333 115.5 43s63.834 65.334 84.501 110.001l101 -90c-22.667 -42.667 -51 -80 -85 -112
s-70.333 -56.667 -109 -74s-76.667 -26 -114 -26z" />
    <glyph glyph-name="hungarumlaut" unicode="&#x2dd;" horiz-adv-x="814" 
d="M482 1333l-83 93l256 254l132 -139zM83 1333l-83 93l257 254l130 -139z" />
    <glyph glyph-name="gravecomb" unicode="&#x300;" horiz-adv-x="0" 
d="M266 1143l-266 364l142 104l216 -398z" />
    <glyph glyph-name="acutecomb" unicode="&#x301;" horiz-adv-x="0" 
d="M91 1143l-91 70l216 398l142 -104z" />
    <glyph glyph-name="uni0302" unicode="&#x302;" horiz-adv-x="0" 
d="M78 1292l-78 106l384 282l385 -282l-79 -106l-306 224z" />
    <glyph glyph-name="tildecomb" unicode="&#x303;" horiz-adv-x="0" 
d="M712 1239c-40.667 0 -77.6631 8.16504 -110.996 24.498s-65.333 35.166 -96 56.499s-61.834 40.166 -93.501 56.499s-66.5 24.5 -104.5 24.5c-50.667 0 -92.834 -15.667 -126.501 -47s-59.834 -66.666 -78.501 -105.999l-102 90c32 59.333 74.333 109.5 127 150.5
s111.667 61.5 177 61.5c44 0 84.167 -8.16699 120.5 -24.5s70.666 -35.166 102.999 -56.499s64.166 -40.166 95.499 -56.499s63.333 -24.5 96 -24.5c41.333 0 79.833 14.333 115.5 43s63.834 65.334 84.501 110.001l101 -90c-22.667 -42.667 -51 -80 -85 -112
s-70.333 -56.667 -109 -74s-76.667 -26 -114 -26z" />
    <glyph glyph-name="uni0304" unicode="&#x304;" horiz-adv-x="0" 
d="M0 1321v135h816v-135h-816z" />
    <glyph glyph-name="uni0306" unicode="&#x306;" horiz-adv-x="0" 
d="M423 1314c-74 0 -140.997 13.833 -200.997 41.5s-109.167 66.5 -147.5 116.5s-63.166 107.667 -74.499 173l143 35c8 -44 24 -83.833 48 -119.5s55.5 -64.167 94.5 -85.5s84.833 -32 137.5 -32s98.5 10.667 137.5 32s70.667 49.833 95 85.5s40.166 75.5 47.499 119.5
l143 -35c-10.667 -65.333 -35.334 -123 -74.001 -173s-87.834 -88.833 -147.501 -116.5s-126.834 -41.5 -201.501 -41.5z" />
    <glyph glyph-name="uni0307" unicode="&#x307;" horiz-adv-x="0" 
d="M122 1355c-22.667 0 -43.167 5.5 -61.5 16.5s-33 25.667 -44 44s-16.5 38.833 -16.5 61.5c0 22 5.5 42.167 16.5 60.5s25.667 33 44 44s38.833 16.5 61.5 16.5s43 -5.5 61 -16.5s32.5 -25.667 43.5 -44s16.5 -38.5 16.5 -60.5c0 -22.667 -5.5 -43.167 -16.5 -61.5
s-25.5 -33 -43.5 -44s-38.333 -16.5 -61 -16.5z" />
    <glyph glyph-name="uni0308" unicode="&#x308;" horiz-adv-x="0" 
d="M583 1287c-30.667 0 -56.834 10.833 -78.501 32.5s-32.5 47.834 -32.5 78.501s10.833 56.834 32.5 78.501s47.834 32.5 78.501 32.5s56.834 -10.833 78.501 -32.5s32.5 -47.834 32.5 -78.501s-10.833 -56.834 -32.5 -78.501s-47.834 -32.5 -78.501 -32.5zM111 1287
c-30.667 0 -56.834 10.833 -78.501 32.5s-32.5 47.834 -32.5 78.501s10.833 56.834 32.5 78.501s47.834 32.5 78.501 32.5s56.834 -10.833 78.501 -32.5s32.5 -47.834 32.5 -78.501s-10.833 -56.834 -32.5 -78.501s-47.834 -32.5 -78.501 -32.5z" />
    <glyph glyph-name="uni030A" unicode="&#x30a;" horiz-adv-x="0" 
d="M253 1241c-46.667 0 -89.167 9.5 -127.5 28.5s-68.833 45.5 -91.5 79.5s-34 72.667 -34 116v0c-0 43.333 11.333 81.833 34 115.5s53.167 60 91.5 79s80.833 28.5 127.5 28.5c47.333 0 90 -9.5 128 -28.5s68.333 -45.333 91 -79s34 -72.167 34 -115.5
s-11.333 -82 -34 -116s-53 -60.5 -91 -79.5s-80.667 -28.5 -128 -28.5zM253 1343c37.333 0 68.833 11.667 94.5 35s38.5 52.333 38.5 87s-12.833 63.5 -38.5 86.5s-57.167 34.5 -94.5 34.5c-36.667 0 -68 -11.5 -94 -34.5s-39 -51.833 -39 -86.5v0
c0 -34.667 13 -63.667 39 -87s57.333 -35 94 -35z" />
    <glyph glyph-name="uni030B" unicode="&#x30b;" horiz-adv-x="0" 
d="M482 1333l-83 93l256 254l132 -139zM83 1333l-83 93l257 254l130 -139z" />
    <glyph glyph-name="uni030C" unicode="&#x30c;" horiz-adv-x="0" 
d="M384 1205l-384 282l78 107l306 -224l306 224l79 -107z" />
    <glyph glyph-name="uni0312" unicode="&#x312;" horiz-adv-x="0" 
d="M377 1339c-30.667 0 -54.665 8.16699 -71.998 24.5s-26 39.833 -26 70.5c0 39.333 13 80.666 39 123.999s60 79 102 107l48 -25c-16 -16 -30.333 -37.333 -43 -64s-20.334 -54 -23.001 -82c23.333 -2.66699 42.166 -11.167 56.499 -25.5s21.5 -31.166 21.5 -50.499
c0 -22.667 -9.5 -41.5 -28.5 -56.5s-43.833 -22.5 -74.5 -22.5z" />
    <glyph glyph-name="uni0326" unicode="&#x326;" horiz-adv-x="0" 
d="M323 -483l-30.001 25.001c15.333 19.333 28.833 44 40.5 74s18.167 61.333 19.5 94c-20.667 3.33301 -38 12.666 -52 27.999s-21 33.666 -21 54.999c0 24.667 8 45 24 61s37 24 63 24c26.667 0 47.5 -8.66699 62.5 -26s22.5 -43.666 22.5 -78.999
c0 -44 -12.167 -90.333 -36.5 -139s-55.166 -87.667 -92.499 -117z" />
    <glyph glyph-name="uni0327" unicode="&#x327;" horiz-adv-x="0" 
d="M268 -539c-55.333 0 -105.832 12.6689 -151.499 38.002s-84.5 61.333 -116.5 108l84 59c42.667 -66.667 103 -100 181 -100c42 0 75.833 10.5 101.5 31.5s38.5 48.5 38.5 82.5c0 32.667 -12.5 59 -37.5 79s-57.5 30 -97.5 30c-21.333 0 -43.833 -2.83301 -67.5 -8.5
s-42.834 -12.834 -57.501 -21.501l-11 8l82 254h95l-52 -161c22 2.66699 41.5 3.16699 58.5 1.5s32.833 -5.16699 47.5 -10.5c46 -6.66699 83.167 -25.667 111.5 -57s42.5 -70.333 42.5 -117c0 -62.667 -23.5 -114.334 -70.5 -155.001s-107.167 -61 -180.5 -61z" />
    <glyph glyph-name="uni0328" unicode="&#x328;" horiz-adv-x="0" 
d="M251 -538c-72.667 0 -132.668 21.999 -180.001 65.999s-71 97 -71 159c0 46 15.5 97.5 46.5 154.5s75.167 116.833 132.5 179.5h102c-49.333 -55.333 -88 -110.666 -116 -165.999s-42 -103 -42 -143c0 -36.667 12.167 -68 36.5 -94s60.5 -39 108.5 -39
c32.667 0 63.334 7.33301 92.001 22s55.667 37.334 81 68.001l85 -63c-30.667 -44.667 -70.667 -79.834 -120 -105.501s-101 -38.5 -155 -38.5z" />
    <glyph glyph-name="uni0394" unicode="&#x394;" horiz-adv-x="1586" 
d="M289 0l-33 22l498 1273h78l498 -1273l-33 -22h-1008zM442 133h702l-364 986h26z" />
    <glyph glyph-name="uni03A9" unicode="&#x3a9;" horiz-adv-x="1222" 
d="M123 0l-0.000976562 142.002l230 -17c-70.667 49.333 -125.834 114 -165.501 194s-59.5 168 -59.5 264c0 102.667 21.333 193.167 64 271.5s100.334 139.666 173.001 183.999s154.334 66.5 245.001 66.5c91.333 0 173.5 -22.333 246.5 -67s130.667 -106.334 173 -185.001
s63.5 -168.667 63.5 -270c0 -96.667 -20 -185.167 -60 -265.5s-94.667 -144.5 -164 -192.5l229 17v-142h-443v101l11 5c30.667 10 60.167 29.333 88.5 58s53.833 63.5 76.5 104.5s40.5 85.667 53.5 134s19.5 97.833 19.5 148.5c0 71.333 -12.833 135.833 -38.5 193.5
s-60.5 103.5 -104.5 137.5s-94 51 -150 51c-55.333 0 -105.166 -16.833 -149.499 -50.5s-79.333 -79.5 -105 -137.5s-38.5 -123 -38.5 -195c0 -50.667 6.5 -100.334 19.5 -149.001s30.667 -93.5 53 -134.5s47.666 -75.667 75.999 -104s57.833 -47.166 88.5 -56.499l11 -5
v-101h-443z" />
    <glyph glyph-name="uni03BC" unicode="&#x3bc;" horiz-adv-x="1520" 
d="M275 -320c0 74 2.16797 140.67 6.50098 200.003s9.5 116.666 15.5 171.999s11.167 113.5 15.5 174.5s6.5 129.833 6.5 206.5v592h194v-604c0 -92.667 21.833 -165.667 65.5 -219s110.167 -80 199.5 -80c56 0 104.5 12.667 145.5 38s72.5 57.666 94.5 96.999
s33 79.666 33 120.999v647h194v-1025h-194v132c-20 -36 -47.5 -66.167 -82.5 -90.5s-72.833 -42.666 -113.5 -54.999s-80 -18.5 -118 -18.5c-56 0 -102.333 9.16699 -139 27.5s-65.334 43.166 -86.001 74.499v-390h-237z" />
    <glyph glyph-name="pi" unicode="&#x3c0;" horiz-adv-x="1310" 
d="M373 0v881h-168v144h919v-144h-168v-630c0 -36.667 7 -61.834 21 -75.501s39.667 -20.5 77 -20.5v-155c-91.333 0 -156.333 16.833 -195 50.5s-58 90.834 -58 171.501v659h-273v-881h-155z" />
    <glyph glyph-name="Wgrave" unicode="&#x1e80;" horiz-adv-x="2455" 
d="M583 0l-486 1650h226l383 -1379l444 1379h155l445 -1379l382 1379h226l-486 -1650h-227l-417 1254l-417 -1254h-228zM1306 1768l-266 364l142 104l216 -398z" />
    <glyph glyph-name="wgrave" unicode="&#x1e81;" horiz-adv-x="1961" 
d="M550 0l-509 1024h222l346 -755l306 755h131l305 -755l347 755h222l-509 -1024h-130l-301 736l-301 -736h-129zM1058 1143l-266 364l142 104l216 -398z" />
    <glyph glyph-name="Wacute" unicode="&#x1e82;" horiz-adv-x="2455" 
d="M583 0l-486 1650h226l383 -1379l444 1379h155l445 -1379l382 1379h226l-486 -1650h-227l-417 1254l-417 -1254h-228zM1205 1768l-91 70l216 398l142 -104z" />
    <glyph glyph-name="wacute" unicode="&#x1e83;" horiz-adv-x="1961" 
d="M550 0l-509 1024h222l346 -755l306 755h131l305 -755l347 755h222l-509 -1024h-130l-301 736l-301 -736h-129zM957 1143l-91 70l216 398l142 -104z" />
    <glyph glyph-name="Wdieresis" unicode="&#x1e84;" horiz-adv-x="2455" 
d="M583 0l-486 1650h226l383 -1379l444 1379h155l445 -1379l382 1379h226l-486 -1650h-227l-417 1254l-417 -1254h-228zM1464 1912c-30.667 0 -56.834 10.834 -78.501 32.501s-32.5 47.834 -32.5 78.501s10.833 56.834 32.5 78.5c21.667 21.667 47.834 32.5 78.501 32.5
s56.834 -10.833 78.501 -32.5s32.5 -47.834 32.5 -78.501s-10.833 -56.834 -32.5 -78.501s-47.834 -32.5 -78.501 -32.5zM992 1912c-30.667 0 -56.834 10.833 -78.501 32.5s-32.5 47.834 -32.5 78.501s10.833 56.834 32.5 78.5c21.667 21.667 47.834 32.5 78.501 32.5
s56.834 -10.833 78.501 -32.5s32.5 -47.834 32.5 -78.5c0 -30.667 -10.833 -56.834 -32.5 -78.501s-47.834 -32.5 -78.501 -32.5z" />
    <glyph glyph-name="wdieresis" unicode="&#x1e85;" horiz-adv-x="1961" 
d="M550 0l-509 1024h222l346 -755l306 755h131l305 -755l347 755h222l-509 -1024h-130l-301 736l-301 -736h-129zM1216 1287c-30.667 0 -56.834 10.833 -78.501 32.5s-32.5 47.834 -32.5 78.501s10.833 56.834 32.5 78.501s47.834 32.5 78.501 32.5
s56.834 -10.833 78.501 -32.5s32.5 -47.834 32.5 -78.501s-10.833 -56.834 -32.5 -78.501s-47.834 -32.5 -78.501 -32.5zM744 1287c-30.667 0 -56.834 10.833 -78.501 32.5s-32.5 47.834 -32.5 78.501s10.833 56.834 32.5 78.501s47.834 32.5 78.501 32.5
s56.834 -10.833 78.501 -32.5s32.5 -47.834 32.5 -78.501s-10.833 -56.834 -32.5 -78.501s-47.834 -32.5 -78.501 -32.5z" />
    <glyph glyph-name="uni1E9E" unicode="&#x1e9e;" horiz-adv-x="1590" 
d="M984 -29c-62 0 -124.667 10.334 -188 31.001s-129 51.334 -197 92.001l50 193c60.667 -38.667 116.5 -68.334 167.5 -89.001s103.833 -31 158.5 -31c52 0 98.5 10.167 139.5 30.5s73.333 49.166 97 86.499s35.5 81.666 35.5 132.999c0 46 -9.66699 84 -29 114
s-44.333 55 -75 75s-63.167 37.833 -97.5 53.5s-66.833 32 -97.5 49s-55.667 37.333 -75 61s-29 53.834 -29 90.501c0 30 6.5 55.167 19.5 75.5s29 39.166 48 56.499s37.833 36 56.5 56s34.5 44.167 47.5 72.5s19.5 64.5 19.5 108.5c0 80.667 -24 142.834 -72 186.501
s-110.667 65.5 -188 65.5c-102 0 -180 -38 -234 -114s-81 -183 -81 -321v-1046h-204v1032c0 134.667 20.333 250.5 61 347.5s100.5 171.5 179.5 223.5s176.167 78 291.5 78c91.333 0 172 -16.167 242 -48.5s124.667 -79 164 -140s59 -134.5 59 -220.5
c0 -51.333 -6.5 -94.333 -19.5 -129s-29 -64 -48 -88s-38 -44.833 -57 -62.5s-35 -34.667 -48 -51s-19.5 -34.5 -19.5 -54.5c0 -24 9.33301 -44.167 28 -60.5s42.667 -31.833 72 -46.5l93 -48.5c32.667 -17.667 63.667 -39.667 93 -66s53.333 -59.5 72 -99.5s28 -90 28 -150
c0 -84.667 -20 -160.667 -60 -228s-94.833 -120.333 -164.5 -159s-149.167 -58 -238.5 -58z" />
    <glyph glyph-name="Ygrave" unicode="&#x1ef2;" horiz-adv-x="1491" 
d="M644 0v721l-577 929h245l433 -717l434 717h245l-577 -929v-721h-203zM823 1768l-266 364l142 104l216 -398z" />
    <glyph glyph-name="ygrave" unicode="&#x1ef3;" horiz-adv-x="1241" 
d="M251 -520l275 576l-487 968h221l378 -775l339 775h221l-727 -1544h-220zM699 1143l-266 364l142 104l216 -398z" />
    <glyph glyph-name="endash" unicode="&#x2013;" horiz-adv-x="1326" 
d="M205 496v166h916v-166h-916z" />
    <glyph glyph-name="emdash" unicode="&#x2014;" horiz-adv-x="2215" 
d="M205 496v166h1805v-166h-1805z" />
    <glyph glyph-name="quoteleft" unicode="&#x2018;" horiz-adv-x="642" 
d="M316 1208c-37.333 0 -67.666 12.002 -90.999 36.002s-35 58 -35 102c0 55.333 17.5 113.666 52.5 174.999s79.833 114 134.5 158l48 -41c-12.667 -13.333 -24.834 -30.833 -36.501 -52.5s-21.667 -44.834 -30 -69.501s-13.833 -49 -16.5 -73c29.333 -6 53 -19.5 71 -40.5
s27 -46.167 27 -75.5c0 -34.667 -11.5 -63.167 -34.5 -85.5s-52.833 -33.5 -89.5 -33.5z" />
    <glyph glyph-name="quoteright" unicode="&#x2019;" horiz-adv-x="640" 
d="M262 1209l-47.001 39.999c12.667 14 24.834 31.833 36.501 53.5s21.667 45 30 70s13.5 49.167 15.5 72.5c-28.667 6 -52 19.5 -70 40.5s-27 46.167 -27 75.5c0 35.333 11.333 64 34 86s52.334 33 89.001 33c37.333 0 67.666 -12 90.999 -36s35 -58 35 -102
c0 -55.333 -17.333 -113.666 -52 -174.999s-79.667 -114 -135 -158z" />
    <glyph glyph-name="quotesinglbase" unicode="&#x201a;" horiz-adv-x="735" 
d="M260 -248l-48.001 40.002c12.667 14 24.834 31.833 36.501 53.5s21.834 45 30.501 70s14 49.167 16 72.5c-29.333 5.33301 -53 18.666 -71 39.999s-27 46.666 -27 75.999c0 35.333 11.5 64 34.5 86s52.833 33 89.5 33c37.333 0 67.666 -12.167 90.999 -36.5
s35 -58.5 35 -102.5c0 -55.333 -17.333 -113.5 -52 -174.5s-79.667 -113.5 -135 -157.5z" />
    <glyph glyph-name="quotedblleft" unicode="&#x201c;" horiz-adv-x="965" 
d="M635 1208c-37.333 0 -67.665 12.002 -90.998 36.002s-35 58 -35 102c0 55.333 17.5 113.666 52.5 174.999s79.833 114 134.5 158l47 -41c-12.667 -13.333 -24.834 -30.833 -36.501 -52.5s-21.667 -44.834 -30 -69.501s-13.5 -49 -15.5 -73
c29.333 -6 52.833 -19.5 70.5 -40.5s26.5 -46.167 26.5 -75.5c0 -34.667 -11.333 -63.167 -34 -85.5s-52.334 -33.5 -89.001 -33.5zM320.001 1208c-38 0 -68.499 12.002 -91.499 36.002s-34.5 58 -34.5 102c0 55.333 17.333 113.666 52 174.999s79.334 114 134.001 158
l48 -41c-12.667 -13.333 -24.834 -30.833 -36.501 -52.5s-21.667 -44.834 -30 -69.501s-13.5 -49 -15.5 -73c29.333 -6 52.833 -19.5 70.5 -40.5s26.5 -46.167 26.5 -75.5c0 -34.667 -11.333 -63.167 -34 -85.5s-52.334 -33.5 -89.001 -33.5z" />
    <glyph glyph-name="quotedblright" unicode="&#x201d;" horiz-adv-x="963" 
d="M583 1209l-48.001 40.0039c12.667 14 24.834 31.667 36.501 53s21.667 44.666 30 69.999s13.5 49.666 15.5 72.999c-28.667 5.33301 -52 18.666 -70 39.999s-27 46.666 -27 75.999c0 35.333 11.333 64 34 86s52.334 33 89.001 33c38 0 68.5 -12.167 91.5 -36.5
s34.5 -58.5 34.5 -102.5c0 -55.333 -17.333 -113.5 -52 -174.5s-79.334 -113.5 -134.001 -157.5zM266.999 1209l-47.001 40.0039c12.667 14 24.834 31.667 36.501 53s21.667 44.666 30 69.999s13.5 49.666 15.5 72.999c-28.667 5.33301 -52 18.666 -70 39.999
s-27 46.666 -27 75.999c0 35.333 11.333 64 34 86s52.334 33 89.001 33c37.333 0 67.666 -12.167 90.999 -36.5s35 -58.5 35 -102.5c0 -55.333 -17.333 -113.5 -52 -174.5s-79.667 -113.5 -135 -157.5z" />
    <glyph glyph-name="quotedblbase" unicode="&#x201e;" horiz-adv-x="942" 
d="M256 -248l-48.001 40.002c12.667 14 24.834 31.833 36.501 53.5s21.834 45 30.501 70s14 49.167 16 72.5c-29.333 5.33301 -53 18.666 -71 39.999s-27 46.666 -27 75.999c0 35.333 11.5 64 34.5 86s52.833 33 89.5 33c37.333 0 67.666 -12.167 90.999 -36.5
s35 -58.5 35 -102.5c0 -55.333 -17.5 -113.5 -52.5 -174.5s-79.833 -113.5 -134.5 -157.5zM570.999 -247.998l-48.001 40.002c12.667 14 24.834 31.833 36.501 53.5s21.834 45 30.501 70s14 49.167 16 72.5c-29.333 5.33301 -53 18.666 -71 39.999s-27 46.666 -27 75.999
c0 35.333 11.5 64 34.5 86s52.833 33 89.5 33c37.333 0 67.666 -12.167 90.999 -36.5s35 -58.5 35 -102.5c0 -55.333 -17.333 -113.5 -52 -174.5s-79.667 -113.5 -135 -157.5z" />
    <glyph glyph-name="dagger" unicode="&#x2020;" horiz-adv-x="1133" 
d="M481 0v1086h-317v156h317v478h171v-478h316v-156h-316v-1086h-171z" />
    <glyph glyph-name="daggerdbl" unicode="&#x2021;" horiz-adv-x="1203" 
d="M516 0v518h-317v156h317v394h-317v155h317v497h171v-497h316v-155h-316v-394h316v-156h-316v-518h-171z" />
    <glyph glyph-name="bullet" unicode="&#x2022;" horiz-adv-x="904" 
d="M452 503c-39.333 0 -75.166 9.33301 -107.499 28s-58 44 -77 76s-28.5 67.667 -28.5 107s9.5 75 28.5 107s44.667 57.333 77 76s68.166 28 107.499 28s75 -9.33301 107 -28s57.333 -44 76 -76s28 -67.667 28 -107s-9.33301 -75 -28 -107s-44 -57.333 -76 -76
s-67.667 -28 -107 -28z" />
    <glyph glyph-name="ellipsis" unicode="&#x2026;" horiz-adv-x="1644" 
d="M390 -32c-24.667 0 -47.001 6 -67.001 18s-36 28 -48 48s-18 42 -18 66s6 46 18 66s28 35.833 48 47.5s42 17.5 66 17.5c24.667 0 46.834 -5.83301 66.501 -17.5s35.334 -27.5 47.001 -47.5s17.5 -42 17.5 -66s-5.83301 -46 -17.5 -66s-27.334 -36 -47.001 -48
s-41.5 -18 -65.5 -18zM822.999 -32c-24.667 0 -47 6 -67 18s-35.833 28 -47.5 48s-17.5 42 -17.5 66s5.83301 46 17.5 66s27.5 35.833 47.5 47.5s42.333 17.5 67 17.5c24 0 45.833 -5.83301 65.5 -17.5s35.5 -27.5 47.5 -47.5s18 -42 18 -66s-6 -46 -18 -66
s-27.833 -36 -47.5 -48s-41.5 -18 -65.5 -18zM1255 -32c-24.667 0 -46.834 6.00098 -66.501 18.001s-35.5 28.167 -47.5 48.5s-18 42.166 -18 65.499c0 24 6 46 18 66s27.833 35.833 47.5 47.5s41.834 17.5 66.501 17.5c24 0 45.833 -5.83301 65.5 -17.5
s35.5 -27.5 47.5 -47.5s18 -42 18 -66s-6 -46 -18 -66s-27.833 -36 -47.5 -48s-41.5 -18 -65.5 -18z" />
    <glyph glyph-name="perthousand" unicode="&#x2030;" horiz-adv-x="3115" 
d="M579 892c-78.667 0 -149.667 16.667 -213 50s-113.5 79.666 -150.5 138.999s-55.5 127.666 -55.5 204.999s18.5 145.666 55.5 204.999s87.167 105.666 150.5 138.999s134.333 50 213 50s149.5 -16.667 212.5 -50s113 -79.666 150 -138.999s55.5 -127.666 55.5 -204.999
s-18.5 -145.666 -55.5 -204.999s-87 -105.666 -150 -138.999s-133.833 -50 -212.5 -50zM516 0l960 1650h141l-960 -1650h-141zM578 1018c50.667 0 96.166 11.5 136.499 34.5s72.333 54.667 96 95s35.5 86.5 35.5 138.5c0 52.667 -11.833 99 -35.5 139s-55.5 71.5 -95.5 94.5
s-85.333 34.5 -136 34.5s-96.167 -11.5 -136.5 -34.5s-72.166 -54.5 -95.499 -94.5s-35 -86.333 -35 -139s11.833 -99.167 35.5 -139.5s55.5 -71.833 95.5 -94.5s85 -34 135 -34zM1554 -31c-78.667 0 -149.667 16.667 -213 50s-113.5 79.666 -150.5 138.999
s-55.5 127.666 -55.5 204.999s18.5 145.666 55.5 204.999s87.167 105.666 150.5 138.999s134.333 50 213 50s149.5 -16.667 212.5 -50s113 -79.666 150 -138.999s55.5 -127.666 55.5 -204.999s-18.5 -145.666 -55.5 -204.999s-87 -105.666 -150 -138.999
s-133.833 -50 -212.5 -50zM2536 -31c-78.667 0 -149.5 16.667 -212.5 50s-113 79.666 -150 138.999s-55.5 127.666 -55.5 204.999s18.5 145.666 55.5 204.999s87 105.666 150 138.999s133.833 50 212.5 50c79.333 0 150.5 -16.667 213.5 -50s113 -79.666 150 -138.999
s55.5 -127.666 55.5 -204.999s-18.5 -145.666 -55.5 -204.999s-87 -105.666 -150 -138.999s-134.167 -50 -213.5 -50zM1554 95c50.667 0 96 11.5 136 34.5s71.833 54.667 95.5 95s35.5 86.5 35.5 138.5c0 52.667 -11.833 99 -35.5 139s-55.5 71.5 -95.5 94.5
s-85.333 34.5 -136 34.5s-96.167 -11.5 -136.5 -34.5s-72.166 -54.5 -95.499 -94.5s-35 -86.333 -35 -139c0 -52 11.667 -98.167 35 -138.5s55.166 -72 95.499 -95s85.833 -34.5 136.5 -34.5zM2536 95c50.667 0 96.166 11.5 136.499 34.5s72.166 54.667 95.5 95
c23.333 40.333 35 86.5 35 138.5c0 52.667 -11.667 99 -35 139s-55.166 71.5 -95.499 94.5s-85.833 34.5 -136.5 34.5c-50 0 -95.167 -11.5 -135.5 -34.5s-72.333 -54.5 -96 -94.5s-35.5 -86.333 -35.5 -139c0 -52 11.833 -98.167 35.5 -138.5s55.667 -72 96 -95
s85.5 -34.5 135.5 -34.5z" />
    <glyph glyph-name="guilsinglleft" unicode="&#x2039;" horiz-adv-x="748" 
d="M505 57l-390 500l390 500l110 -87l-323 -413l323 -414z" />
    <glyph glyph-name="guilsinglright" unicode="&#x203a;" horiz-adv-x="747" 
d="M242 57l-111 86l323 414l-323 413l111 87l390 -500z" />
    <glyph glyph-name="fraction" unicode="&#x2044;" horiz-adv-x="95" 
d="M-568 0l1084 1650h146l-1083 -1650h-147z" />
    <glyph glyph-name="uni2074" unicode="&#x2074;" horiz-adv-x="558" 
d="M363 1040v111h-338v36l336 463h93v-415h79v-84h-79v-111h-91zM156 1235h207v293z" />
    <glyph glyph-name="Euro" unicode="&#x20ac;" horiz-adv-x="1937" 
d="M1214 -31c-132 0 -255.174 26.168 -369.507 78.501s-212.666 125.333 -294.999 219s-140.833 202.167 -175.5 325.5h-176v124h149c-2.66699 17.333 -4.83398 35.333 -6.50098 54s-2.5 37 -2.5 55c0 17.333 0.833008 35 2.5 53s3.83398 35.333 6.50098 52h-149v124h176
c26 92 66.167 176.167 120.5 252.5s118.833 142.333 193.5 198s156.834 98.834 246.501 129.501s182.834 46 279.501 46c99.333 0 195.5 -14.5 288.5 -43.5s174.833 -70.167 245.5 -123.5l-93 -172c-57.333 44.667 -121.833 79 -193.5 103s-145.5 36 -221.5 36
c-96 0 -185.667 -17.833 -269 -53.5s-155.666 -85.334 -216.999 -149.001s-107.666 -138.167 -138.999 -223.5h829v-124h-874c-3.33301 -18.667 -6 -36.834 -8 -54.501s-3 -34.5 -3 -50.5c0 -16.667 1 -34 3 -52s4.66699 -37 8 -57h874v-124h-830
c30 -86 75.333 -160.667 136 -224s132.834 -112.333 216.501 -147s174.834 -52 273.501 -52c76.667 0 151 12 223 36s136.333 57.667 193 101l93 -171c-69.333 -52.667 -150.5 -93.5 -243.5 -122.5s-190.167 -43.5 -291.5 -43.5z" />
    <glyph glyph-name="trademark" unicode="&#x2122;" horiz-adv-x="1395" 
d="M574 1134l58 516h81l135 -359l137 359h82l58 -516h-76l-45 375l-129 -354h-51l-130 354l-44 -375h-76zM340 1134v448h-143v68h363v-68h-142v-448h-78z" />
    <glyph glyph-name="uni2150" unicode="&#x2150;" horiz-adv-x="2250" 
d="M311 600v893h-98v157h256v-1050h-158zM305 0l1084 1650h146l-1083 -1650h-147zM1296 0l528 909h-508v141h744v-49l-575 -1001h-189z" />
    <glyph glyph-name="uni2151" unicode="&#x2151;" horiz-adv-x="2407" 
d="M311 600v893h-98v157h256v-1050h-158zM305 0l1084 1650h146l-1083 -1650h-147zM1414 0l369.002 383.998c-18.667 -10.667 -40.167 -18.667 -64.5 -24s-50.166 -8 -77.499 -8c-66.667 0 -129.834 15.333 -189.501 46s-108.334 73.334 -146.001 128.001
s-56.5 118.334 -56.5 191.001c0 68 17.667 129.5 53 184.5s85.166 98.5 149.499 130.5s140.166 48 227.499 48c84.667 0 159.834 -15.5 225.501 -46.5s117.667 -74.167 156 -129.5s58.5 -119.333 60.5 -192c2 -57.333 -6.33301 -108.5 -25 -153.5s-40.5 -83.333 -65.5 -115
s-46.167 -56.167 -63.5 -73.5l-358 -370h-195zM1683 490.998c51.333 0 97.499 10.499 138.499 31.499s73.333 49 97 84s35.5 73.5 35.5 115.5c0 40.667 -11.167 77.834 -33.5 111.501s-53.666 60.667 -93.999 81s-87.5 30.5 -141.5 30.5c-52 0 -98.667 -9.66699 -140 -29
s-73.833 -46 -97.5 -80s-35.5 -72.667 -35.5 -116c0 -44.667 12.333 -84.167 37 -118.5s57.5 -61.333 98.5 -81s86.167 -29.5 135.5 -29.5z" />
    <glyph glyph-name="uni2152" unicode="&#x2152;" horiz-adv-x="3178" 
d="M311 600v893h-98v157h256v-1050h-158zM305 0l1084 1650h146l-1083 -1650h-147zM1466 0v893h-98v157h256v-1050h-158zM2447 -21c-104 0 -195.333 23.167 -274 69.5s-139.834 111 -183.501 194s-65.5 178.833 -65.5 287.5c0 109.333 21.833 205.166 65.5 287.499
s104.834 146.666 183.501 192.999s170 69.5 274 69.5c104.667 0 196.167 -23.167 274.5 -69.5s139.5 -110.666 183.5 -192.999s66 -178.166 66 -287.499c0 -108.667 -22 -204.5 -66 -287.5s-105.167 -147.667 -183.5 -194s-169.833 -69.5 -274.5 -69.5zM2447 122
c71.333 0 133.5 16.667 186.5 50s94 80.5 123 141.5s43.5 133.167 43.5 216.5s-14.667 155.5 -44 216.5s-70.333 108.167 -123 141.5s-114.667 50 -186 50c-70.667 0 -132.5 -16.667 -185.5 -50s-94.167 -80.5 -123.5 -141.5s-44 -133.167 -44 -216.5
s14.667 -155.5 44 -216.5s70.5 -108.167 123.5 -141.5s114.833 -50 185.5 -50z" />
    <glyph glyph-name="uni2153" unicode="&#x2153;" horiz-adv-x="2362" 
d="M311 600v893h-98v157h256v-1050h-158zM305 0l1084 1650h146l-1083 -1650h-147zM1670 -21c-97.333 0 -181.002 24.1689 -251.002 72.502s-113 113.833 -129 196.5l150 66c2.66699 -56.667 25.167 -103 67.5 -139s96.5 -54 162.5 -54c62.667 0 112.834 16.5 150.501 49.5
s56.5 75.833 56.5 128.5c0 38.667 -9.33301 73 -28 103s-43.5 53.667 -74.5 71s-64.5 26 -100.5 26c-18 0 -33.667 -2.33301 -47 -7v110h44c36 0 68.5 8.33301 97.5 25s52 38.667 69 66s25.5 56.666 25.5 87.999s-8.33301 59.666 -25 84.999s-39.167 45.333 -67.5 60
s-59.5 22 -93.5 22s-65.667 -7.5 -95 -22.5s-53.333 -35.5 -72 -61.5s-29.667 -55.667 -33 -89l-129 55c8.66699 50 28.5 93.667 59.5 131s70.167 66.5 117.5 87.5s99 31.5 155 31.5c65.333 0 122.833 -13.5 172.5 -40.5s88.5 -62.667 116.5 -107s42 -92.833 42 -145.5
c0 -49.333 -12.667 -94.333 -38 -135s-60.666 -72 -105.999 -94c51.333 -22 92.833 -55.5 124.5 -100.5s47.5 -98.167 47.5 -159.5c0 -58.667 -14.833 -112.167 -44.5 -160.5s-72.167 -86.833 -127.5 -115.5s-121 -43 -197 -43z" />
    </font>
</defs>
</svg>
